<svg width="32" height="32" viewBox="0 0 32 32" fill="none" xmlns="http://www.w3.org/2000/svg">
<g clip-path="url(#clip0_2322_59)">
<path d="M7.52709 -0.0323485C7.69319 -0.0326877 7.85929 -0.0331242 8.0254 -0.033676C8.42777 -0.0347813 8.83014 -0.0345504 9.23251 -0.0338228C9.55985 -0.0332557 9.88719 -0.0331827 10.2145 -0.0334538C10.2613 -0.0334921 10.3081 -0.0335304 10.3563 -0.0335699C10.4514 -0.0336498 10.5464 -0.0337308 10.6415 -0.033813C11.5307 -0.034524 12.4199 -0.0337092 13.3091 -0.0323629C14.0703 -0.0312461 14.8314 -0.0314402 15.5926 -0.0325926C16.4788 -0.0339338 17.3651 -0.0344554 18.2513 -0.0336895C18.3461 -0.0336099 18.4408 -0.0335313 18.5355 -0.0334538C18.582 -0.0334152 18.6286 -0.0333766 18.6766 -0.0333369C19.0031 -0.033122 19.3297 -0.0334832 19.6562 -0.0340737C20.0547 -0.0347785 20.4532 -0.0345774 20.8518 -0.0332535C21.0547 -0.0326014 21.2576 -0.0324677 21.4605 -0.0331658C22.4884 -0.0363744 23.4094 -0.00588438 24.3359 0.488281C24.3777 0.510009 24.4195 0.531737 24.4626 0.554123C24.7969 0.732471 25.0946 0.931188 25.375 1.1875C25.4586 1.26255 25.4586 1.26255 25.5439 1.33911C26.4063 2.15322 27.0348 3.31008 27.0743 4.51434C27.0808 4.84758 27.0801 5.18081 27.0797 5.5141C27.0799 5.64228 27.0802 5.77045 27.0806 5.89863C27.0815 6.24533 27.0815 6.59202 27.0813 6.93872C27.0813 7.22841 27.0816 7.5181 27.0819 7.8078C27.0826 8.49102 27.0826 9.17423 27.0822 9.85745C27.0818 10.5622 27.0826 11.2669 27.0839 11.9716C27.085 12.5772 27.0854 13.1828 27.0852 13.7884C27.0851 14.1499 27.0853 14.5114 27.0861 14.8728C27.0869 15.2124 27.0868 15.552 27.086 15.8916C27.0858 16.0163 27.086 16.1409 27.0865 16.2655C27.0872 16.4356 27.0867 16.6056 27.0859 16.7757C27.0863 16.825 27.0868 16.8743 27.0873 16.9251C27.0834 17.3168 26.9838 17.561 26.7305 17.8555C26.3626 18.172 26.0581 18.2293 25.5791 18.2173C25.2128 18.1638 24.9525 17.9904 24.7248 17.7012C24.4983 17.3335 24.4908 16.9724 24.4918 16.5526C24.4916 16.476 24.4916 16.476 24.4914 16.3978C24.491 16.2268 24.4911 16.0558 24.4911 15.8847C24.4909 15.762 24.4907 15.6393 24.4905 15.5166C24.49 15.2524 24.4897 14.9882 24.4894 14.7239C24.4891 14.3058 24.488 13.8876 24.4869 13.4694C24.4865 13.3262 24.4861 13.1829 24.4857 13.0397C24.4855 12.9679 24.4853 12.8962 24.4851 12.8223C24.4824 11.8488 24.4804 10.8754 24.4796 9.90198C24.4791 9.24522 24.4777 8.58846 24.4753 7.9317C24.474 7.58435 24.4733 7.23701 24.4736 6.88966C24.4739 6.56267 24.473 6.2357 24.4713 5.90871C24.4708 5.78907 24.4708 5.66942 24.4713 5.54978C24.4743 4.65928 24.4095 3.91704 23.75 3.25C23.0451 2.65017 22.3204 2.55264 21.4237 2.55414C21.361 2.554 21.2983 2.55386 21.2338 2.55371C21.0246 2.55332 20.8154 2.55337 20.6063 2.55342C20.4559 2.55323 20.3056 2.55302 20.1553 2.55279C19.7898 2.55229 19.4243 2.55209 19.0588 2.55206C18.7615 2.55203 18.4642 2.5519 18.167 2.5517C17.3229 2.55115 16.4788 2.55086 15.6348 2.55091C15.5666 2.55092 15.5666 2.55092 15.4971 2.55092C15.4288 2.55092 15.4288 2.55092 15.3592 2.55093C14.6221 2.55095 13.8851 2.55035 13.148 2.54947C12.3901 2.54857 11.6321 2.54814 10.8741 2.5482C10.449 2.54822 10.024 2.54805 9.59889 2.54737C9.19896 2.54677 8.79903 2.54676 8.39909 2.54722C8.25267 2.54728 8.10624 2.54714 7.95981 2.54676C6.31949 2.52403 6.31949 2.52403 4.92626 3.31128C4.25289 4.05834 4.24047 4.93838 4.24163 5.89029C4.24151 5.98093 4.24137 6.07157 4.2412 6.16221C4.24082 6.41047 4.24083 6.65873 4.2409 6.90698C4.24092 7.17506 4.24057 7.44313 4.24027 7.7112C4.23975 8.2361 4.23958 8.761 4.23955 9.2859C4.23952 9.71268 4.23939 10.1395 4.23919 10.5662C4.23864 11.7769 4.23835 12.9876 4.2384 14.1983C4.2384 14.2961 4.2384 14.2961 4.23841 14.3959C4.23841 14.4939 4.23841 14.4939 4.23841 14.5939C4.23844 15.6522 4.23784 16.7106 4.23696 17.7689C4.23606 18.8563 4.23563 19.9437 4.23569 21.031C4.23571 21.6413 4.23554 22.2515 4.23486 22.8617C4.23429 23.3812 4.23416 23.9008 4.23458 24.4204C4.23479 24.6853 4.23479 24.9502 4.23425 25.2151C4.23375 25.458 4.23385 25.7008 4.23439 25.9437C4.23449 26.0312 4.23437 26.1187 4.23402 26.2062C4.23041 27.1739 4.3153 28.0256 4.99877 28.7612C5.65638 29.354 6.43113 29.4481 7.28037 29.4444C7.39857 29.4444 7.51677 29.4445 7.63497 29.4445C7.69694 29.4444 7.75891 29.4443 7.82276 29.4442C8.15337 29.444 8.48396 29.4456 8.81456 29.4469C9.23413 29.4484 9.65368 29.4494 10.0732 29.4484C10.4134 29.4477 10.7536 29.4488 11.0938 29.4511C11.2229 29.4516 11.3521 29.4515 11.4812 29.4507C12.7 29.4435 12.7 29.4435 13.0958 29.7764C13.4469 30.154 13.4853 30.4592 13.4695 30.9717C13.4215 31.2955 13.3014 31.5266 13.0625 31.75C12.6942 32.0084 12.4142 32.0361 11.9706 32.0323C11.9062 32.0328 11.8418 32.0332 11.7754 32.0337C11.5632 32.0348 11.3509 32.034 11.1387 32.0332C10.9902 32.0334 10.8417 32.0336 10.6933 32.0339C10.382 32.0343 10.0708 32.0338 9.75957 32.0326C9.3629 32.0312 8.96626 32.032 8.56959 32.0335C8.26277 32.0344 7.95595 32.0341 7.64913 32.0335C7.50302 32.0333 7.35692 32.0335 7.21081 32.0341C6.21146 32.0372 5.31437 31.9919 4.41405 31.5117C4.37226 31.49 4.33047 31.4683 4.28742 31.4459C3.95312 31.2676 3.65502 31.0691 3.37499 30.8125C3.31851 30.761 3.26203 30.7095 3.20385 30.6565C2.28828 29.7831 1.70027 28.607 1.65603 27.3308C1.65378 27.1569 1.6546 26.9831 1.65574 26.8092C1.65545 26.7116 1.65506 26.614 1.65456 26.5164C1.65353 26.251 1.65403 25.9855 1.65481 25.7201C1.65538 25.4328 1.6545 25.1455 1.65381 24.8581C1.6527 24.2963 1.65294 23.7345 1.65367 23.1728C1.65423 22.7159 1.65431 22.2591 1.65403 21.8023C1.654 21.7371 1.65396 21.6719 1.65392 21.6048C1.65384 21.4724 1.65376 21.3399 1.65368 21.2075C1.65296 19.9676 1.65378 18.7277 1.65513 17.4878C1.65624 16.4254 1.65605 15.3629 1.6549 14.3004C1.65356 13.0648 1.65303 11.8291 1.6538 10.5935C1.65388 10.4616 1.65396 10.3297 1.65403 10.1977C1.65407 10.1328 1.65411 10.068 1.65415 10.0011C1.65437 9.54514 1.654 9.08918 1.65341 8.63322C1.65271 8.0771 1.65291 7.52098 1.65423 6.96485C1.65489 6.68144 1.65515 6.39804 1.65432 6.11463C1.65357 5.85463 1.654 5.59465 1.65532 5.33464C1.65559 5.24116 1.65546 5.14767 1.65485 5.05419C1.64988 4.23191 1.78512 3.45967 2.17577 2.72656C2.20789 2.66429 2.20789 2.66429 2.24065 2.60075C2.41773 2.26672 2.6275 1.97329 2.87499 1.6875C2.91229 1.63795 2.94959 1.5884 2.98803 1.53735C3.49075 0.941427 4.20619 0.504461 4.93749 0.25C4.99457 0.229237 5.05164 0.208473 5.11045 0.18708C5.90503 -0.0638676 6.70095 -0.0351905 7.52709 -0.0323485Z" fill="#111417"/>
<path d="M23.8125 20.125C23.8779 20.1446 23.8779 20.1446 23.9447 20.1646C26.2226 20.8551 28.28 22.6185 29.6875 24.5C29.7386 24.5664 29.7897 24.6327 29.8408 24.699C30.2286 25.2057 30.4179 25.4931 30.4058 26.1465C30.3545 26.5276 30.1756 26.7687 29.9375 27.0625C29.9114 27.095 29.8853 27.1274 29.8584 27.1609C29.6876 27.3718 29.5118 27.5777 29.3324 27.7814C29.2604 27.8631 29.1892 27.9456 29.1182 28.0281C28.4029 28.8445 27.6343 29.6178 26.75 30.25C26.6942 30.2902 26.6942 30.2902 26.6373 30.3312C26.059 30.7436 25.4569 31.0775 24.8125 31.375C24.7483 31.4052 24.6841 31.4354 24.6179 31.4666C23.121 32.133 21.2494 32.2448 19.6875 31.75C19.6126 31.7274 19.5376 31.7047 19.4604 31.6814C18.2216 31.2726 17.0676 30.5823 16.0991 29.7133C16.0284 29.6503 15.957 29.588 15.8851 29.5262C15.1329 28.8784 14.4113 28.1682 13.8125 27.375C13.7613 27.3085 13.71 27.242 13.6587 27.1755C13.2712 26.6689 13.0821 26.3817 13.0942 25.7285C13.1455 25.3474 13.3244 25.1063 13.5625 24.8125C13.5886 24.78 13.6147 24.7476 13.6416 24.7141C13.8124 24.5032 13.9882 24.2973 14.1676 24.0936C14.2396 24.0119 14.3108 23.9294 14.3818 23.8469C15.0968 23.0309 15.8652 22.256 16.75 21.625C16.7875 21.5982 16.825 21.5714 16.8637 21.5438C18.8924 20.112 21.3542 19.3471 23.8125 20.125ZM17.5276 24.3569C17.3978 24.4786 17.2654 24.5932 17.1289 24.707C16.896 24.9099 16.6839 25.1305 16.4727 25.3555C16.4227 25.4079 16.4227 25.4079 16.3717 25.4614C16.2107 25.6356 16.0967 25.763 16.0625 26C16.1312 26.1184 16.1312 26.1184 16.2422 26.2266C16.283 26.2702 16.3239 26.3137 16.366 26.3586C16.4102 26.4053 16.4544 26.4519 16.5 26.5C16.5873 26.6002 16.6745 26.7005 16.7617 26.8008C17.8734 28.0268 19.4927 29.3192 21.2093 29.4486C23.1042 29.4965 24.5997 28.8088 25.9724 27.5181C26.1022 27.3964 26.2346 27.2818 26.3711 27.168C26.604 26.9651 26.8161 26.7445 27.0273 26.5195C27.0607 26.4846 27.094 26.4496 27.1283 26.4136C27.2893 26.2394 27.4033 26.112 27.4375 25.875C27.3688 25.7566 27.3688 25.7566 27.2578 25.6484C27.217 25.6049 27.1761 25.5613 27.134 25.5164C27.0677 25.4464 27.0677 25.4464 27 25.375C26.9127 25.2748 26.8255 25.1745 26.7383 25.0742C25.5784 23.7951 23.9328 22.5185 22.147 22.4104C20.3353 22.3486 18.825 23.137 17.5276 24.3569Z" fill="#111417"/>
<path d="M8.06135 12.4758C8.11721 12.4754 8.17307 12.4751 8.23062 12.4748C8.41746 12.4739 8.60426 12.4743 8.79109 12.4747C8.92519 12.4744 9.05928 12.474 9.19338 12.4734C9.5574 12.4723 9.92142 12.4724 10.2854 12.4728C10.5894 12.473 10.8934 12.4726 11.1973 12.4722C11.9145 12.4713 12.6316 12.4714 13.3487 12.4721C14.0884 12.4728 14.828 12.472 15.5677 12.4703C16.2029 12.4689 16.8381 12.4685 17.4733 12.4689C17.8526 12.4691 18.2319 12.4689 18.6112 12.4678C18.968 12.4669 19.3247 12.4671 19.6814 12.4683C19.8122 12.4685 19.943 12.4683 20.0739 12.4677C20.2527 12.4669 20.4314 12.4676 20.6103 12.4687C20.6618 12.4681 20.7133 12.4675 20.7664 12.4669C21.1673 12.4719 21.5118 12.5766 21.8025 12.8635C21.8251 12.8995 21.8478 12.9356 21.8711 12.9727C21.9067 13.0269 21.9067 13.0269 21.9431 13.0823C22.1186 13.4068 22.0886 13.7669 22.0625 14.125C21.9394 14.4813 21.7184 14.7156 21.3995 14.9137C21.132 15.0226 20.9124 15.0267 20.6265 15.0251C20.5707 15.0255 20.5149 15.0259 20.4574 15.0264C20.2707 15.0275 20.0841 15.0274 19.8974 15.0272C19.7634 15.0278 19.6294 15.0284 19.4954 15.0291C19.1316 15.0308 18.7679 15.0312 18.4041 15.0314C18.1767 15.0315 17.9494 15.0319 17.7221 15.0324C16.9288 15.0341 16.1355 15.0349 15.3422 15.0347C14.603 15.0346 13.8639 15.0366 13.1247 15.0396C12.4898 15.042 11.8549 15.043 11.22 15.0429C10.841 15.0429 10.4619 15.0434 10.0829 15.0454C9.72627 15.0472 9.36972 15.0472 9.01312 15.0458C8.88244 15.0457 8.75175 15.0461 8.62107 15.0472C7.42858 15.0569 7.42858 15.0569 7.02958 14.7257C6.7358 14.4046 6.60671 14.0615 6.62499 13.625C6.69697 13.2396 6.84578 12.9602 7.12499 12.6875C7.44262 12.4877 7.6982 12.4731 8.06135 12.4758Z" fill="#111417"/>
<path d="M8.06135 7.47577C8.11721 7.47544 8.17307 7.4751 8.23062 7.47475C8.41746 7.47386 8.60426 7.4743 8.79109 7.47475C8.92519 7.47439 9.05928 7.47396 9.19338 7.47345C9.5574 7.47233 9.92142 7.4724 10.2854 7.47276C10.5894 7.47295 10.8934 7.47257 11.1973 7.47219C11.9145 7.47132 12.6316 7.47141 13.3487 7.47212C14.0884 7.47284 14.828 7.47196 15.5677 7.47029C16.2029 7.4689 16.8381 7.46849 17.4733 7.46885C17.8526 7.46907 18.2319 7.46891 18.6112 7.46784C18.968 7.46687 19.3247 7.46712 19.6814 7.4683C19.8122 7.46853 19.943 7.46833 20.0739 7.46768C20.2527 7.46685 20.4314 7.46757 20.6103 7.46868C20.6618 7.46808 20.7133 7.46748 20.7664 7.46686C21.1673 7.47193 21.5118 7.57657 21.8025 7.86353C21.8251 7.89954 21.8478 7.93555 21.8711 7.97266C21.9067 8.02692 21.9067 8.02692 21.9431 8.08228C22.1186 8.40682 22.0886 8.76688 22.0625 9.125C21.9394 9.48129 21.7184 9.71564 21.3995 9.91372C21.132 10.0226 20.9124 10.0267 20.6265 10.0251C20.5707 10.0255 20.5149 10.0259 20.4574 10.0264C20.2707 10.0275 20.0841 10.0274 19.8974 10.0272C19.7634 10.0278 19.6294 10.0284 19.4954 10.0291C19.1316 10.0308 18.7679 10.0312 18.4041 10.0314C18.1767 10.0315 17.9494 10.0319 17.7221 10.0324C16.9288 10.0341 16.1355 10.0349 15.3422 10.0347C14.603 10.0346 13.8639 10.0366 13.1247 10.0396C12.4898 10.042 11.8549 10.043 11.22 10.0429C10.841 10.0429 10.4619 10.0434 10.0829 10.0454C9.72627 10.0472 9.36972 10.0472 9.01312 10.0458C8.88244 10.0457 8.75175 10.0461 8.62107 10.0472C7.42858 10.0569 7.42858 10.0569 7.02958 9.72565C6.7358 9.40459 6.60671 9.06146 6.62499 8.625C6.69697 8.23959 6.84578 7.96022 7.12499 7.6875C7.44262 7.48768 7.6982 7.47314 8.06135 7.47577Z" fill="#111417"/>
<path d="M8.2164 17.4728C8.28809 17.4721 8.35978 17.4715 8.43365 17.4709C8.67038 17.4691 8.90708 17.4687 9.14381 17.4685C9.30868 17.4679 9.47354 17.4673 9.63841 17.4666C9.98396 17.4654 10.3295 17.4651 10.675 17.4653C11.0734 17.4654 11.4717 17.4634 11.87 17.4604C12.2544 17.4577 12.6388 17.457 13.0231 17.4571C13.1861 17.4569 13.3491 17.4561 13.5121 17.4546C13.7404 17.4528 13.9686 17.4533 14.1969 17.4545C14.2638 17.4534 14.3307 17.4523 14.3997 17.4513C14.8604 17.457 15.1522 17.5701 15.5 17.875C15.7865 18.2105 15.7954 18.537 15.782 18.9717C15.734 19.2955 15.6139 19.5266 15.375 19.75C14.9916 20.0252 14.6781 20.0365 14.214 20.0343C14.1065 20.0353 14.1065 20.0353 13.9968 20.0363C13.7604 20.038 13.524 20.0379 13.2876 20.0376C13.1228 20.0381 12.9581 20.0386 12.7933 20.0392C12.4481 20.0402 12.1029 20.0401 11.7578 20.0395C11.3599 20.0387 10.962 20.0402 10.5641 20.0429C10.1801 20.0454 9.79603 20.0458 9.41195 20.0453C9.24913 20.0454 9.08632 20.046 8.92351 20.0473C8.69552 20.0488 8.46765 20.048 8.23967 20.0465C8.13941 20.048 8.13941 20.048 8.03713 20.0494C7.57936 20.043 7.28084 19.9326 6.93751 19.625C6.69042 19.3387 6.60947 18.9961 6.62501 18.625C6.697 18.2396 6.8458 17.9602 7.12501 17.6875C7.47462 17.4541 7.81084 17.4723 8.2164 17.4728Z" fill="#111417"/>
<path d="M22.9575 23.771C23.598 24.1687 23.9501 24.6628 24.1875 25.375C24.2491 26.2328 24.1842 26.8958 23.6211 27.5859C23.1919 28.0338 22.6169 28.3145 21.9966 28.334C21.1899 28.3445 20.6095 28.1729 20.0124 27.6008C19.487 26.9765 19.3856 26.3009 19.4242 25.5152C19.4825 24.902 19.8517 24.3878 20.3125 24C21.1135 23.5114 22.088 23.3399 22.9575 23.771Z" fill="#111417"/>
</g>
<defs>
<clipPath id="clip0_2322_59">
<rect width="32" height="32" fill="white"/>
</clipPath>
</defs>
</svg>
