<svg width="33" height="20" viewBox="0 0 33 20" fill="none" xmlns="http://www.w3.org/2000/svg">
<path d="M4.67139 14.186H28.6582V19.2248H4.67139V14.186Z" fill="black"/>
<path fill-rule="evenodd" clip-rule="evenodd" d="M27.6587 15.1938H5.67084V18.217H27.6587V15.1938ZM4.67139 14.186V19.2248H28.6582V14.186H4.67139Z" fill="black"/>
<g filter="url(#filter0_d_2312_39)">
<path d="M4.67139 0.0775146H28.6582V5.11627H4.67139V0.0775146Z" fill="black"/>
</g>
<g filter="url(#filter1_d_2312_39)">
<path fill-rule="evenodd" clip-rule="evenodd" d="M27.6587 1.08527H5.67084V4.10852H27.6587V1.08527ZM4.67139 0.0775146V5.11627H28.6582V0.0775146H4.67139Z" fill="black"/>
</g>
<path d="M4.67139 7.13171H28.6582V12.1705H4.67139V7.13171Z" fill="black"/>
<path fill-rule="evenodd" clip-rule="evenodd" d="M27.6587 8.13947H5.67084V11.1627H27.6587V8.13947ZM4.67139 7.13171V12.1705H28.6582V7.13171H4.67139Z" fill="black"/>
<defs>
<filter id="filter0_d_2312_39" x="0.671387" y="0.0775146" width="31.9868" height="13.0388" filterUnits="userSpaceOnUse" color-interpolation-filters="sRGB">
<feFlood flood-opacity="0" result="BackgroundImageFix"/>
<feColorMatrix in="SourceAlpha" type="matrix" values="0 0 0 0 0 0 0 0 0 0 0 0 0 0 0 0 0 0 127 0" result="hardAlpha"/>
<feOffset dy="4"/>
<feGaussianBlur stdDeviation="2"/>
<feComposite in2="hardAlpha" operator="out"/>
<feColorMatrix type="matrix" values="0 0 0 0 0 0 0 0 0 0 0 0 0 0 0 0 0 0 0.25 0"/>
<feBlend mode="normal" in2="BackgroundImageFix" result="effect1_dropShadow_2312_39"/>
<feBlend mode="normal" in="SourceGraphic" in2="effect1_dropShadow_2312_39" result="shape"/>
</filter>
<filter id="filter1_d_2312_39" x="0.671387" y="0.0775146" width="31.9868" height="13.0388" filterUnits="userSpaceOnUse" color-interpolation-filters="sRGB">
<feFlood flood-opacity="0" result="BackgroundImageFix"/>
<feColorMatrix in="SourceAlpha" type="matrix" values="0 0 0 0 0 0 0 0 0 0 0 0 0 0 0 0 0 0 127 0" result="hardAlpha"/>
<feOffset dy="4"/>
<feGaussianBlur stdDeviation="2"/>
<feComposite in2="hardAlpha" operator="out"/>
<feColorMatrix type="matrix" values="0 0 0 0 0 0 0 0 0 0 0 0 0 0 0 0 0 0 0.25 0"/>
<feBlend mode="normal" in2="BackgroundImageFix" result="effect1_dropShadow_2312_39"/>
<feBlend mode="normal" in="SourceGraphic" in2="effect1_dropShadow_2312_39" result="shape"/>
</filter>
</defs>
</svg>
