<svg width="32" height="32" viewBox="0 0 32 32" fill="none" xmlns="http://www.w3.org/2000/svg">
<g clip-path="url(#clip0_2322_66)">
<path d="M4.49218 -0.0195448C4.58601 -0.0193427 4.58601 -0.0193427 4.68173 -0.0191366C5.61184 -0.0159195 6.52195 0.00942394 7.4375 0.187486C7.50454 0.200236 7.57158 0.212986 7.64065 0.226122C8.59723 0.412631 9.52498 0.657037 10.4375 0.999987C10.4981 1.02266 10.4981 1.02266 10.56 1.04579C12.04 1.61125 13.4038 2.54962 14.5 3.68749C14.55 3.73736 14.6001 3.78723 14.6516 3.83861C15.6225 4.81244 16.4669 5.92202 16.5195 7.33983C16.5097 7.77114 16.4355 8.21661 16.2239 8.59667C15.9381 9.11463 16.019 9.54136 16.1049 10.1028C16.1961 10.7211 16.1996 11.3239 16.1805 11.9478C16.1642 12.7068 16.3673 13.1548 16.7812 13.7812C16.8203 13.8414 16.8593 13.9016 16.8995 13.9636C17.0158 14.1427 17.1329 14.3214 17.25 14.5C17.3675 14.6808 17.4845 14.8619 17.6016 15.043C17.6563 15.1277 17.7111 15.2124 17.7659 15.2971C17.7933 15.3397 17.8208 15.3822 17.8491 15.426C17.9119 15.5229 17.9748 15.6196 18.0378 15.7163C18.1416 15.8756 18.2447 16.0354 18.3477 16.1953C18.3797 16.2442 18.4118 16.2931 18.4449 16.3434C18.8266 16.9397 18.8883 17.5238 18.79 18.2222C18.6679 18.6858 18.3203 19.0709 17.9321 19.3406C17.6562 19.4872 17.3668 19.5598 17.0625 19.625C17.0725 19.7224 17.0725 19.7224 17.0828 19.8218C17.1336 20.3824 17.177 20.911 16.8352 21.3948C16.721 21.6195 16.7484 21.7671 16.7773 22.0156C16.847 22.7725 16.6433 23.2174 16.2104 23.8325C16.1025 24.044 16.0854 24.244 16.0664 24.4765C15.9633 25.432 15.5401 26.2642 14.7908 26.8845C13.8294 27.5542 12.8775 27.795 11.7061 27.605C11.5193 27.5665 11.3417 27.5187 11.1602 27.4609C10.9083 27.381 10.7038 27.334 10.4375 27.375C10.1646 27.5397 10.0853 27.6125 9.99194 27.9192C9.93612 28.1683 9.91214 28.4128 9.89843 28.668C9.89597 28.7126 9.89351 28.7573 9.89097 28.8033C9.86995 29.2355 9.87248 29.6678 9.88278 30.1003C9.89038 30.6374 9.8315 31.0876 9.48681 31.5129C9.11054 31.89 8.73493 32.0208 8.21239 32.0235C7.70315 32.0129 7.24824 31.8576 6.76953 31.6965C6.67226 31.6649 6.57495 31.6334 6.47761 31.6021C6.22358 31.5199 5.97012 31.436 5.71674 31.3518C5.46107 31.2672 5.20487 31.1841 4.94873 31.1009C4.52857 30.9642 4.10842 30.8274 3.68943 30.6872C3.47711 30.6162 3.26448 30.5474 3.0502 30.4825C3.00781 30.4693 2.96543 30.4562 2.92176 30.4426C2.80601 30.4067 2.68998 30.3717 2.57393 30.3367C2.31416 30.2235 2.12804 30.0686 2 29.8125C1.96741 29.5107 1.95412 29.2661 2.10937 29C2.36416 28.7735 2.56502 28.7233 2.89894 28.7316C3.2205 28.7677 3.5204 28.8758 3.82592 28.9785C3.89896 29.0023 3.972 29.0261 4.04725 29.0506C4.28046 29.1267 4.51328 29.2039 4.74609 29.2812C4.97428 29.3562 5.20254 29.431 5.43082 29.5057C5.58183 29.5551 5.73281 29.6047 5.88376 29.6543C6.64846 29.905 7.41737 30.1416 8.1875 30.375C8.27387 30.2022 8.25482 30.0652 8.25171 29.8721C8.25094 29.7946 8.25017 29.7172 8.24939 29.6374C8.24723 29.4758 8.2448 29.3142 8.24206 29.1526C8.23366 28.1903 8.29726 27.2036 8.93847 26.4377C9.41913 25.9523 9.95737 25.7338 10.6328 25.7226C11.07 25.7231 11.4406 25.8097 11.8579 25.9433C12.4273 26.101 12.9807 26.0275 13.5 25.75C14.0067 25.3918 14.3089 24.9884 14.4375 24.375C14.4463 24.2435 14.454 24.112 14.4609 23.9805C14.4958 23.4657 14.6305 23.0754 14.9531 22.6719C15.0754 22.5167 15.1229 22.4476 15.1641 22.25C15.1276 22.0751 15.082 21.977 14.9961 21.8242C14.865 21.5798 14.8492 21.4005 14.8948 21.1282C14.9631 20.9233 15.0812 20.8161 15.25 20.6875C15.3119 20.6669 15.3737 20.6462 15.4375 20.625C15.4503 20.2655 15.4116 19.973 15.3125 19.6289C15.0886 18.7899 15.0886 18.7899 15.2656 18.3828C15.4298 18.1835 15.5673 18.0817 15.8125 18C15.9075 17.9988 16.0027 18.0004 16.0977 18.0039C16.4274 18.0073 16.7466 17.9734 17.0625 17.875C17.1037 17.8337 17.145 17.7925 17.1875 17.75C17.1784 17.3928 17.0022 17.1395 16.8164 16.8476C16.7854 16.7979 16.7543 16.7482 16.7224 16.6969C16.5083 16.3559 16.2869 16.02 16.0621 15.686C15.8226 15.3296 15.588 14.9703 15.3555 14.6094C15.3188 14.5532 15.2821 14.497 15.2443 14.4391C14.8391 13.8071 14.5459 13.2405 14.563 12.4765C14.5642 12.4002 14.5653 12.3238 14.5665 12.2451C14.5678 12.1642 14.569 12.0833 14.5703 12C14.5775 11.3509 14.5509 10.7209 14.4417 10.0792C14.3148 9.32669 14.3704 8.71596 14.6953 8.02342C14.9024 7.56937 14.9209 7.15933 14.75 6.68749C14.4108 6.00263 13.8925 5.42931 13.375 4.87499C13.3282 4.82407 13.2814 4.77315 13.2332 4.72069C12.5372 3.99124 11.7031 3.46058 10.8125 2.99999C10.756 2.97053 10.756 2.97053 10.6984 2.94048C9.57708 2.36398 8.36116 2.03435 7.125 1.81249C7.06781 1.80216 7.01063 1.79184 6.95172 1.78121C6.12371 1.63909 5.30285 1.60864 4.46484 1.60936C4.39391 1.60942 4.39391 1.60942 4.32155 1.60947C3.75514 1.61118 3.19452 1.63195 2.6302 1.68161C2.30872 1.69141 2.12648 1.6096 1.88281 1.39842C1.77301 1.16662 1.73487 0.943716 1.75 0.687486C1.87601 0.435452 2.01355 0.274837 2.25 0.124986C2.96826 -0.067549 3.75511 -0.0223879 4.49218 -0.0195448Z" fill="#111417"/>
<path d="M28.5 11.375C28.7129 11.5092 28.8611 11.6321 28.9375 11.875C28.9683 12.2076 28.9204 12.4025 28.75 12.6875C28.5935 12.8323 28.5935 12.8323 28.4023 12.9727C28.3671 12.9989 28.3318 13.0251 28.2954 13.0521C28.1768 13.1398 28.0572 13.2262 27.9375 13.3125C27.8502 13.3759 27.7629 13.4393 27.6755 13.5027C27.4869 13.6393 27.2978 13.7755 27.1086 13.9114C26.661 14.2335 26.218 14.5619 25.7744 14.8896C25.5269 15.0725 25.2791 15.255 25.0312 15.4375C24.9323 15.5104 24.8333 15.5833 24.7344 15.6563C24.5365 15.8021 24.3385 15.9479 24.1406 16.0938C24.0916 16.1299 24.0426 16.166 23.9921 16.2032C23.8935 16.2759 23.7948 16.3486 23.6961 16.4212C23.4438 16.607 23.1917 16.7931 22.9399 16.9797C21.1318 18.3188 21.1318 18.3188 20.625 18.25C20.3714 18.1185 20.2308 18.0142 20.125 17.75C20.1062 17.6135 20.1062 17.6135 20.1055 17.4727C20.1044 17.4263 20.1034 17.38 20.1023 17.3323C20.1578 16.9784 20.3852 16.7988 20.6602 16.5938C20.6954 16.5673 20.7307 16.5408 20.7671 16.5135C21.1589 16.221 21.5568 15.9365 21.9539 15.6511C22.4015 15.329 22.8445 15.0006 23.2881 14.6729C23.5356 14.49 23.7834 14.3075 24.0312 14.125C24.1302 14.0521 24.2292 13.9792 24.3281 13.9063C24.526 13.7604 24.724 13.6146 24.9219 13.4688C24.9709 13.4326 25.0199 13.3965 25.0704 13.3593C25.169 13.2866 25.2677 13.214 25.3664 13.1413C25.6187 12.9555 25.8708 12.7694 26.1226 12.5828C27.9439 11.2338 27.9439 11.2338 28.5 11.375Z" fill="#111417"/>
<path d="M21.1875 24.5C21.4563 24.6526 21.694 24.8354 21.9362 25.0266C22.1147 25.1657 22.2978 25.2981 22.4808 25.4311C23.0174 25.822 23.5455 26.2239 24.0727 26.6274C24.4311 26.9013 24.7923 27.1709 25.1563 27.4375C25.6325 27.7863 26.1026 28.1423 26.5711 28.5014C26.9449 28.7872 27.3229 29.0666 27.7031 29.3438C28.7709 30.1252 28.7709 30.1252 28.875 30.4375C28.8996 30.7372 28.9052 30.8793 28.7656 31.1484C28.606 31.3347 28.4874 31.4152 28.2473 31.4629C27.9646 31.4753 27.7847 31.441 27.551 31.2774C27.4777 31.2262 27.4777 31.2262 27.403 31.174C27.1431 30.9846 26.8873 30.7903 26.6328 30.5938C26.2063 30.2664 25.7777 29.9425 25.3438 29.625C24.867 29.2759 24.3965 28.9192 23.9273 28.5601C23.5212 28.2499 23.1111 27.9458 22.6989 27.6439C22.2598 27.3215 21.8262 26.9921 21.3946 26.6598C21.0569 26.4004 21.0569 26.4004 20.7085 26.1558C20.1644 25.7897 20.1644 25.7897 20.0733 25.4382C20.0442 25.0981 20.1265 24.8858 20.3438 24.625C20.6151 24.4365 20.8718 24.4137 21.1875 24.5Z" fill="#111417"/>
<path d="M22.3743 20.5537C22.4372 20.5534 22.5 20.553 22.5647 20.5526C22.6332 20.5526 22.7018 20.5525 22.7724 20.5524C22.8449 20.5521 22.9174 20.5518 22.9921 20.5515C23.2321 20.5506 23.4721 20.5502 23.7121 20.5498C23.8368 20.5495 23.9614 20.5493 24.086 20.549C24.4332 20.5483 24.7804 20.5478 25.1276 20.5476C25.5759 20.5473 26.0243 20.5462 26.4726 20.5444C26.8197 20.543 27.1667 20.5424 27.5137 20.5423C27.7208 20.5423 27.9278 20.5418 28.1349 20.5408C28.366 20.5397 28.5972 20.5398 28.8283 20.5402C28.9306 20.5394 28.9306 20.5394 29.0349 20.5385C29.4817 20.5409 29.8046 20.5797 30.1523 20.8828C30.289 21.1344 30.2998 21.3447 30.25 21.625C30.1247 21.8627 30.0358 21.9761 29.8125 22.125C29.6013 22.1799 29.403 22.1955 29.1854 22.1963C29.1235 22.1966 29.0617 22.197 28.9979 22.1974C28.9308 22.1974 28.8636 22.1975 28.7945 22.1976C28.6875 22.198 28.6875 22.198 28.5785 22.1985C28.3428 22.1994 28.1072 22.1999 27.8716 22.2002C27.7077 22.2006 27.5439 22.2009 27.38 22.2013C27.0804 22.2019 26.7808 22.2022 26.4811 22.2024C26.0409 22.2027 25.6006 22.2038 25.1604 22.2056C24.7783 22.2071 24.3962 22.2076 24.0142 22.2077C23.852 22.2079 23.6897 22.2084 23.5275 22.2092C23.3006 22.2103 23.0736 22.2102 22.8467 22.2098C22.7464 22.2106 22.7464 22.2106 22.644 22.2115C22.2034 22.2091 21.9044 22.1541 21.5391 21.8945C21.3954 21.6902 21.3631 21.4945 21.375 21.25C21.4638 20.9648 21.5453 20.7708 21.8125 20.625C22.0029 20.5661 22.1755 20.5544 22.3743 20.5537Z" fill="#111417"/>
</g>
<defs>
<clipPath id="clip0_2322_66">
<rect width="32" height="32" fill="white"/>
</clipPath>
</defs>
</svg>
