<svg width="32" height="32" viewBox="0 0 32 32" fill="none" xmlns="http://www.w3.org/2000/svg">
<g clip-path="url(#clip0_2322_52)">
<path d="M15.978 13.9908C16.0499 13.9904 16.1219 13.9899 16.196 13.9894C16.2747 13.9893 16.3533 13.9891 16.4344 13.9889C16.5183 13.9885 16.6022 13.9881 16.6861 13.9877C16.9612 13.9864 17.2363 13.9857 17.5114 13.9851C17.6062 13.9849 17.701 13.9846 17.7958 13.9843C18.241 13.9831 18.6862 13.9823 19.1314 13.9817C19.6452 13.9811 20.159 13.9795 20.6727 13.977C21.07 13.9751 21.4673 13.9741 21.8646 13.9739C22.1019 13.9738 22.3391 13.9732 22.5763 13.9717C22.7994 13.9702 23.0225 13.9699 23.2456 13.9706C23.3664 13.9706 23.4872 13.9694 23.608 13.9682C23.6801 13.9686 23.7522 13.9691 23.8265 13.9695C23.9203 13.9693 23.9203 13.9693 24.016 13.9691C24.2351 14.0086 24.341 14.0973 24.5 14.25C24.5415 14.375 24.5415 14.375 24.539 14.5C24.5398 14.5412 24.5406 14.5825 24.5415 14.625C24.477 14.819 24.354 14.8872 24.1875 15C24.0185 15.031 24.0185 15.031 23.8325 15.0308C23.7617 15.0313 23.6909 15.0318 23.618 15.0323C23.5024 15.0312 23.5024 15.0312 23.3844 15.0302C23.2591 15.0305 23.1338 15.0309 23.0084 15.0313C22.874 15.0314 22.7396 15.031 22.6052 15.0304C22.3247 15.0291 22.0441 15.0297 21.7636 15.0306C21.1173 15.0324 20.471 15.0318 19.8247 15.0311C19.2326 15.0305 18.6405 15.0304 18.0484 15.0323C17.7698 15.0332 17.4912 15.0328 17.2125 15.0315C17.0808 15.0311 16.949 15.0312 16.8173 15.0316C16.657 15.0321 16.4967 15.0317 16.3364 15.0302C15.9213 15.0332 15.639 15.0443 15.3125 15.3125C15.0639 15.6648 15.0265 15.9255 15.0311 16.3506C15.0308 16.4099 15.0305 16.4692 15.0301 16.5303C15.0292 16.7285 15.0302 16.9266 15.0311 17.1248C15.0309 17.2671 15.0305 17.4094 15.0301 17.5517C15.0292 17.9378 15.0299 18.3239 15.0309 18.71C15.0318 19.114 15.0314 19.5181 15.0312 19.9221C15.031 20.6006 15.0319 21.279 15.0333 21.9575C15.0348 22.6552 15.0352 23.3529 15.0346 24.0507C15.0338 24.8921 15.034 25.7334 15.0349 26.5748C15.0353 26.896 15.0353 27.2172 15.035 27.5384C15.0347 27.9165 15.0353 28.2946 15.0367 28.6728C15.037 28.8116 15.0371 28.9504 15.0368 29.0892C15.0364 29.2786 15.0372 29.468 15.0382 29.6574C15.0379 29.7124 15.0375 29.7674 15.0371 29.8241C15.0411 30.211 15.1074 30.4824 15.3906 30.7656C15.7699 31.007 16.147 31.0182 16.5835 31.0159C16.6697 31.0162 16.6697 31.0162 16.7577 31.0165C16.9497 31.017 17.1416 31.0166 17.3336 31.0162C17.4715 31.0163 17.6094 31.0166 17.7473 31.0168C18.1214 31.0174 18.4955 31.0172 18.8696 31.0168C19.2611 31.0165 19.6527 31.0168 20.0443 31.017C20.744 31.0172 21.4437 31.0168 22.1434 31.0162C22.7774 31.0156 23.4114 31.0157 24.0454 31.0163C24.7822 31.017 25.519 31.0172 26.2558 31.0168C26.6456 31.0167 27.0355 31.0166 27.4253 31.017C27.7918 31.0174 28.1582 31.0171 28.5247 31.0164C28.6592 31.0163 28.7936 31.0163 28.9281 31.0166C29.1117 31.0169 29.2953 31.0165 29.4789 31.0159C29.5321 31.0162 29.5852 31.0164 29.64 31.0167C30.0347 31.0141 30.3664 30.9908 30.6758 30.7227C31.0216 30.3175 31.0093 29.9352 31.0087 29.4272C31.0089 29.3701 31.0091 29.313 31.0093 29.2542C31.0099 29.0632 31.0099 28.8722 31.01 28.6812C31.0103 28.5441 31.0106 28.4071 31.011 28.27C31.0118 27.8978 31.0122 27.5257 31.0125 27.1535C31.0127 26.9209 31.0129 26.6883 31.0132 26.4558C31.0141 25.7279 31.0147 25.0001 31.0149 24.2722C31.0149 24.1885 31.015 24.1048 31.015 24.0212C31.015 23.9797 31.015 23.9381 31.015 23.8954C31.0153 23.2229 31.0164 22.5503 31.0178 21.8778C31.0193 21.1866 31.0201 20.4954 31.0202 19.8041C31.0202 19.4163 31.0206 19.0285 31.0217 18.6408C31.0227 18.276 31.0229 17.9112 31.0223 17.5464C31.0223 17.4127 31.0225 17.279 31.0232 17.1453C31.024 16.9624 31.0236 16.7795 31.0229 16.5966C31.0234 16.544 31.0239 16.4915 31.0245 16.4373C31.0213 16.0583 30.9821 15.6328 30.7239 15.3356C30.4301 15.0815 30.2019 15.0547 29.8253 15.0536C29.7824 15.0534 29.7395 15.0532 29.6953 15.053C29.6022 15.0525 29.5091 15.0522 29.416 15.052C29.2686 15.0515 29.1212 15.0505 28.9739 15.0494C28.5549 15.0461 28.1359 15.0431 27.7169 15.0421C27.4606 15.0415 27.2043 15.0397 26.9479 15.037C26.8503 15.0363 26.7526 15.036 26.655 15.0361C26.5184 15.0362 26.3818 15.0349 26.2452 15.0331C26.1287 15.0326 26.1287 15.0326 26.0097 15.032C25.7761 14.9941 25.7035 14.9366 25.5625 14.75C25.489 14.5197 25.479 14.4198 25.582 14.1992C25.6875 14.0625 25.6875 14.0625 25.8125 14C25.9537 13.9933 26.0952 13.9907 26.2366 13.9899C26.302 13.9895 26.302 13.9895 26.3687 13.989C26.5135 13.9881 26.6582 13.9876 26.8029 13.9873C26.9037 13.9869 27.0045 13.9866 27.1052 13.9862C27.3169 13.9856 27.5286 13.9852 27.7403 13.985C28.0104 13.9846 28.2805 13.9831 28.5506 13.9814C28.759 13.9802 28.9675 13.9799 29.1759 13.9798C29.2754 13.9796 29.3749 13.9791 29.4744 13.9783C30.2253 13.9725 30.8676 14.0063 31.4399 14.561C31.8988 15.0466 32.0284 15.4727 32.025 16.1269C32.0255 16.1883 32.0259 16.2497 32.0263 16.313C32.0275 16.5179 32.0274 16.7227 32.0272 16.9276C32.0278 17.0748 32.0284 17.2221 32.0291 17.3693C32.0308 17.7687 32.0312 18.1681 32.0313 18.5676C32.0315 18.8173 32.0319 19.067 32.0324 19.3167C32.034 20.1435 32.0349 20.9703 32.0347 21.797C32.0347 21.8415 32.0347 21.8861 32.0347 21.9319C32.0347 21.9765 32.0347 22.021 32.0347 22.067C32.0346 22.7889 32.0364 23.5108 32.0391 24.2326C32.0417 24.9751 32.043 25.7175 32.0429 26.46C32.0428 26.8763 32.0434 27.2926 32.0454 27.709C32.0472 28.1007 32.0472 28.4924 32.0458 28.8841C32.0456 29.0275 32.0461 29.171 32.0472 29.3144C32.0584 30.8333 32.0584 30.8333 31.5003 31.4504C31.1112 31.8345 30.6418 32.0268 30.0983 32.0334C30.0417 32.0329 29.9851 32.0323 29.9268 32.0317C29.8652 32.0321 29.8036 32.0325 29.7401 32.0329C29.535 32.0339 29.33 32.0331 29.1248 32.0323C28.9773 32.0327 28.8297 32.0331 28.6821 32.0337C28.2822 32.0348 27.8823 32.0344 27.4824 32.0336C27.2324 32.0331 26.9825 32.0332 26.7325 32.0335C26.6909 32.0335 26.6494 32.0335 26.6066 32.0336C26.5221 32.0336 26.4377 32.0337 26.3532 32.0338C25.5623 32.0345 24.7714 32.0337 23.9804 32.0324C23.3026 32.0312 22.6248 32.0314 21.9469 32.0326C21.1587 32.0339 20.3705 32.0345 19.5823 32.0337C19.4982 32.0336 19.4141 32.0335 19.3299 32.0335C19.2885 32.0334 19.2471 32.0334 19.2045 32.0333C18.9136 32.0331 18.6227 32.0335 18.3318 32.0341C17.9398 32.0348 17.5479 32.0343 17.156 32.0329C17.0123 32.0325 16.8686 32.0326 16.7249 32.0332C16.5285 32.0338 16.3321 32.033 16.1357 32.0317C16.0508 32.0326 16.0508 32.0326 15.9642 32.0334C15.3953 32.0265 14.9627 31.8175 14.5493 31.4329C14.1085 30.9584 13.9811 30.4684 13.9833 29.8347C13.983 29.7744 13.9827 29.714 13.9824 29.6519C13.9816 29.45 13.9817 29.248 13.9818 29.0461C13.9814 28.9012 13.981 28.7563 13.9805 28.6115C13.9794 28.218 13.9791 27.8245 13.9791 27.431C13.979 27.1851 13.9787 26.9392 13.9784 26.6932C13.9773 25.8793 13.9767 25.0653 13.9768 24.2513C13.9768 24.2074 13.9768 24.1636 13.9768 24.1184C13.9768 24.0745 13.9768 24.0306 13.9768 23.9853C13.9769 23.2743 13.9757 22.5633 13.9739 21.8522C13.9721 21.1213 13.9713 20.3904 13.9714 19.6595C13.9714 19.2495 13.971 18.8395 13.9697 18.4294C13.9685 18.0436 13.9685 17.6578 13.9694 17.272C13.9695 17.1307 13.9692 16.9893 13.9685 16.848C13.9601 15.1725 13.9601 15.1725 14.6069 14.4966C15.0094 14.1546 15.4556 13.993 15.978 13.9908Z" fill="#111417"/>
<path d="M2.07317 -0.0317379C2.13476 -0.0321279 2.19636 -0.0325179 2.25982 -0.0329198C2.46493 -0.033912 2.66999 -0.0331289 2.87511 -0.0323407C3.02267 -0.0326796 3.17024 -0.0331249 3.31781 -0.0336682C3.71773 -0.0348062 4.11763 -0.0343667 4.51755 -0.0335734C4.76751 -0.0331283 5.01748 -0.033213 5.26744 -0.033446C5.30901 -0.0334843 5.35057 -0.0335226 5.3934 -0.0335621C5.47785 -0.033642 5.5623 -0.033723 5.64676 -0.0338052C6.43768 -0.0345172 7.22859 -0.0336999 8.01951 -0.0323551C8.69736 -0.0312383 9.3752 -0.0314323 10.0531 -0.0325848C10.8412 -0.0339243 11.6294 -0.0344485 12.4176 -0.0336817C12.5018 -0.0336021 12.5859 -0.0335235 12.67 -0.033446C12.7114 -0.0334074 12.7528 -0.0333688 12.7954 -0.0333291C13.0864 -0.0331137 13.3773 -0.0334888 13.6682 -0.0340659C14.0601 -0.034789 14.452 -0.0342853 14.844 -0.0328423C14.9877 -0.0325122 15.1313 -0.0326058 15.275 -0.033158C15.4715 -0.0338432 15.6679 -0.0329818 15.8643 -0.0317379C15.9209 -0.0322956 15.9775 -0.0328533 16.0358 -0.0334279C16.6046 -0.0264625 17.0372 0.182524 17.4507 0.567147C17.8471 0.993848 18.015 1.44569 18.0171 2.02785C18.0174 2.07338 18.0178 2.11891 18.0181 2.16582C18.019 2.31767 18.0191 2.46951 18.0191 2.62136C18.0196 2.73051 18.0201 2.83967 18.0207 2.94882C18.0221 3.24478 18.0226 3.54074 18.0229 3.8367C18.0232 4.02162 18.0236 4.20653 18.024 4.39144C18.0255 5.03654 18.0264 5.68164 18.0266 6.32674C18.0268 6.92816 18.0287 7.52956 18.0313 8.13098C18.0335 8.64744 18.0344 9.1639 18.0345 9.68036C18.0345 9.98879 18.0351 10.2972 18.0368 10.6056C18.0385 10.8955 18.0386 11.1854 18.0376 11.4753C18.0375 11.5817 18.0379 11.6881 18.0389 11.7945C18.0402 11.9397 18.0395 12.0849 18.0384 12.2301C18.0385 12.3114 18.0387 12.3926 18.0388 12.4764C17.9899 12.7425 17.8976 12.8349 17.6875 13C17.5 13.0391 17.5 13.0391 17.3125 13C17.1042 12.8358 17.0104 12.7432 16.9611 12.4793C16.9611 12.3994 16.9612 12.3195 16.9613 12.2372C16.9607 12.1702 16.9607 12.1702 16.9601 12.1019C16.9592 11.9525 16.9605 11.8033 16.9617 11.654C16.9615 11.5468 16.9612 11.4396 16.9607 11.3324C16.9599 11.1017 16.9601 10.871 16.9611 10.6403C16.9626 10.2755 16.9619 9.91077 16.9609 9.54597C16.9593 8.90321 16.9597 8.26046 16.9605 7.6177C16.9616 6.65017 16.9613 5.68265 16.9592 4.71513C16.9585 4.35254 16.9588 3.98997 16.9599 3.62738C16.9604 3.40174 16.9601 3.17611 16.9596 2.95047C16.9596 2.84591 16.9598 2.74135 16.9605 2.6368C16.9613 2.49393 16.9609 2.3511 16.9603 2.20823C16.9604 2.12832 16.9605 2.04842 16.9607 1.96609C16.9276 1.65788 16.8278 1.4528 16.6094 1.23438C16.2304 0.993236 15.8534 0.981773 15.4173 0.983714C15.3599 0.983475 15.3025 0.983236 15.2433 0.98299C15.0517 0.982347 14.86 0.982593 14.6683 0.982842C14.5307 0.98257 14.393 0.982246 14.2553 0.981874C13.8817 0.981037 13.5081 0.981001 13.1345 0.981159C12.8225 0.981226 12.5105 0.980921 12.1984 0.980621C11.4201 0.979888 10.6418 0.979942 9.86349 0.980344C9.18834 0.980667 8.5132 0.979963 7.83806 0.978775C7.144 0.977563 6.44995 0.977066 5.75589 0.977283C5.36656 0.977396 4.97723 0.977232 4.5879 0.976363C4.22172 0.975577 3.85555 0.975699 3.48937 0.976514C3.35516 0.976661 3.22095 0.976491 3.08674 0.975975C2.90316 0.97532 2.71963 0.975827 2.53605 0.976619C2.48327 0.976158 2.43049 0.975697 2.37611 0.975222C1.95789 0.979002 1.54232 1.03733 1.22264 1.32423C0.999399 1.72606 0.981677 2.1392 0.98369 2.58784C0.983451 2.64504 0.983212 2.70224 0.982966 2.76118C0.982324 2.95179 0.982569 3.14239 0.982818 3.333C0.982546 3.47009 0.982222 3.60718 0.98185 3.74427C0.981014 4.11591 0.980977 4.48755 0.981135 4.85919C0.981202 5.16967 0.980896 5.48015 0.980597 5.79064C0.979864 6.56504 0.979918 7.33944 0.980319 8.11384C0.980642 8.78555 0.979939 9.45725 0.978751 10.129C0.977538 10.8196 0.977042 11.5103 0.977258 12.201C0.977372 12.5883 0.977207 12.9757 0.976339 13.3631C0.975552 13.7274 0.975674 14.0916 0.976489 14.4559C0.976637 14.5894 0.976467 14.7229 0.97595 14.8564C0.975295 15.039 0.975803 15.2216 0.976595 15.4042C0.976134 15.4567 0.975673 15.5092 0.975198 15.5633C0.978639 15.942 1.01806 16.3675 1.27602 16.6644C1.5737 16.9218 1.8042 16.9453 2.18566 16.9453C2.23026 16.9454 2.27487 16.9455 2.32082 16.9456C2.47066 16.9458 2.6205 16.9456 2.77034 16.9454C2.87762 16.9455 2.98489 16.9456 3.09217 16.9457C3.32339 16.946 3.55462 16.9461 3.78584 16.9461C4.15139 16.9462 4.51695 16.947 4.8825 16.948C4.975 16.9482 4.975 16.9482 5.06936 16.9485C5.19546 16.9488 5.32157 16.9491 5.44767 16.9495C6.29885 16.9517 7.15002 16.9533 8.0012 16.9532C8.5752 16.9531 9.14917 16.9541 9.72316 16.9563C10.027 16.9575 10.3308 16.9581 10.6346 16.9573C10.9203 16.9566 11.2061 16.9573 11.4918 16.9592C11.5967 16.9596 11.7016 16.9595 11.8065 16.9588C11.9497 16.9579 12.0927 16.9589 12.2359 16.9605C12.3161 16.9606 12.3962 16.9607 12.4787 16.9608C12.7429 17.0104 12.8356 17.104 13 17.3125C13.039 17.5 13.039 17.5 13 17.6875C12.8353 17.8967 12.7428 17.9897 12.4778 18.039C12.3973 18.0389 12.3167 18.0389 12.2337 18.0388C12.1887 18.0392 12.1436 18.0396 12.0972 18.0401C11.9466 18.041 11.7961 18.0397 11.6454 18.0385C11.5373 18.0387 11.4292 18.039 11.3211 18.0395C11.0275 18.0404 10.734 18.0393 10.4405 18.0379C10.133 18.0366 9.82558 18.037 9.51813 18.0371C9.00155 18.0371 8.48498 18.0359 7.9684 18.0339C7.37192 18.0316 6.77547 18.031 6.17899 18.0315C5.60464 18.0319 5.0303 18.0312 4.45595 18.03C4.21184 18.0295 3.96774 18.0293 3.72364 18.0294C3.43573 18.0294 3.14785 18.0285 2.85996 18.0269C2.75457 18.0265 2.64918 18.0264 2.5438 18.0266C1.78758 18.0278 1.13657 17.9978 0.560042 17.439C0.101185 16.9534 -0.0284413 16.5273 -0.0250873 15.8731C-0.0255121 15.8117 -0.0259369 15.7503 -0.0263745 15.687C-0.0275572 15.4822 -0.0274082 15.2773 -0.0272531 15.0725C-0.0278144 14.9252 -0.0284524 14.7779 -0.0291614 14.6307C-0.0308161 14.2313 -0.0312571 13.8319 -0.0313768 13.4325C-0.0315102 13.1827 -0.0318986 12.933 -0.0324075 12.6833C-0.0340576 11.8565 -0.0349238 11.0297 -0.0347831 10.203C-0.0347756 10.1585 -0.0347681 10.114 -0.0347604 10.0681C-0.0347528 10.0235 -0.0347452 9.97896 -0.0347373 9.93304C-0.0346611 9.21114 -0.0364547 8.48926 -0.0390989 7.76736C-0.0417968 7.02492 -0.0430868 6.28249 -0.0429251 5.54005C-0.042863 5.1237 -0.0434077 4.70738 -0.0453958 4.29104C-0.0472154 3.8993 -0.0472231 3.5076 -0.0458617 3.11586C-0.0456661 2.97246 -0.0461053 2.82905 -0.0472416 2.68565C-0.0584941 1.1667 -0.058494 1.1667 0.499684 0.549656C0.946958 0.108026 1.45876 -0.0377934 2.07317 -0.0317379Z" fill="#111417"/>
<path d="M9.13083 3.97314C9.24997 4 9.24997 4 9.40622 4.11328C9.50655 4.32647 9.50993 4.43701 9.50583 4.6687C9.50456 4.76172 9.50456 4.76172 9.50327 4.85661C9.50218 4.90393 9.50109 4.95125 9.49997 5C9.57901 4.99896 9.57901 4.99896 9.65964 4.9979C10.1562 4.99163 10.6528 4.98688 11.1494 4.98381C11.4047 4.98218 11.66 4.97996 11.9153 4.97642C12.1617 4.97303 12.4081 4.97116 12.6545 4.97035C12.7485 4.96977 12.8425 4.96864 12.9365 4.96696C13.0682 4.96469 13.1997 4.96438 13.3315 4.96452C13.4064 4.96383 13.4813 4.96313 13.5586 4.96242C13.75 5 13.75 5 13.9014 5.14431C14 5.3125 14 5.3125 13.9961 5.53906C13.9401 5.74052 13.9155 5.8183 13.75 5.9375C13.5999 6.01252 13.5066 6.00716 13.3393 6.0061C13.2833 6.0059 13.2273 6.0057 13.1697 6.00549C13.0818 6.00471 13.0818 6.00471 12.9922 6.0039C12.9331 6.00362 12.8741 6.00334 12.8132 6.00305C12.6671 6.00231 12.5211 6.00128 12.375 6C12.3611 6.05985 12.3611 6.05985 12.347 6.12091C11.9564 7.75793 11.0709 9.32281 10.0029 10.6119C9.84542 10.8073 9.81247 10.8624 9.81247 11.125C10.3313 11.8528 11.2739 12.3795 12.0049 12.8823C12.0613 12.9212 12.1176 12.96 12.1758 13C12.2251 13.0335 12.2745 13.067 12.3254 13.1016C12.4824 13.2219 12.4972 13.2918 12.5234 13.4883C12.5 13.6875 12.5 13.6875 12.3672 13.8672C12.1492 14.0283 12.0782 14.032 11.8125 14C11.6475 13.919 11.504 13.8383 11.3515 13.7383C11.2868 13.6968 11.2868 13.6968 11.2208 13.6544C10.5355 13.2047 9.90925 12.6681 9.31345 12.1067C9.19271 12.0044 9.08176 11.9384 8.93747 11.875C8.90178 11.9076 8.86609 11.9403 8.82932 11.9739C8.6892 12.1011 8.54845 12.2275 8.40708 12.3533C8.31514 12.4351 8.22347 12.5172 8.13181 12.5994C7.73515 12.9486 7.31885 13.2661 6.88669 13.5703C6.83743 13.6059 6.78817 13.6414 6.73741 13.678C6.42357 13.8942 6.19638 13.9954 5.81247 14C5.62497 13.9102 5.62497 13.9102 5.49997 13.75C5.44137 13.4472 5.44137 13.4472 5.49997 13.25C5.68887 12.9955 5.98064 12.8472 6.24607 12.6836C6.96005 12.2394 7.61526 11.6776 8.18747 11.0625C8.09732 10.795 7.96307 10.6123 7.78513 10.3945C7.15874 9.60354 6.6831 8.72045 6.24997 7.8125C6.22935 7.77125 6.20872 7.73 6.18747 7.6875C6.16549 7.45007 6.15453 7.30352 6.28122 7.09765C6.46883 6.9804 6.59548 6.9679 6.81247 6.96069C7.05382 7.03658 7.14996 7.24388 7.26636 7.4568C7.35742 7.63325 7.44635 7.81067 7.53513 7.98828C7.94373 8.78858 8.40579 9.51311 8.99997 10.1875C9.93417 9.05489 10.642 7.75568 11.165 6.38609C11.1928 6.31359 11.2205 6.24109 11.2491 6.16639C11.27 6.11148 11.2909 6.05657 11.3125 6C11.2593 6.00026 11.2593 6.00026 11.205 6.00052C10.3417 6.00466 9.47837 6.00775 8.61505 6.00971C8.19755 6.01069 7.78006 6.01202 7.36257 6.01414C6.95976 6.01618 6.55695 6.0173 6.15413 6.01779C6.00036 6.01813 5.84658 6.01881 5.69281 6.01982C5.47763 6.02118 5.26248 6.02137 5.04729 6.02128C4.98354 6.02196 4.9198 6.02263 4.85412 6.02333C4.50697 6.02181 4.25845 6.00847 3.99997 5.75C3.96296 5.29841 3.96296 5.29841 4.10048 5.11855C4.29912 4.96102 4.4167 4.96975 4.66849 4.97162C4.70998 4.97158 4.75147 4.97154 4.79422 4.97151C4.93087 4.97168 5.06744 4.97362 5.20407 4.97558C5.299 4.97605 5.39393 4.97641 5.48886 4.97666C5.73835 4.97761 5.9878 4.98006 6.23728 4.98283C6.49199 4.98539 6.74671 4.98653 7.00144 4.98779C7.50097 4.99047 8.00046 4.99474 8.49997 5C8.49707 4.94876 8.49417 4.89752 8.49118 4.84472C8.48893 4.77737 8.48667 4.71002 8.48435 4.64062C8.48145 4.57391 8.47855 4.50721 8.47556 4.43847C8.52578 4.05074 8.7777 3.95074 9.13083 3.97314Z" fill="#111417"/>
<path d="M23.25 18C23.6239 18.1861 23.7211 18.4006 23.8545 18.7737C23.8853 18.8551 23.8853 18.8551 23.9168 18.9382C23.9625 19.0593 24.0076 19.1806 24.0522 19.3021C24.1286 19.5098 24.2068 19.7168 24.2853 19.9238C24.4515 20.3628 24.6159 20.8025 24.7801 21.2424C24.9118 21.5952 25.0439 21.9479 25.1759 22.3007C25.2263 22.4354 25.2767 22.57 25.3271 22.7047C25.6604 23.5954 25.996 24.4853 26.332 25.375C26.3585 25.4451 26.385 25.5152 26.4123 25.5875C26.5569 25.9702 26.5569 25.9702 26.7015 26.353C26.7411 26.4578 26.7807 26.5627 26.8201 26.6676C26.8564 26.7634 26.8932 26.859 26.9305 26.9545C27.0391 27.2347 27.1032 27.4477 27.0625 27.75C26.9688 27.9023 26.9688 27.9023 26.8125 28C26.6372 28.0381 26.4845 28.0541 26.3125 28C25.8289 27.3955 25.6496 26.5989 25.375 25.875C23.8075 25.8544 22.24 25.8338 20.625 25.8125C20.5631 26.0188 20.5013 26.225 20.4375 26.4375C20.3604 26.666 20.2763 26.8915 20.1914 27.1172C20.16 27.2037 20.16 27.2037 20.1281 27.292C19.9244 27.8336 19.9244 27.8336 19.6875 28C19.5146 28.049 19.3622 28.0404 19.1875 28C19.0273 27.875 19.0273 27.875 18.9375 27.6875C18.9605 27.34 19.0342 27.0585 19.1628 26.7329C19.1798 26.6894 19.1968 26.646 19.2142 26.6012C19.2515 26.5059 19.289 26.4107 19.3267 26.3156C19.4336 26.0459 19.5385 25.7754 19.6438 25.5051C19.6669 25.446 19.69 25.3869 19.7138 25.3261C19.9908 24.616 20.2596 23.903 20.529 23.19C20.7046 22.7258 20.881 22.2619 21.0573 21.798C21.2223 21.3634 21.3866 20.9285 21.5501 20.4933C21.6469 20.2362 21.7444 19.9794 21.8421 19.7227C21.887 19.6041 21.9317 19.4853 21.976 19.3665C22.0367 19.2039 22.0984 19.0417 22.1604 18.8796C22.1863 18.8091 22.1863 18.8091 22.2127 18.7371C22.4116 18.2243 22.6811 17.9526 23.25 18ZM23 19.5625C22.9868 19.5974 22.9736 19.6322 22.96 19.6681C22.8184 20.0414 22.6768 20.4146 22.5352 20.7878C22.4806 20.9315 22.4261 21.0751 22.3716 21.2188C21.835 22.633 21.835 22.633 21.5667 23.3198C21.5488 23.3656 21.5309 23.4113 21.5125 23.4585C21.4318 23.6652 21.3507 23.8717 21.269 24.078C21.2273 24.1843 21.2273 24.1843 21.1848 24.2927C21.161 24.353 21.1371 24.4133 21.1125 24.4755C21.0526 24.6284 21.0526 24.6284 21.0625 24.8125C22.3619 24.8125 23.6613 24.8125 25 24.8125C24.8474 24.3002 24.8474 24.3002 24.6709 23.7997C24.6315 23.6957 24.6315 23.6957 24.5912 23.5897C24.5633 23.5167 24.5354 23.4438 24.5066 23.3687C24.4769 23.2907 24.4472 23.2127 24.4176 23.1347C24.34 22.9306 24.2621 22.7265 24.1841 22.5225C24.1059 22.3178 24.028 22.1131 23.9501 21.9085C23.86 21.6719 23.7699 21.4354 23.6798 21.1989C23.4721 20.6541 23.266 20.1088 23.0625 19.5625C23.0419 19.5625 23.0212 19.5625 23 19.5625Z" fill="#111417"/>
<path d="M6.03909 19.0039C6.24055 19.0599 6.31833 19.0844 6.43753 19.25C6.51905 19.413 6.50826 19.5332 6.50889 19.7158C6.50933 19.7872 6.50977 19.8586 6.51022 19.9321C6.51049 20.0098 6.51075 20.0875 6.51101 20.1675C6.51209 20.2896 6.51317 20.4117 6.51434 20.5338C6.51718 20.835 6.51954 21.1361 6.5204 21.4373C6.52091 21.6059 6.52208 21.7745 6.52396 21.9431C6.5257 22.1016 6.52652 22.26 6.52628 22.4185C6.53691 23.1753 6.73266 23.7714 7.18753 24.375C7.22362 24.4291 7.25971 24.4833 7.2969 24.5391C7.76215 25.0301 8.45097 25.4203 9.13803 25.4446C9.25389 25.4441 9.25389 25.4441 9.3721 25.4436C9.43399 25.4435 9.43399 25.4435 9.49714 25.4433C9.62831 25.443 9.75948 25.4422 9.89065 25.4414C9.97984 25.4411 10.069 25.4408 10.1582 25.4405C10.3763 25.4399 10.5944 25.4388 10.8125 25.4375C10.7643 25.3983 10.7162 25.3592 10.6665 25.3188C10.5725 25.2422 10.5725 25.2422 10.4766 25.1641C10.4142 25.1133 10.3519 25.0625 10.2876 25.0102C10.0021 24.7728 10.0021 24.7728 9.9805 24.5391C10 24.3125 10 24.3125 10.0664 24.1641C10.2577 24.0036 10.3755 23.9919 10.625 24C11.0669 24.2329 11.4615 24.5783 11.8555 24.8828C12.2805 25.2148 12.2805 25.2148 12.7222 25.5237C12.8885 25.6339 12.9505 25.6825 13 25.875C13.0078 26.082 13.0078 26.082 12.9375 26.3125C12.6215 26.6528 12.2184 26.9199 11.8438 27.1914C11.7429 27.265 11.6419 27.3387 11.541 27.4123C11.4924 27.4476 11.4437 27.4829 11.3935 27.5192C11.2983 27.5894 11.204 27.6611 11.1109 27.7342C11.0676 27.7682 11.0242 27.8021 10.9795 27.8371C10.9226 27.8828 10.9226 27.8828 10.8645 27.9294C10.6504 28.0615 10.4952 28.0408 10.25 28C10.0938 27.9023 10.0938 27.9023 10 27.75C9.96487 27.5351 9.96487 27.5351 10 27.3125C10.17 27.0931 10.3877 26.9407 10.6057 26.7715C10.6562 26.7323 10.7067 26.6931 10.7587 26.6527C10.7971 26.6229 10.8355 26.5932 10.875 26.5625C10.8171 26.5619 10.7592 26.5613 10.6996 26.5607C10.4803 26.5579 10.2611 26.5541 10.0419 26.5495C9.94785 26.5478 9.85379 26.5464 9.75973 26.5456C8.51586 26.5331 7.47726 26.1947 6.56253 25.3125C5.76791 24.4093 5.47091 23.455 5.47073 22.2678C5.47029 22.1811 5.4698 22.0944 5.46929 22.0077C5.46845 21.8275 5.46835 21.6473 5.46872 21.4671C5.46909 21.2364 5.46716 21.0057 5.46465 20.7751C5.46303 20.5967 5.46285 20.4183 5.46308 20.2399C5.46297 20.1548 5.46237 20.0697 5.46126 19.9846C5.45987 19.8661 5.46067 19.7475 5.46158 19.6289C5.46145 19.5616 5.46132 19.4943 5.46119 19.4249C5.50003 19.25 5.50003 19.25 5.64452 19.1011C5.81253 19 5.81253 19 6.03909 19.0039Z" fill="#111417"/>
<path d="M21.75 3.99999C21.9062 4.09764 21.9062 4.09764 22 4.24999C22.0352 4.46483 22.0352 4.46483 22 4.68749C21.83 4.90686 21.6123 5.05929 21.3943 5.2285C21.3438 5.2677 21.2933 5.30689 21.2413 5.34728C21.2029 5.37705 21.1645 5.40681 21.125 5.43749C21.1829 5.43807 21.2408 5.43865 21.3004 5.43926C21.5197 5.44204 21.7389 5.44591 21.9581 5.45046C22.0522 5.4522 22.1462 5.45353 22.2403 5.45442C23.4842 5.46688 24.5228 5.80523 25.4375 6.68749C26.2321 7.59068 26.5291 8.54495 26.5293 9.73216C26.5297 9.81886 26.5302 9.90556 26.5307 9.99226C26.5316 10.1725 26.5317 10.3527 26.5313 10.5329C26.5309 10.7636 26.5329 10.9942 26.5354 11.2249C26.537 11.4033 26.5372 11.5817 26.537 11.7601C26.5371 11.8452 26.5377 11.9303 26.5388 12.0154C26.5402 12.1339 26.5394 12.2525 26.5385 12.3711C26.5386 12.4384 26.5387 12.5057 26.5388 12.5751C26.5 12.75 26.5 12.75 26.3555 12.8989C26.1875 13 26.1875 13 25.9609 12.9961C25.7595 12.9401 25.6817 12.9155 25.5625 12.75C25.481 12.5869 25.4918 12.4668 25.4911 12.2842C25.4905 12.1771 25.4905 12.1771 25.4898 12.0678C25.4895 11.9902 25.4893 11.9125 25.489 11.8325C25.4879 11.7104 25.4869 11.5883 25.4857 11.4661C25.4828 11.165 25.4805 10.8638 25.4796 10.5627C25.4791 10.3941 25.4779 10.2255 25.4761 10.0569C25.4743 9.89842 25.4735 9.73994 25.4738 9.58147C25.4631 8.82472 25.2674 8.22856 24.8125 7.62499C24.7764 7.57085 24.7403 7.51671 24.7031 7.46092C24.2379 6.96983 23.5491 6.5797 22.862 6.55539C22.7461 6.55588 22.7461 6.55588 22.6279 6.55638C22.5867 6.55647 22.5454 6.55656 22.5029 6.55665C22.3717 6.557 22.2405 6.55778 22.1094 6.55858C22.0202 6.55889 21.931 6.55918 21.8418 6.55943C21.6237 6.56012 21.4056 6.5612 21.1875 6.56249C21.2357 6.60164 21.2839 6.6408 21.3335 6.68114C21.3962 6.73222 21.4589 6.7833 21.5234 6.83592C21.5858 6.88668 21.6482 6.93744 21.7124 6.98973C21.9979 7.22721 21.9979 7.22721 22.0195 7.46092C22 7.68749 22 7.68749 21.9336 7.83592C21.7423 7.99635 21.6245 8.00803 21.375 7.99999C20.9331 7.76707 20.5385 7.42164 20.1445 7.11717C19.7195 6.78522 19.7195 6.78522 19.2778 6.4763C19.1116 6.36608 19.0495 6.31749 19 6.12499C18.9922 5.91795 18.9922 5.91796 19.0625 5.68749C19.3785 5.34718 19.7817 5.08005 20.1562 4.80858C20.2572 4.73495 20.3581 4.6613 20.459 4.58763C20.532 4.53473 20.532 4.53473 20.6065 4.48076C20.7018 4.41053 20.796 4.33887 20.8891 4.26579C20.9325 4.23182 20.9758 4.19784 21.0205 4.16283C21.0585 4.13239 21.0964 4.10195 21.1356 4.07059C21.3497 3.9385 21.5049 3.95913 21.75 3.99999Z" fill="#111417"/>
</g>
<defs>
<clipPath id="clip0_2322_52">
<rect width="32" height="32" fill="white"/>
</clipPath>
</defs>
</svg>
