<svg width="100" height="57" viewBox="0 0 100 57" fill="none" xmlns="http://www.w3.org/2000/svg">
<path d="M2.71341 56.0328L6.23341 48.3328H7.03641L10.5564 56.0328H9.69841L6.46441 48.8058H6.79441L3.56041 56.0328H2.71341ZM4.09941 53.9758L4.34141 53.3158H8.81841L9.06041 53.9758H4.09941ZM15.0668 56.0988C14.4874 56.0988 13.9521 56.0035 13.4608 55.8128C12.9694 55.6148 12.5441 55.3398 12.1848 54.9878C11.8254 54.6358 11.5431 54.2215 11.3378 53.7448C11.1398 53.2682 11.0408 52.7475 11.0408 52.1828C11.0408 51.6182 11.1398 51.0975 11.3378 50.6208C11.5431 50.1442 11.8254 49.7298 12.1848 49.3778C12.5514 49.0258 12.9804 48.7545 13.4718 48.5638C13.9631 48.3658 14.4984 48.2668 15.0778 48.2668C15.6351 48.2668 16.1594 48.3622 16.6508 48.5528C17.1421 48.7362 17.5564 49.0148 17.8938 49.3888L17.3768 49.9058C17.0614 49.5832 16.7131 49.3522 16.3318 49.2128C15.9504 49.0662 15.5398 48.9928 15.0998 48.9928C14.6378 48.9928 14.2088 49.0735 13.8128 49.2348C13.4168 49.3888 13.0721 49.6125 12.7788 49.9058C12.4854 50.1918 12.2544 50.5292 12.0857 50.9178C11.9244 51.2992 11.8438 51.7208 11.8438 52.1828C11.8438 52.6448 11.9244 53.0702 12.0857 53.4588C12.2544 53.8402 12.4854 54.1775 12.7788 54.4708C13.0721 54.7568 13.4168 54.9805 13.8128 55.1418C14.2088 55.2958 14.6378 55.3728 15.0998 55.3728C15.5398 55.3728 15.9504 55.2995 16.3318 55.1528C16.7131 55.0062 17.0614 54.7715 17.3768 54.4488L17.8938 54.9658C17.5564 55.3398 17.1421 55.6222 16.6508 55.8128C16.1594 56.0035 15.6314 56.0988 15.0668 56.0988ZM20.355 51.7758H24.425V52.4688H20.355V51.7758ZM20.443 55.3288H25.074V56.0328H19.629V48.3328H24.909V49.0368H20.443V55.3288ZM29.1104 56.0988C28.5384 56.0988 27.9884 56.0072 27.4604 55.8238C26.9397 55.6332 26.5364 55.3912 26.2504 55.0978L26.5694 54.4708C26.8407 54.7348 27.2037 54.9585 27.6584 55.1418C28.1204 55.3178 28.6044 55.4058 29.1104 55.4058C29.5944 55.4058 29.9867 55.3472 30.2874 55.2298C30.5954 55.1052 30.8191 54.9402 30.9584 54.7348C31.1051 54.5295 31.1784 54.3022 31.1784 54.0528C31.1784 53.7522 31.0904 53.5102 30.9144 53.3268C30.7457 53.1435 30.5221 53.0005 30.2434 52.8978C29.9647 52.7878 29.6567 52.6925 29.3194 52.6118C28.9821 52.5312 28.6447 52.4468 28.3074 52.3588C27.9701 52.2635 27.6584 52.1388 27.3724 51.9848C27.0937 51.8308 26.8664 51.6292 26.6904 51.3798C26.5217 51.1232 26.4374 50.7895 26.4374 50.3788C26.4374 49.9975 26.5364 49.6492 26.7344 49.3338C26.9397 49.0112 27.2514 48.7545 27.6694 48.5638C28.0874 48.3658 28.6227 48.2668 29.2754 48.2668C29.7081 48.2668 30.1371 48.3292 30.5624 48.4538C30.9877 48.5712 31.3544 48.7362 31.6624 48.9488L31.3874 49.5978C31.0574 49.3778 30.7054 49.2165 30.3314 49.1138C29.9647 49.0112 29.6091 48.9598 29.2644 48.9598C28.8024 48.9598 28.4211 49.0222 28.1204 49.1468C27.8197 49.2715 27.5961 49.4402 27.4494 49.6528C27.3101 49.8582 27.2404 50.0928 27.2404 50.3568C27.2404 50.6575 27.3247 50.8995 27.4934 51.0828C27.6694 51.2662 27.8967 51.4092 28.1754 51.5118C28.4614 51.6145 28.7731 51.7062 29.1104 51.7868C29.4477 51.8675 29.7814 51.9555 30.1114 52.0508C30.4487 52.1462 30.7567 52.2708 31.0354 52.4248C31.3214 52.5715 31.5487 52.7695 31.7174 53.0188C31.8934 53.2682 31.9814 53.5945 31.9814 53.9978C31.9814 54.3718 31.8787 54.7202 31.6734 55.0428C31.4681 55.3582 31.1527 55.6148 30.7274 55.8128C30.3094 56.0035 29.7704 56.0988 29.1104 56.0988ZM35.878 56.0988C35.306 56.0988 34.756 56.0072 34.228 55.8238C33.7073 55.6332 33.304 55.3912 33.018 55.0978L33.337 54.4708C33.6083 54.7348 33.9713 54.9585 34.426 55.1418C34.888 55.3178 35.372 55.4058 35.878 55.4058C36.362 55.4058 36.7543 55.3472 37.055 55.2298C37.363 55.1052 37.5866 54.9402 37.726 54.7348C37.8726 54.5295 37.946 54.3022 37.946 54.0528C37.946 53.7522 37.858 53.5102 37.682 53.3268C37.5133 53.1435 37.2896 53.0005 37.011 52.8978C36.7323 52.7878 36.4243 52.6925 36.087 52.6118C35.7496 52.5312 35.4123 52.4468 35.075 52.3588C34.7376 52.2635 34.426 52.1388 34.14 51.9848C33.8613 51.8308 33.634 51.6292 33.458 51.3798C33.2893 51.1232 33.205 50.7895 33.205 50.3788C33.205 49.9975 33.304 49.6492 33.502 49.3338C33.7073 49.0112 34.019 48.7545 34.437 48.5638C34.855 48.3658 35.3903 48.2668 36.043 48.2668C36.4756 48.2668 36.9046 48.3292 37.33 48.4538C37.7553 48.5712 38.122 48.7362 38.43 48.9488L38.155 49.5978C37.825 49.3778 37.473 49.2165 37.099 49.1138C36.7323 49.0112 36.3766 48.9598 36.032 48.9598C35.57 48.9598 35.1886 49.0222 34.888 49.1468C34.5873 49.2715 34.3636 49.4402 34.217 49.6528C34.0776 49.8582 34.008 50.0928 34.008 50.3568C34.008 50.6575 34.0923 50.8995 34.261 51.0828C34.437 51.2662 34.6643 51.4092 34.943 51.5118C35.229 51.6145 35.5406 51.7062 35.878 51.7868C36.2153 51.8675 36.549 51.9555 36.879 52.0508C37.2163 52.1462 37.5243 52.2708 37.803 52.4248C38.089 52.5715 38.3163 52.7695 38.485 53.0188C38.661 53.2682 38.749 53.5945 38.749 53.9978C38.749 54.3718 38.6463 54.7202 38.441 55.0428C38.2356 55.3582 37.9203 55.6148 37.495 55.8128C37.077 56.0035 36.538 56.0988 35.878 56.0988ZM40.5226 56.0328V48.3328H41.3366V56.0328H40.5226ZM43.8419 56.0328V48.3328H47.1639C48.0219 48.3328 48.6856 48.5052 49.1549 48.8498C49.6316 49.1945 49.8699 49.6822 49.8699 50.3128C49.8699 50.7308 49.7709 51.0828 49.5729 51.3688C49.3822 51.6548 49.1182 51.8712 48.7809 52.0178C48.4509 52.1645 48.0879 52.2378 47.6919 52.2378L47.8789 51.9738C48.3702 51.9738 48.7919 52.0508 49.1439 52.2048C49.5032 52.3515 49.7819 52.5752 49.9799 52.8758C50.1779 53.1692 50.2769 53.5358 50.2769 53.9758C50.2769 54.6285 50.0349 55.1345 49.5509 55.4938C49.0742 55.8532 48.3519 56.0328 47.3839 56.0328H43.8419ZM44.6559 55.3618H47.3729C48.0476 55.3618 48.5646 55.2482 48.9239 55.0208C49.2832 54.7862 49.4629 54.4158 49.4629 53.9098C49.4629 53.4112 49.2832 53.0482 48.9239 52.8208C48.5646 52.5862 48.0476 52.4688 47.3729 52.4688H44.5679V51.7978H47.1089C47.7249 51.7978 48.2016 51.6805 48.5389 51.4458C48.8836 51.2112 49.0559 50.8628 49.0559 50.4008C49.0559 49.9315 48.8836 49.5832 48.5389 49.3558C48.2016 49.1212 47.7249 49.0038 47.1089 49.0038H44.6559V55.3618ZM52.1349 56.0328V48.3328H52.9489V56.0328H52.1349ZM55.4542 56.0328V48.3328H56.2682V55.3288H60.5802V56.0328H55.4542ZM61.9317 56.0328V48.3328H62.7457V56.0328H61.9317ZM65.2511 56.0328V48.3328H68.3861C69.2074 48.3328 69.9261 48.4978 70.5421 48.8278C71.1654 49.1505 71.6494 49.6015 71.9941 50.1808C72.3387 50.7602 72.5111 51.4275 72.5111 52.1828C72.5111 52.9382 72.3387 53.6055 71.9941 54.1848C71.6494 54.7642 71.1654 55.2188 70.5421 55.5488C69.9261 55.8715 69.2074 56.0328 68.3861 56.0328H65.2511ZM66.0651 55.3288H68.3421C69.0241 55.3288 69.6144 55.1968 70.1131 54.9328C70.6191 54.6615 71.0114 54.2912 71.2901 53.8218C71.5687 53.3452 71.7081 52.7988 71.7081 52.1828C71.7081 51.5595 71.5687 51.0132 71.2901 50.5438C71.0114 50.0745 70.6191 49.7078 70.1131 49.4438C69.6144 49.1725 69.0241 49.0368 68.3421 49.0368H66.0651V55.3288ZM72.9995 56.0328L76.5195 48.3328H77.3225L80.8425 56.0328H79.9845L76.7505 48.8058H77.0805L73.8465 56.0328H72.9995ZM74.3855 53.9758L74.6275 53.3158H79.1045L79.3465 53.9758H74.3855ZM82.1163 56.0328V48.3328H85.2513C86.0726 48.3328 86.7913 48.4978 87.4073 48.8278C88.0306 49.1505 88.5146 49.6015 88.8593 50.1808C89.204 50.7602 89.3763 51.4275 89.3763 52.1828C89.3763 52.9382 89.204 53.6055 88.8593 54.1848C88.5146 54.7642 88.0306 55.2188 87.4073 55.5488C86.7913 55.8715 86.0726 56.0328 85.2513 56.0328H82.1163ZM82.9303 55.3288H85.2073C85.8893 55.3288 86.4796 55.1968 86.9783 54.9328C87.4843 54.6615 87.8766 54.2912 88.1553 53.8218C88.434 53.3452 88.5733 52.7988 88.5733 52.1828C88.5733 51.5595 88.434 51.0132 88.1553 50.5438C87.8766 50.0745 87.4843 49.7078 86.9783 49.4438C86.4796 49.1725 85.8893 49.0368 85.2073 49.0368H82.9303V55.3288ZM91.9302 51.7758H96.0002V52.4688H91.9302V51.7758ZM92.0182 55.3288H96.6492V56.0328H91.2042V48.3328H96.4842V49.0368H92.0182V55.3288Z" fill="white"/>
<g clip-path="url(#clip0_2311_5)">
<path d="M49.3239 -0.0236437C49.3992 -0.0234805 49.4744 -0.0233172 49.5518 -0.023149C50.6751 -0.0192372 51.775 0.00564476 52.88 0.227317C52.9927 0.249895 52.9927 0.249895 53.1077 0.272929C56.0643 0.887726 58.8268 2.07836 61.2138 3.93964C61.2808 3.99062 61.3478 4.0416 61.4168 4.09412C62.598 5.01111 63.705 6.09443 64.6231 7.27316C64.71 7.37951 64.71 7.37951 64.7986 7.48801C66.8471 10.0462 68.1496 13.2108 68.6385 16.4403C68.6519 16.5251 68.6653 16.6099 68.6792 16.6972C68.8065 17.5853 68.8171 18.4658 68.8137 19.3619C68.8135 19.4392 68.8133 19.5165 68.8132 19.5961C68.8094 20.7044 68.7907 21.7916 68.5627 22.8801C68.5401 22.9909 68.5401 22.9909 68.5171 23.1039C67.7503 26.7694 66.0899 30.102 63.4867 32.8049C63.4388 32.8548 63.3909 32.9048 63.3415 32.9562C62.6487 33.6751 61.9443 34.3372 61.138 34.9262C61.0508 34.9912 60.9636 35.0562 60.8764 35.1212C60.256 35.5786 59.6118 35.9864 58.941 36.3657C58.8874 36.3961 58.8338 36.4266 58.7786 36.458C57.0258 37.4448 55.1188 38.1076 53.1499 38.5107C53.0955 38.5218 53.041 38.533 52.9849 38.5445C51.873 38.7558 50.7726 38.8165 49.6429 38.8139C49.4202 38.8137 49.1976 38.8155 48.9749 38.8174C47.9617 38.8208 46.9847 38.7295 45.9857 38.5627C45.8565 38.5414 45.8565 38.5414 45.7247 38.5196C42.4466 37.9307 39.3366 36.4165 36.8185 34.2443C36.7621 34.1963 36.7056 34.1482 36.6475 34.0987C35.6243 33.2039 34.6643 32.2379 33.8638 31.1381C33.7989 31.051 33.734 30.9639 33.6691 30.8768C33.2115 30.2563 32.8036 29.612 32.4244 28.941C32.3939 28.8874 32.3634 28.8338 32.332 28.7786C31.3452 27.0259 30.6824 25.1189 30.2793 23.15C30.2682 23.0955 30.257 23.041 30.2455 22.9849C30.0202 21.7995 29.9717 20.6272 29.9763 19.4234C29.9765 19.3463 29.9766 19.2692 29.9768 19.1897C29.9806 18.0829 29.9996 16.9971 30.2273 15.91C30.2423 15.8361 30.2574 15.7623 30.2729 15.6862C31.0396 12.0207 32.7001 8.68806 35.3033 5.98521C35.3512 5.93525 35.3991 5.8853 35.4484 5.83383C36.1412 5.11498 36.8456 4.45284 37.6519 3.86388C37.7391 3.79887 37.8263 3.73386 37.9135 3.66885C38.534 3.21144 39.1782 2.80363 39.849 2.42441C39.9026 2.39394 39.9562 2.36347 40.0114 2.33207C41.7641 1.34524 43.6712 0.682416 45.64 0.279403C45.6945 0.268239 45.749 0.257075 45.8051 0.245573C46.9761 0.0229923 48.1347 -0.028293 49.3239 -0.0236437ZM36.9534 6.30719C36.8173 6.44096 36.6797 6.573 36.5418 6.70494C35.9839 7.24428 35.4831 7.80737 35.0211 8.43085C34.9273 8.5573 34.832 8.68246 34.7366 8.80763C32.4746 11.8227 31.3269 15.5961 31.3353 19.3429C31.3353 19.4125 31.3354 19.4821 31.3354 19.5538C31.3463 23.5931 32.7185 27.4453 35.2275 30.6078C35.2599 30.649 35.2922 30.6902 35.3255 30.7327C36.221 31.8651 37.2678 32.9261 38.4369 33.775C38.5613 33.8657 38.6837 33.9586 38.8061 34.052C41.8191 36.3163 45.5968 37.4631 49.3429 37.4547C49.4125 37.4547 49.4821 37.4546 49.5538 37.4546C53.3834 37.4442 57.3022 36.2187 60.3047 33.7898C60.3676 33.7412 60.4305 33.6927 60.4953 33.6427C61.013 33.2397 61.4962 32.8018 61.9714 32.3503C62.012 32.3119 62.0526 32.2735 62.0944 32.2339C62.7228 31.635 63.2734 31.0021 63.7897 30.3047C63.8222 30.2613 63.8547 30.2178 63.8882 30.173C66.2184 27.0461 67.4637 23.301 67.4547 19.4045C67.4546 19.3369 67.4546 19.2693 67.4546 19.1996C67.4433 15.1763 66.0601 11.3305 63.5624 8.1823C63.5301 8.14108 63.4977 8.09987 63.4644 8.05741C62.569 6.925 61.5221 5.86396 60.3531 5.01503C60.2287 4.92437 60.1062 4.83146 59.9839 4.7381C56.9708 2.47373 53.1931 1.32694 49.4471 1.33533C49.3775 1.33537 49.3079 1.33541 49.2362 1.33546C44.6867 1.34779 40.209 3.10258 36.9534 6.30719Z" fill="black"/>
<path d="M52.5012 2.80319C52.5756 2.81825 52.6499 2.8333 52.7265 2.84881C56.0375 3.53805 58.8523 5.10138 61.2896 7.42466C61.3501 7.48208 61.4107 7.53951 61.473 7.59867C62.673 8.76554 63.6354 10.1826 64.3958 11.6673C64.4251 11.7236 64.4543 11.7799 64.4845 11.8379C65.1372 13.1042 65.5935 14.4393 65.9016 15.8295C65.916 15.8947 65.9305 15.96 65.9454 16.0272C66.1747 17.1369 66.2429 18.2413 66.2377 19.3713C66.2375 19.4655 66.2375 19.4655 66.2373 19.5616C66.2337 20.5564 66.1865 21.524 65.9868 22.5012C65.9738 22.5662 65.9608 22.6311 65.9474 22.698C65.2708 25.9826 63.7413 28.7846 61.4411 31.2138C61.3747 31.2844 61.3083 31.3549 61.2398 31.4275C60.7153 31.969 60.1501 32.4302 59.547 32.8806C59.4821 32.9297 59.4821 32.9297 59.4159 32.9798C58.7357 33.4922 58.0257 33.9207 57.2742 34.3201C57.2264 34.346 57.1786 34.372 57.1293 34.3988C53.9128 36.1395 49.8773 36.7201 46.2887 35.9868C46.2238 35.9738 46.1589 35.9608 46.0919 35.9474C44.7223 35.6653 43.3678 35.2579 42.1187 34.6227C42.0138 34.5695 41.9085 34.5169 41.803 34.4649C40.8885 34.0137 40.0563 33.4951 39.2429 32.8806C39.1357 32.7999 39.1357 32.7999 39.0263 32.7175C38.5172 32.3212 38.0443 31.8844 37.5761 31.4411C37.5056 31.3747 37.4351 31.3083 37.3625 31.2399C36.821 30.7154 36.3597 30.1501 35.9094 29.5471C35.8603 29.4822 35.8603 29.4822 35.8102 29.4159C35.2978 28.7358 34.8693 28.0257 34.4699 27.2742C34.431 27.2025 34.431 27.2025 34.3912 27.1294C33.4641 25.4163 32.9063 23.519 32.6516 21.5921C32.6444 21.5393 32.6371 21.4866 32.6297 21.4322C32.2251 18.046 32.842 14.5129 34.4699 11.5158C34.4966 11.4656 34.5232 11.4155 34.5507 11.3638C35.2984 9.95915 36.2561 8.73024 37.3489 7.57618C37.4153 7.50567 37.4817 7.43516 37.5501 7.36251C38.0746 6.82101 38.6399 6.35978 39.2429 5.90942C39.2862 5.8767 39.3295 5.84397 39.374 5.81025C40.0542 5.29782 40.7643 4.86929 41.5158 4.46995C41.5636 4.44399 41.6114 4.41802 41.6606 4.39127C43.3737 3.46416 45.271 2.90636 47.1979 2.65167C47.2506 2.64442 47.3033 2.63717 47.3576 2.6297C49.0226 2.43063 50.8612 2.46486 52.5012 2.80319ZM39.849 7.19737C39.7714 7.25949 39.6937 7.3216 39.6137 7.38559C36.4617 9.95773 34.4438 13.6525 33.9707 17.6981C33.9208 18.2434 33.9211 18.791 33.9206 19.3382C33.9206 19.3951 33.9205 19.452 33.9205 19.5107C33.9219 20.472 33.9765 21.405 34.1669 22.3497C34.1858 22.4435 34.1858 22.4435 34.205 22.5392C34.5148 24.0117 35.0391 25.4233 35.7579 26.7439C35.7817 26.7887 35.8054 26.8336 35.83 26.8798C36.8071 28.7172 38.2653 30.4137 39.9248 31.6684C39.9926 31.7198 39.9926 31.7198 40.0619 31.7722C43.3422 34.2302 47.4361 35.2773 51.5018 34.7689C54.9414 34.2647 57.8718 32.6653 60.3804 30.3047C60.4303 30.258 60.4802 30.2113 60.5316 30.1632C61.6218 29.1108 62.4899 27.7805 63.1836 26.4409C63.2094 26.3917 63.2351 26.3426 63.2616 26.292C64.3558 24.1779 64.8855 21.8202 64.8788 19.4471C64.8787 19.3919 64.8787 19.3367 64.8786 19.2798C64.873 17.6265 64.6173 16.0395 64.0927 14.4705C64.0746 14.4158 64.0564 14.3611 64.0377 14.3047C63.7712 13.5173 63.423 12.7788 63.0321 12.0461C62.9961 11.9779 62.9961 11.9779 62.9593 11.9083C61.0503 8.32089 57.6426 5.71399 53.7939 4.52677C53.0224 4.29786 52.2354 4.13844 51.4405 4.01538C51.3649 4.00358 51.3649 4.00358 51.2878 3.99154C47.2729 3.45728 43.0041 4.67326 39.849 7.19737Z" fill="black"/>
<path d="M40.5504 14.1743C40.6136 14.1784 40.6767 14.1824 40.7418 14.1866C41.5278 14.2418 42.3122 14.3246 43.0963 14.4022C47.4462 14.8324 51.5833 14.8056 55.9341 14.3832C56.0065 14.3762 56.0789 14.3692 56.1535 14.3619C56.4966 14.3285 56.8396 14.2947 57.1825 14.2599C57.3056 14.2476 57.4288 14.2354 57.5519 14.2231C57.6332 14.2146 57.6332 14.2146 57.7161 14.2059C58.5175 14.127 59.2191 14.1053 59.8738 14.6363C60.307 15.0435 60.5348 15.553 60.5556 16.1468C60.5488 16.6677 60.3452 17.0924 60.0679 17.5247C59.3945 18.1542 58.5945 18.1935 57.7193 18.2633C57.5867 18.2751 57.4541 18.287 57.3215 18.2991C57.0443 18.3242 56.7671 18.3486 56.4898 18.3725C55.8504 18.4281 55.2118 18.4918 54.5733 18.5558C54.374 18.5756 54.1747 18.595 53.9754 18.6142C53.8537 18.6262 53.7319 18.6382 53.6101 18.6501C53.5546 18.6554 53.4991 18.6607 53.442 18.6661C53.2167 18.6886 53.02 18.717 52.8043 18.7889C52.6545 19.1701 52.7082 19.6319 52.7048 20.0343C52.7026 20.1186 52.7004 20.2029 52.6982 20.2898C52.6896 21.4245 53.1678 22.4191 53.5832 23.4548C53.6775 23.6898 53.7712 23.925 53.8648 24.1603C53.9976 24.4942 54.1305 24.8281 54.2635 25.1619C54.5801 25.9568 54.8949 26.7525 55.2083 27.5487C55.2752 27.7184 55.3422 27.888 55.4094 28.0575C55.5035 28.2951 55.5971 28.5328 55.6906 28.7705C55.7184 28.8404 55.7462 28.9102 55.7748 28.9822C56.0612 29.7135 56.2815 30.4056 55.9907 31.1754C55.7256 31.6951 55.3712 32.0582 54.8214 32.2651C54.173 32.4483 53.6229 32.3753 53.0316 32.0472C52.6953 31.7951 52.507 31.5963 52.3231 31.2106C52.3013 31.1652 52.2796 31.1197 52.2572 31.0729C51.9488 30.4166 51.6829 29.7412 51.4122 29.0689C51.3232 28.8493 51.234 28.6299 51.1449 28.4105C51.0838 28.26 51.0227 28.1095 50.9616 27.9591C50.6299 27.1419 50.2921 26.3272 49.9537 25.5128C49.8971 25.3763 49.8404 25.2399 49.7838 25.1034C49.6543 24.7916 49.5247 24.4798 49.395 24.168C48.7785 25.6008 48.1893 27.0445 47.603 28.4898C47.4489 28.8695 47.2937 29.2487 47.1377 29.6276C47.0764 29.777 47.0154 29.9266 46.9547 30.0763C46.8665 30.2936 46.777 30.5104 46.6871 30.727C46.6613 30.7914 46.6355 30.8558 46.6088 30.9221C46.3979 31.4247 46.1139 31.9246 45.5927 32.1514C45.5184 32.1851 45.5184 32.1851 45.4427 32.2195C44.9177 32.4277 44.3773 32.4225 43.8455 32.2319C43.3041 31.9845 42.9906 31.6584 42.7706 31.105C42.396 29.9015 43.1435 28.6331 43.5884 27.5214C43.7143 27.2068 43.8394 26.8918 43.9646 26.5769C44.0306 26.4108 44.0966 26.2447 44.1627 26.0786C44.5142 25.1953 44.8638 24.3113 45.2118 23.4267C45.2793 23.2554 45.3469 23.0842 45.4145 22.913C45.5092 22.6738 45.6034 22.4344 45.6975 22.195C45.7257 22.1239 45.7538 22.0529 45.7829 21.9797C45.8086 21.914 45.8344 21.8483 45.8609 21.7806C45.8833 21.7238 45.9057 21.6669 45.9288 21.6084C46.0988 21.1075 46.0809 20.6001 46.0852 20.0769C46.0874 19.9878 46.0896 19.8988 46.0918 19.807C46.0928 19.6781 46.0928 19.6781 46.0937 19.5466C46.0948 19.4684 46.0959 19.3903 46.0971 19.3098C46.0503 19.0235 45.9746 18.9068 45.7584 18.7132C45.5513 18.6615 45.3823 18.6347 45.1725 18.6205C45.1138 18.6152 45.0552 18.6098 44.9947 18.6043C44.8677 18.5929 44.7405 18.5823 44.6133 18.5725C44.4115 18.5568 44.21 18.5389 44.0085 18.5205C43.6538 18.4884 43.2991 18.4581 42.9442 18.4283C42.3852 18.3814 41.8264 18.333 41.2679 18.2811C41.0747 18.2637 40.8814 18.2482 40.6881 18.2327C39.9165 18.1654 39.2437 18.0562 38.6794 17.4821C38.294 16.9764 38.1755 16.3832 38.258 15.7585C38.3806 15.2202 38.6294 14.8859 39.0378 14.5229C39.5137 14.2256 39.9929 14.1295 40.5504 14.1743ZM39.7733 15.7585C39.5956 15.9771 39.5956 15.9771 39.6312 16.2509C39.6724 16.5127 39.6724 16.5127 39.8236 16.6415C40.0467 16.7699 40.2178 16.7919 40.4744 16.8197C40.5254 16.8254 40.5764 16.8311 40.629 16.837C41.2023 16.8987 41.777 16.9471 42.3512 16.9985C42.4283 17.0054 42.4283 17.0054 42.5069 17.0124C42.6655 17.0267 42.8241 17.0408 42.9826 17.055C43.0358 17.0598 43.089 17.0645 43.1438 17.0694C43.4164 17.0937 43.689 17.1176 43.9616 17.1407C44.2294 17.1634 44.497 17.1873 44.7646 17.212C44.9136 17.2254 45.0627 17.2376 45.2118 17.2497C45.851 17.3096 46.3772 17.4137 46.8807 17.8277C47.4076 18.4751 47.4411 19.033 47.4434 19.8411C47.4441 19.9985 47.4465 20.1559 47.4489 20.3134C47.4602 21.6016 47.0008 22.6734 46.535 23.8555C46.4702 24.0211 46.4055 24.1867 46.3408 24.3523C46.1781 24.7683 46.0147 25.1839 45.8511 25.5995C45.7638 25.8212 45.6766 26.043 45.5895 26.2648C45.4393 26.6471 45.2888 27.0294 45.1381 27.4116C45.1149 27.4707 45.0916 27.5298 45.0676 27.5907C44.8541 28.1329 44.6399 28.6744 44.4146 29.2118C44.3849 29.2831 44.3553 29.3543 44.3248 29.4277C44.2731 29.5513 44.2206 29.6745 44.1668 29.7971C44.0305 30.1234 43.9894 30.342 44.0917 30.6835C44.2541 30.9122 44.3407 30.9762 44.6173 31.0292C44.9301 30.9717 45.0215 30.8468 45.2281 30.6078C45.3205 30.43 45.3981 30.2631 45.4711 30.078C45.4925 30.0261 45.5139 29.9741 45.5359 29.9205C45.6062 29.7491 45.6752 29.5771 45.7442 29.4051C45.7937 29.2838 45.8432 29.1626 45.8928 29.0414C45.9973 28.786 46.1012 28.5304 46.2047 28.2745C46.3632 27.8829 46.5236 27.4921 46.6844 27.1014C46.7372 26.9732 46.79 26.8449 46.8427 26.7166C46.8686 26.6537 46.8945 26.5909 46.9211 26.5261C47.3619 25.4565 47.3619 25.4565 47.7913 24.3823C47.8376 24.2654 47.8376 24.2654 47.8848 24.1462C47.9389 24.0093 47.9923 23.872 48.0446 23.7344C48.2266 23.2752 48.4443 22.9937 48.8789 22.738C49.3444 22.6007 49.7328 22.645 50.1763 22.8375C50.7127 23.3489 50.9285 24.1883 51.1994 24.867C51.3228 25.1759 51.4473 25.4843 51.5717 25.7928C51.5977 25.8573 51.6237 25.9219 51.6505 25.9884C51.9562 26.7457 52.2687 27.5002 52.5817 28.2544C52.6086 28.3193 52.6355 28.3842 52.6632 28.451C52.7897 28.7562 52.9166 29.0613 53.0443 29.366C53.1349 29.5821 53.2236 29.7988 53.3109 30.0162C53.3503 30.1125 53.3896 30.2088 53.429 30.305C53.4623 30.3878 53.4955 30.4706 53.5298 30.5559C53.6441 30.7715 53.7304 30.8663 53.9407 30.9866C54.2158 31.0267 54.3411 31.0246 54.5705 30.8635C54.7291 30.6402 54.7538 30.502 54.7741 30.229C54.7078 29.9722 54.7078 29.9722 54.5915 29.704C54.5603 29.6264 54.5603 29.6264 54.5284 29.5472C54.4826 29.4335 54.4362 29.32 54.3893 29.2066C54.3132 29.0224 54.2383 28.8376 54.1638 28.6527C54.0815 28.4483 53.999 28.244 53.9162 28.0398C53.5629 27.1687 53.2198 26.2936 52.8763 25.4186C52.7687 25.1446 52.6607 24.8706 52.5527 24.5967C52.2505 23.8294 51.9495 23.0616 51.6607 22.2891C51.6391 22.232 51.6175 22.175 51.5953 22.1162C51.3631 21.4876 51.3462 20.8815 51.3424 20.2172C51.3416 20.1116 51.34 20.0059 51.3378 19.9003C51.3218 19.1476 51.3551 18.496 51.843 17.8893C52.63 17.267 53.5178 17.2602 54.4921 17.1804C54.6543 17.1671 54.8165 17.1532 54.9787 17.1392C55.4391 17.0994 55.8995 17.0602 56.36 17.0222C56.6436 16.9987 56.9271 16.9743 57.2105 16.9494C57.3177 16.9402 57.4249 16.9313 57.5321 16.9227C58.3051 16.869 58.3051 16.869 59.0167 16.5919C59.1765 16.3988 59.1694 16.3082 59.1541 16.0568C59.079 15.7791 59.079 15.7791 58.8652 15.6069C58.472 15.5294 58.1116 15.5357 57.7161 15.5782C57.6562 15.5841 57.5964 15.59 57.5347 15.5961C57.4048 15.6089 57.275 15.622 57.1451 15.6354C56.7902 15.6718 56.4351 15.7058 56.0799 15.7403C55.9679 15.7512 55.9679 15.7512 55.8537 15.7624C50.9547 16.2397 46.3137 16.1086 41.4207 15.6236C41.3576 15.6174 41.2945 15.6111 41.2294 15.6047C41.1124 15.5932 40.9954 15.5815 40.8784 15.5697C40.2903 15.5086 40.2903 15.5086 39.7733 15.7585Z" fill="black"/>
<path d="M51.8714 6.58625C52.7354 7.30405 53.2316 8.28262 53.3346 9.39446C53.4112 10.4855 53.036 11.542 52.3355 12.3728C51.5417 13.1998 50.5579 13.5768 49.4281 13.6561C48.3358 13.6349 47.3273 13.2242 46.5406 12.4717C45.8177 11.6576 45.4182 10.6712 45.4394 9.57765C45.5389 8.43699 45.9553 7.43415 46.8191 6.66704C48.3675 5.52807 50.2836 5.44386 51.8714 6.58625ZM47.5009 7.95499C47.0233 8.5103 46.7824 9.15678 46.8238 9.89165C46.9302 10.6776 47.2514 11.2793 47.8679 11.781C48.4469 12.1796 49.1023 12.3346 49.7969 12.2406C50.5532 12.0816 51.1326 11.7223 51.5779 11.0849C51.9278 10.4716 52.055 9.77952 51.8951 9.09142C51.6904 8.36538 51.2837 7.80603 50.6255 7.42703C49.5349 6.92542 48.3564 7.08221 47.5009 7.95499Z" fill="black"/>
</g>
<defs>
<clipPath id="clip0_2311_5">
<rect width="38.79" height="38.79" fill="white" transform="translate(30)"/>
</clipPath>
</defs>
</svg>
