<svg width="96" height="96" viewBox="0 0 96 96" fill="none" xmlns="http://www.w3.org/2000/svg">
<path d="M56.8953 66.5127L57.0336 66.5376L57.312 66.6317L57.7824 66.8506L57.9033 66.9139L58.1068 67.0272L58.2028 67.081L58.3564 67.1808L58.4966 67.2787L58.6425 67.4535L58.6924 67.5398L58.6752 67.7242L58.4928 68.0583L58.4275 68.1447L58.3219 68.2541L58.2643 68.2983L58.1203 68.3251L58.0358 68.327L57.7785 68.2714L57.7056 68.2541L57.5232 68.2003L57.1929 68.1005L56.9203 68.0141L56.446 67.9219L56.2195 67.8874L55.8259 67.8989L55.6377 67.9162L55.3036 68.0333L54.8448 68.3309L54.6892 68.4653L54.4396 68.7975L54.3244 68.9722L54.1555 69.3658L54.0806 69.5674L53.9904 69.9975L53.9577 70.2144L53.9481 70.656L53.9539 70.8768L54.023 71.3088L54.0672 71.52L54.2169 71.9155L54.2995 72.1075L54.526 72.4416L54.9542 72.8525L55.0252 72.9024L55.2096 72.983L55.3094 73.0195L55.5379 73.0752L55.776 73.1232L56.3155 73.1443L56.5862 73.1424L57.1027 73.0637L57.2236 73.0387L57.4425 72.9677L57.7152 72.8333L57.8304 72.7584L57.9955 72.6663L58.0704 72.6298L58.1894 72.6202L58.2489 72.6259L58.3699 72.7027L58.608 72.9235L58.7078 73.0215L58.8326 73.1616L58.8825 73.225L58.9132 73.3287L58.9171 73.3805L58.8537 73.4918L58.6598 73.7223L58.6118 73.7779L58.4467 73.8989L58.3545 73.9603L58.126 74.0851L57.3408 74.4019L57.2121 74.4403L56.9971 74.5037L56.8953 74.5325L56.7264 74.5767L56.5651 74.617L56.3059 74.6458L56.1772 74.6535L55.8892 74.6208L55.8086 74.6093L55.6204 74.5747L55.5206 74.5555L55.2806 74.5095L54.9964 74.4538L54.478 74.2579L54.2284 74.1485L53.7849 73.8509L53.5718 73.6935L53.2089 73.3095L53.038 73.1098L52.7616 72.6528L52.6348 72.4186L52.4544 71.904L52.3776 71.639L52.2988 71.0803L52.2739 70.7943L52.3046 70.2029L52.4832 69.2928L52.5465 69.0797L52.6982 68.6918L52.7788 68.5056L52.9689 68.1677L53.0688 68.0064L53.2972 67.7184L53.4163 67.5821L53.6851 67.3421L53.8252 67.2288L54.1382 67.0368L54.2995 66.9447L54.6566 66.7987L54.8409 66.7296L55.2441 66.6259L55.9027 66.5184L56.1139 66.4954L56.4537 66.48L56.6131 66.4781M82.8576 66.6029L82.9996 66.6317L83.2588 66.7143L83.5852 66.8755L83.7273 66.9677L83.9155 67.1424L83.9961 67.2288L84.0672 67.4055L84.0883 67.4957L84.046 67.6915L83.856 68.0237L83.8003 68.0986L83.7024 68.1927L83.6505 68.2291L83.518 68.2483H83.4432L83.2204 68.1907L82.7232 68.0198L82.4486 67.92L81.9628 67.8394L81.7344 67.8183L81.3638 67.8874L81.2812 67.9143L81.1392 67.993L81.0739 68.0371L80.9721 68.1504L80.926 68.2099L80.8684 68.3578L80.832 68.6131V68.759L80.8895 68.9856L80.9318 69.0931L81.1142 69.2775L81.1718 69.3235L81.3177 69.4138L81.3984 69.4598L81.5961 69.5558L81.7017 69.6038L81.9571 69.7095L82.414 69.8861L82.7462 70.0109L83.2665 70.2874L83.5046 70.4314L83.8483 70.7616L84 70.9363L84.1824 71.3357L84.288 72.0346V72.2496L84.2227 72.647L84.1804 72.841L84.0345 73.1943L83.952 73.3632L83.7369 73.6647L83.6198 73.8087L83.3395 74.0525L83.1936 74.1658L82.8595 74.3443L82.6848 74.425L82.3046 74.5325L82.1087 74.5767L81.6883 74.6074L81.4732 74.6131L81.024 74.5613L80.8396 74.5306L80.4172 74.4019L80.2041 74.3309L79.7932 74.1523L79.5955 74.0602L79.2844 73.872L79.2172 73.8278L79.1193 73.7415L79.0329 73.6282L79.008 73.5629L79.0752 73.3421L79.3075 72.9907L79.6761 72.5952L80.567 72.9907L80.7187 73.0579L81.0028 73.1558L81.1411 73.2L81.4003 73.2518L81.5251 73.273L81.7535 73.2826L81.8649 73.2807L82.0608 73.2461L82.1548 73.223L82.3142 73.1443L82.391 73.1002L82.512 72.9792L82.5676 72.9139L82.6464 72.7527L82.7136 72.4647L82.7308 72.2842L82.6732 71.9847L82.6272 71.8426L82.4256 71.6064L82.3046 71.495L81.9379 71.305L81.1814 71.0477L80.9145 70.9767L80.4576 70.7578L80.2444 70.6387L79.8969 70.3411L79.7375 70.1837L79.5052 69.8285L79.4054 69.6442L79.2902 69.2506L79.248 69.0528L79.2576 68.6419L79.2787 68.4365L79.4131 68.0295L79.4976 67.8298L79.7644 67.4477L80.3193 66.9255L80.4057 66.8621L80.6304 66.7546L80.7475 66.7066L81.0201 66.6317L81.3004 66.5645L81.934 66.5223L82.2508 66.5165M15.4598 66.6259L15.7344 66.7027L16.1337 66.8621L16.3084 66.9447L16.5216 67.1309L16.606 67.2288L16.6502 67.4592L16.5446 67.8778L16.4812 68.016L16.368 68.1946L16.3104 68.2675L16.1702 68.3232L16.0934 68.3367L15.8803 68.2771L15.4291 68.0659L15.1833 67.9354L14.7014 67.8221L14.4691 67.7895L14.064 67.8528L13.9699 67.8797L13.8086 67.9623L13.7318 68.0083L13.6108 68.1293L13.5571 68.1927L13.4841 68.3501L13.44 68.6227V68.7667L13.4976 68.9914L13.5398 69.097L13.7241 69.2794L13.7817 69.3255L13.9276 69.4157L14.0083 69.4598L14.206 69.5558L14.3116 69.6038L14.567 69.7095L15.022 69.8861L15.3542 70.0109L15.8745 70.2874L16.1126 70.4314L16.4563 70.7616L16.608 70.9363L16.7904 71.3357L16.896 72.0346V72.2592L16.8288 72.6739L16.7827 72.8736L16.631 73.2346L16.5465 73.4093L16.32 73.7107L16.1971 73.8547L15.9033 74.0947L15.7478 74.2042L15.3945 74.375L15.2102 74.4499L14.8051 74.544L14.5977 74.5805L14.1484 74.592L13.92 74.5882L13.438 74.5133L13.2672 74.4787L12.8505 74.3328L12.6393 74.2503L12.2246 74.0506L12.0268 73.9507L11.7235 73.7549L11.6601 73.7088L11.5737 73.6282L11.52 73.5303V73.4995L11.6313 73.3306L11.8982 73.0099L12.2764 72.6048L13.2537 73.0176L13.4764 73.1117L13.7971 73.2327L13.943 73.2826L14.158 73.319L14.2598 73.3287L14.4403 73.2864L14.7475 73.1405L14.8876 73.0618L15.1008 72.8429L15.1929 72.7277L15.3004 72.4647L15.3388 72.3322L15.3292 72.0672L15.168 71.712L15.1372 71.6755L15.0028 71.5834L14.926 71.5354L14.7206 71.4298L13.9526 71.1226L13.7664 71.063L13.4361 70.9344L13.2768 70.8691L13.0022 70.729L12.8697 70.6579L12.647 70.5024L12.5414 70.4237L12.3667 70.2509L12.286 70.1607L12.1574 69.9667L12.0998 69.865L12.0134 69.6442L11.904 68.8723V68.6707L11.927 68.3597L11.9424 68.2176L12.0172 67.9834L12.0614 67.872L12.2112 67.657L12.5414 67.2922L12.7353 67.0983L13.1596 66.8141L13.3766 66.6893L13.8508 66.5434L14.0928 66.4877L14.6169 66.4819M61.632 74.496H59.904V66.624H61.632M26.88 74.496H25.536V71.5104L25.5244 70.8653L25.5168 70.5581L25.4937 70.0608L25.488 69.9475L25.4726 69.7613L25.4649 69.673L25.4476 69.5424L25.44 69.4829L25.4208 69.4157L25.392 69.3907L25.3824 69.4003L25.342 69.4579L25.3171 69.4944L25.2518 69.6L25.1808 69.7152L24.9792 70.0647L24.8697 70.2547L24.6105 70.7155L24.1881 71.4855L24.0652 71.7101L23.8598 72.0864L23.7619 72.263L23.5948 72.551L23.5161 72.6855L23.3817 72.8947L23.3164 72.9927L23.2032 73.1386L23.0937 73.2691L22.896 73.3882L22.558 73.44H22.4256L22.2163 73.3843L22.1644 73.3632L22.0627 73.2864L22.0089 73.2442L21.8976 73.1175L21.84 73.0464L21.7094 72.8563L21.6403 72.7507L21.479 72.4819L21.3945 72.3379L21.1929 71.9808L20.8339 71.328L19.68 69.216L19.5724 74.496H18.286L18.1478 71.5315L18.1286 71.1245L18.1036 70.3047L18.094 69.9015L18.0883 69.1527V68.7955L18.1017 68.208L18.1056 68.0736L18.119 67.8509L18.142 67.5955L18.2764 66.624L19.0732 66.6259L19.872 66.6278L21.2217 69.2064L22.5715 71.7869L25.248 66.6259L26.88 66.624M68.8915 67.248L68.878 67.4016L68.8377 67.607L68.8128 67.6954L68.6976 67.799L68.6227 67.8413L68.3616 67.8855L68.2848 67.895L68.0889 67.9085L67.728 67.9296L66.624 67.9872V74.496H64.896V67.9872L63.792 67.9296L63.6556 67.9219L63.431 67.9085L63.3254 67.9027L63.1584 67.8855L63.0028 67.8682L62.8224 67.799L62.7494 67.7549L62.6822 67.607L62.6284 67.248L62.567 66.624H68.9529M71.616 74.496H69.888V66.624H71.616M78.336 67.7607L74.976 67.872L74.8608 69.888H77.5929L77.472 71.136L76.176 71.1936L74.88 71.2493V73.1367L78.24 73.248L78.3609 74.496H73.152V66.624H78.336M32.0736 66.6394L32.1849 66.649L32.3673 66.6797L32.4518 66.697L32.567 66.7392L32.64 66.8122V66.8256L32.6688 66.9235L32.686 66.9811L32.7475 67.1635L32.782 67.2634L32.8742 67.5187L32.9241 67.657L33.0412 67.9776L33.1046 68.1447L33.2448 68.519L33.3177 68.713L33.4771 69.1335L34.007 70.5082L34.1952 70.992L34.5465 71.8906L34.631 72.1056L34.7865 72.5069L34.8633 72.7027L35.0016 73.056L35.0668 73.2269L35.182 73.5207L35.2358 73.6608L35.3241 73.8855L35.3644 73.9891L35.422 74.137L35.4681 74.256L35.4835 74.2983L35.4643 74.3635L35.4451 74.3943L35.351 74.4384L35.2953 74.4595L35.1225 74.4826L34.7692 74.496H34.5657L34.2604 74.4403L34.1203 74.3981L33.9033 74.2138L33.8534 74.1581L33.7574 74.0103L33.7113 73.9296L33.6192 73.7318L33.5731 73.6243L33.4809 73.367L33.3292 72.9043L33.3062 72.8295L33.2198 72.7258L33.166 72.6816L32.9683 72.6298L32.9088 72.6183L32.7571 72.6067L32.6745 72.601L32.4729 72.599L32.3654 72.5971L32.1062 72.6029L31.6396 72.6163L30.0576 72.672L29.7408 73.536L29.6659 73.7395L29.5449 74.016L29.4854 74.137L29.3529 74.2829L29.28 74.3424L29.0764 74.4058L28.631 74.4595L28.5081 74.4691H28.2988L28.2028 74.4672L28.0512 74.4442L27.982 74.4307L27.8937 74.3885L27.8592 74.3635L27.84 74.3021V74.2714L27.8841 74.1082L27.9129 74.0122L28.0032 73.7434L28.0531 73.5994L28.1798 73.2595L28.3968 72.7066L28.4352 72.6125L28.5273 72.3821L28.5753 72.2611L28.6848 71.9866L28.798 71.7024L29.0592 71.0419L29.8694 68.976L30.7872 66.624H31.8412M39.0969 66.6509L39.3945 66.6701L39.9033 66.7411L40.1452 66.7815L40.5523 66.8986L40.7443 66.9619L41.0553 67.1328L41.1993 67.223L41.424 67.4515L41.5257 67.5725L41.6716 67.8624L41.7369 68.016L41.8118 68.375L41.856 68.9952V69.2045L41.8348 69.5155L41.8176 69.6576L41.7408 69.888L41.6928 69.9994L41.5334 70.2125L41.1724 70.583L40.4908 71.2263L41.0496 72.0461L41.1264 72.1575L41.3049 72.4282L41.399 72.5664L41.5929 72.864L41.6908 73.0118L41.8752 73.2979L42.1171 73.68L42.6297 74.496H41.5622L41.3664 74.4941L41.2742 74.4922L41.1225 74.4787L40.9785 74.4615L40.7673 74.3578L40.6656 74.2887L40.464 74.0295L40.4083 73.9527L40.2835 73.7568L40.0588 73.392L39.9283 73.1789L39.7036 72.816L39.5961 72.6451L39.4137 72.3629L39.3254 72.2304L39.1776 72.0173L39.1065 71.9194L38.9836 71.7658L38.8665 71.6275L38.6745 71.4912L38.3904 71.424H38.3059L38.1888 71.4682L38.1369 71.5027L38.0755 71.6678L38.062 71.7216L38.0448 71.8598L38.0371 71.9367L38.0275 72.1306L38.0217 72.2362L38.0179 72.4935L38.016 72.96V74.496H36.288V66.624H38.4748M49.1155 67.248L49.102 67.4016L49.0617 67.607L49.0368 67.6954L48.9216 67.799L48.8467 67.8413L48.5856 67.8855L48.5088 67.895L48.3129 67.9085L47.952 67.9296L46.848 67.9872V74.496H45.12V67.968H42.816V66.624H49.1769M31.2038 69.408L31.1136 69.6461L30.9676 70.0397L30.8985 70.2221L30.7929 70.5197L30.7449 70.6579L30.6777 70.873L30.6489 70.9728L30.6182 71.1207L30.6067 71.1878L30.6086 71.2858L30.6144 71.328L30.6489 71.3856L30.8563 71.4893L30.9504 71.5162L31.2614 71.5335L31.7529 71.5047L31.9046 71.4816L32.2156 71.447L32.3596 71.4336L32.5536 71.424H32.5843L32.6246 71.3895L32.6419 71.3664L32.6534 71.2838L32.6553 71.2358L32.64 71.1015L32.6265 71.0266L32.5804 70.8365L32.5536 70.7328L32.4748 70.4813L32.4326 70.3488L32.3212 70.0339L32.2617 69.8669L32.1196 69.4848L31.8643 68.832L31.6377 68.256M38.016 70.272H39.0355L39.2966 70.2528L39.4176 70.2375L39.6076 70.1837L39.694 70.151L39.8361 70.0512L39.9033 69.9975L40.0204 69.8458L40.1068 69.721L40.2259 69.481L40.2758 69.3619L40.3257 69.1335L40.3411 69.0221L40.3219 68.8109L40.3046 68.7091L40.222 68.521L40.1721 68.4307L40.0262 68.2714L39.9456 68.1946L39.7401 68.0659L39.6307 68.0064L39.3696 67.9162L38.9164 67.8278L38.016 67.7261V70.272Z" fill="black"/>
<path d="M33.9302 47.3126L34.2029 47.3875L34.7232 47.6352L34.9766 47.7754L35.4355 48.1382L36.0192 48.7949L36.5242 49.5245L44.4864 49.5782L52.4467 49.632L44.7034 49.584L43.1443 49.5763L42.1498 49.5744L41.6813 49.5763L40.7674 49.5782L40.3469 49.5802L39.5366 49.5878L39.1757 49.5917L38.4883 49.6013L38.1984 49.607L37.657 49.6205L37.4496 49.6262L37.0752 49.6435L36.9581 49.6512L36.8544 49.6608L36.8218 49.6646L36.768 49.6742L36.7603 49.68L36.6874 49.8125L36.6509 49.9661L36.6394 50.0678L36.6125 50.5325L36.6336 50.8032L36.7046 51.7843L38.5574 51.9072L36.7008 51.7843L35.8694 52.7021L35.639 52.9575L35.1955 53.3587L34.9747 53.5411L34.5331 53.8061L34.3104 53.9232L33.8515 54.0634L33.1181 54.144H32.903L32.4269 54.0403L32.185 53.9731L31.705 53.76L31.4707 53.641L31.0483 53.3491L30.5491 52.8538L30.4474 52.7174L30.2803 52.4967L30.1997 52.3949L30.0595 52.2336L29.9904 52.1587L29.8522 52.0474L29.7811 51.9975L29.6179 51.9302L29.5315 51.9015L29.3203 51.8669L29.207 51.8535L28.921 51.8438L28.7674 51.8419L28.3853 51.8496L27.673 51.8707L27.3926 51.8803L26.7264 51.8918L26.3808 51.8976L25.6531 51.9015L25.2902 51.9034L24.5894 51.8995L23.664 51.8861L21.696 51.84V49.7741L25.7914 49.6358L29.8867 49.4957L30.2458 48.8294L30.3667 48.6048L30.743 48.1939L30.9485 48L31.4477 47.6775L31.7069 47.5296L32.2656 47.328L33.1104 47.1994H33.383M33.0163 49.344L32.6573 49.4727L32.4826 49.5552L32.1696 49.8067L32.0256 49.945L31.8163 50.2675L31.68 50.7744V50.9261L31.7549 51.193L31.8029 51.3216L31.9603 51.5386L32.0467 51.6403L32.2637 51.7997L32.377 51.8707L32.6342 51.9687L32.7648 52.007L33.0394 52.0339L33.1776 52.0378L33.4502 51.9898L33.5846 51.9552L33.8362 51.8227L33.9552 51.7459L34.1626 51.527L34.272 51.3869L34.4429 51.072L34.4794 50.9952L34.5293 50.857L34.56 50.688V50.5363L34.4333 50.2234L34.3526 50.0678L34.1069 49.7895L33.9744 49.6589L33.6672 49.4688L33.193 49.344M60.7238 33.408L61.2979 33.8054L62.425 34.6733L62.9837 35.1187L64.0838 36.0864L62.9856 35.1206L62.425 34.6733L61.2979 33.8054L60.7238 33.408L59.9866 32.9165L60.7238 33.408ZM59.5622 32.6342L59.3414 32.5018L59.5622 32.6342ZM29.8963 16.1683L30.1594 16.2317L30.6432 16.4621L30.8794 16.5946L31.3171 16.9651L31.943 17.6928L32.473 18.432H36.576H40.679L41.2186 17.6352L41.3914 17.3837L41.7792 16.9747L41.9808 16.7866L42.432 16.5043L42.6643 16.3776L43.1789 16.2221L44.0218 16.128H44.2195L44.592 16.1702L44.7763 16.199L45.12 16.2989L45.287 16.3546L45.6 16.5082L45.7517 16.5907L46.032 16.7981L46.1683 16.9075L46.4141 17.1667L46.5331 17.303L46.7424 17.6122L46.8442 17.7734L47.017 18.1344L47.232 18.7277L47.2934 18.937L47.3376 19.3651L47.3491 19.5802L47.2973 20.0122L47.2608 20.2272L47.1226 20.6458L47.0438 20.8531L46.8288 21.2448L46.7117 21.4368L46.4275 21.7862L46.2778 21.9552L45.9341 22.249L45.7555 22.3872L45.36 22.6099L44.7206 22.848L44.5555 22.8883L44.2291 23.0266L44.064 23.1072L43.6954 23.3491L43.5014 23.4854L43.0406 23.8675L42.9178 23.9731L42.647 24.217L42.1958 24.6355L41.9808 24.8371L41.6237 25.1808L41.4547 25.344L41.1859 25.6262L41.0611 25.7626L40.8672 26.0045L40.7789 26.1216L40.6502 26.3443L40.5946 26.4557L40.5216 26.6784L40.4909 26.7917L40.4621 27.0374L40.4525 27.1661L40.4582 27.4541L40.4928 27.9571L40.4947 27.9763L40.5562 28.0109L40.5946 28.0262L40.7328 28.0589L40.8115 28.0742L41.0266 28.105L41.1437 28.1184L41.4394 28.1472L41.5968 28.1606L41.9712 28.1856L42.1594 28.1971L41.8733 28.1894L40.6195 28.1683L39.9955 28.1645L38.7533 28.1606L38.1562 28.1645L36.9869 28.1741L36.4474 28.1837L35.4048 28.2067L34.9517 28.224L34.512 28.2413L34.3123 28.2509L33.9283 28.2701L33.7594 28.2816L33.4368 28.3046L33.3024 28.3181L33.0509 28.343L32.9549 28.3565L32.7802 28.3853L32.7264 28.3987L32.6362 28.4294L32.6266 28.4448L32.5805 28.5869L32.5498 28.7424L32.5363 28.8422L32.4845 29.2992L32.473 29.5584L32.4307 30.5011L40.4544 30.5798L41.9597 30.5952L42.8774 30.6067L43.296 30.6125L44.1062 30.624L44.4768 30.6317L45.193 30.6451L45.5194 30.6547L46.151 30.672L46.439 30.6835L46.9958 30.7046L47.2512 30.7181L47.6198 30.7392L47.2358 30.7181L46.9805 30.7046L46.4198 30.6816L46.1318 30.672L45.4944 30.6547L45.1661 30.6451L44.4442 30.6317L44.0717 30.624L43.2538 30.6125L42.8314 30.6067L41.9078 30.5952L40.391 30.5798L32.3002 30.503L31.8931 31.0752L31.8374 31.1539L31.6685 31.3286L31.5782 31.417L31.3613 31.5974L30.6586 32.0467L30.4627 32.1427L30.0672 32.279L29.8675 32.3405L29.4701 32.4096L29.2723 32.4365L28.8806 32.4422L28.6867 32.4365L28.3085 32.375L28.1203 32.3386L27.7632 32.2157L27.5866 32.1466L27.2563 31.9622L27.095 31.8643L26.8013 31.6205L26.4038 31.1885L25.9104 30.5414L23.8502 30.4858L21.792 30.432V28.32L23.7581 28.2662L25.7242 28.2106L26.0371 27.5942L26.1485 27.3754L26.3674 27.0182L26.4806 26.8512L26.7226 26.5747L26.8512 26.4442L27.1488 26.2176L27.6883 25.8989L27.913 25.7856L28.3565 25.6435L28.5773 25.5859L29.0285 25.5571H29.255L29.7216 25.6454L30.455 25.9027L30.6432 25.9891L31.056 26.281L31.2595 26.4403L31.6397 26.8128L31.8163 27.001L32.0813 27.3658L32.135 27.4522L32.2099 27.6077L32.256 27.8074V27.8515L32.2925 27.9283L32.3174 27.9629L32.4115 28.0243L32.4672 28.0531L32.6285 28.0973L32.7187 28.1184L32.9587 28.151L33.0893 28.1645L33.4176 28.1837L33.5923 28.1914L34.0186 28.199L34.2451 28.201L34.7789 28.199L35.712 28.1837L38.304 28.128L38.3424 26.688L38.3482 26.5325L38.3578 26.2656L38.3635 26.1389L38.3789 25.9258L38.3962 25.7222L38.4538 25.4381L38.4864 25.3114L38.592 25.127L38.8224 24.8928L38.9318 24.8045L39.1968 24.5779L39.3331 24.457L39.6365 24.1824L39.9437 23.9021L40.5715 23.2973L40.7213 23.1514L40.9958 22.8768L41.1264 22.7443L41.3434 22.5178L41.4413 22.4122L41.5776 22.2528L41.664 22.1203V22.0992L41.6218 22.0128L41.5949 21.9648L41.5085 21.8323L41.136 21.3542L40.608 20.7379L37.056 20.7283H36.5683L35.6275 20.7264H35.1725L34.3661 20.7245H34.176H33.84H33.6787L33.4061 20.7264H33.2774H33.0816L32.8858 20.7283L32.7629 20.7302L32.569 20.7571L32.4768 20.7782L32.3309 20.8512L32.2618 20.8954L32.1408 21.0298L31.968 21.312L31.872 21.5002L31.5514 21.863L31.3766 22.0397L30.9389 22.3546L30.7104 22.5043L30.2112 22.7386L29.449 22.9555L29.28 22.9824L28.9536 22.9958H28.7904L28.4794 22.9536L28.3238 22.9267L28.0224 22.825L27.8726 22.7674L27.577 22.6061L27.4291 22.5178L27.1373 22.2931L26.9894 22.1722L26.6957 21.8822L26.5459 21.7267L26.2445 21.3677L25.7818 20.7514L25.7741 20.7398L25.6147 20.7226L25.5149 20.7149L25.2019 20.7053L25.0291 20.7034L24.6048 20.7014L23.8867 20.713L23.6352 20.7187L23.2051 20.7206H23.0035L22.6637 20.7053L22.5043 20.6957L22.247 20.6611L22.1261 20.6419L21.9398 20.5824L21.8534 20.5498L21.7267 20.4614L21.6691 20.4154L21.5942 20.2963L21.5597 20.231L21.5251 20.0774L21.5059 19.801L21.5078 19.632L21.5155 19.3555L21.5213 19.225L21.5501 19.0176L21.5693 18.9235L21.6365 18.7757L21.6768 18.7085L21.7997 18.6106L21.8707 18.5683L22.0646 18.5107L22.1722 18.4858L22.4563 18.457L22.6099 18.4454L22.9958 18.4358L23.712 18.432H25.6819L26.1907 17.7658L26.423 17.4624L26.8704 16.9882L27.0931 16.7731L27.5462 16.464L27.7766 16.3277L28.2624 16.1664L29.0554 16.0723H29.353M48.6086 30.816L48.6278 30.8179L48.6067 30.816M47.7427 30.745L47.9674 30.7622L48.0941 30.7718L47.9578 30.7603L47.735 30.745M28.9786 27.648L28.633 27.7766L28.4621 27.8554L28.1491 28.1011L28.0032 28.2317L27.7901 28.537L27.648 28.9958V29.1667L27.721 29.472L27.769 29.616L27.9206 29.8637L28.0051 29.9808L28.2202 30.1651L28.3334 30.2496L28.5888 30.3648L28.7194 30.4109L28.9978 30.4493L29.1379 30.457L29.4221 30.4109L29.5622 30.3763L29.8291 30.2381L29.9597 30.1574L30.192 29.9232L30.2822 29.8157L30.4032 29.5776L30.4531 29.4566L30.4934 29.2032L30.5069 29.0765L30.4781 28.825L30.455 28.7002L30.3629 28.4621L30.3091 28.3469L30.1613 28.1395L30.0806 28.0416L29.8848 27.8822L29.7792 27.8093L29.5411 27.7094L29.1418 27.648M47.0573 28.4198L47.4682 28.4506L48.2342 28.5293L48.6106 28.5715L49.3171 28.6733L50.0141 28.7808L51.3178 29.0784L53.2934 29.6717L53.9654 29.9021L53.2954 29.6717L51.2966 29.0784L50.6208 28.921L50.2733 28.8518L49.5648 28.7232L49.1923 28.6656L48.4339 28.5619L48.0269 28.5158L47.1936 28.4333L46.7558 28.3987M43.9104 18.1632L43.6147 18.2246L43.4746 18.263L43.2307 18.3917L43.1155 18.4627L42.9312 18.6451L42.8467 18.743L42.7277 18.9658L42.6758 19.081L42.6259 19.3306L42.6106 19.4573L42.6394 19.7184L42.6624 19.849L42.7738 20.1101L43.0406 20.4845L43.1827 20.6323L43.5053 20.8166L43.6704 20.8896L44.0237 20.9184L44.2003 20.9146L44.5536 20.7917L44.7283 20.711L45.0547 20.4346L45.1546 20.3347L45.2947 20.1638L45.3562 20.0813L45.4272 19.92L45.4541 19.8374L45.4656 19.657L45.4253 19.3344L45.383 19.127L45.2563 18.8006L45.1834 18.6528L44.9856 18.4378L44.8762 18.3437L44.5978 18.2304L44.0755 18.1632M28.9325 18.048L28.5715 18.169L28.3968 18.2458L28.0992 18.4896L27.9629 18.6221L27.7709 18.9504L27.648 19.488V19.6051L27.6749 19.8067L27.6941 19.9046L27.7632 20.0755L27.8035 20.1581L27.9206 20.3117L28.153 20.5306L28.3219 20.6611L28.6541 20.8224L28.8173 20.8858L29.1418 20.9069L29.3011 20.9011L29.6102 20.7859L29.7638 20.711L30.0576 20.4576L30.1862 20.327L30.3898 19.9776L30.432 19.8893L30.4915 19.7184L30.528 19.488V19.3325L30.3936 18.9984L30.311 18.8352L30.0538 18.5338L29.9174 18.3917L29.6006 18.1843L29.1226 18.048" fill="#4D008F"/>
<path d="M39.9955 28.1645L40.6195 28.1683L41.8732 28.1894L43.7069 28.2374L44.2752 28.2586L45.3139 28.3066L45.8169 28.3334L46.7424 28.3987L47.1936 28.4333L48.0268 28.5158L48.4339 28.5619L49.1923 28.6656L49.5648 28.7232L50.2732 28.8518L50.6208 28.921L51.2966 29.0784L53.2953 29.6717L53.9654 29.9021L55.2633 30.4205L55.9065 30.6893L57.1526 31.2864L57.7689 31.5974L58.9689 32.281L59.5622 32.6342L60.7238 33.408L61.2979 33.8054L62.4249 34.6733L62.9856 35.1206L64.0838 36.0864L64.631 36.5818L65.71 37.6512L67.3113 39.3734L68.2041 40.3872L69.9456 42.4224L70.368 42.9216L71.1725 43.8835L71.5641 44.3558L72.288 45.241L72.6393 45.6691L73.2576 46.4467L73.4035 46.633L73.6742 46.9805L73.8048 47.1494L74.039 47.4586L74.1523 47.6083L74.35 47.8752L74.4422 48.0038L74.5997 48.2266L74.6707 48.3322L74.782 48.505L74.8972 48.7066L74.9798 48.8774L75.0969 49.1846L75.1488 49.3382L75.2102 49.657L75.2352 49.8221L75.2524 50.2099L75.2352 50.9357L75.214 51.3274L75.0797 52.0627L74.999 52.4218L74.7494 53.0861L74.6112 53.4086L74.254 53.9923L74.064 54.2726L73.6128 54.7661L73.3747 55.0022L72.8352 55.3939L72.5568 55.5782L71.9404 55.8605L71.6236 55.9891L70.9401 56.1523L69.8515 56.2541H69.671L69.335 56.2714L69.1757 56.281L68.9011 56.3155L68.7744 56.3347L68.5862 56.3827L68.4365 56.4672L68.4192 56.496L68.4595 56.6227L68.4902 56.6938L68.615 56.8896L68.688 56.9933L68.8819 57.2333L69.2294 57.6134L70.151 58.5504L75.36 58.656V60.768L48.6316 60.816L47.831 60.8179L46.3008 60.8218H45.5462L44.1081 60.8256H43.4016L42.0518 60.8275L41.3894 60.8294L40.1261 60.8314H39.5059L38.327 60.8333H37.7472L36.6489 60.8352H36.1094H35.0899L34.5888 60.8371H33.6422H33.1795H32.3059L31.8777 60.8352H31.0732H30.6796L29.9404 60.8333H29.5795L28.9036 60.8314L28.5734 60.8294L27.959 60.8275L27.6595 60.8256L27.1027 60.8218L26.832 60.8198L26.3289 60.816L26.0851 60.8141L25.6339 60.8102L25.1961 60.8045L24.4627 60.793L24.119 60.7872L23.5564 60.7718L23.2934 60.7622L22.8787 60.745L22.6867 60.7334L22.3948 60.7123L22.2624 60.7008L22.0704 60.6739L21.9859 60.6586L21.8726 60.6278L21.7747 60.5971L21.7171 60.5184L21.6902 60.4704L21.6518 60.3187L21.6364 60.2381L21.6172 60.0365L21.6384 59.3645L21.7459 58.56H40.4352H42.1747H43.0214L44.5785 58.5581L45.335 58.5562L46.7212 58.5542H47.3932L48.6163 58.5504L49.2077 58.5485L50.2771 58.5447L50.7936 58.5408L51.7209 58.535L52.1664 58.5312L52.9574 58.5254L53.3376 58.5197L54.0038 58.512L54.3206 58.5062L54.8717 58.4947L55.1328 58.4909L55.5782 58.4774L55.7875 58.4698L56.135 58.4544L56.2982 58.4467L56.5574 58.4294L56.6764 58.4218L56.8589 58.4026L56.9414 58.391L57.0547 58.3699L57.1027 58.3584L57.1584 58.3334L57.1814 58.2931L57.1776 58.2739L57.1123 58.1779L57.072 58.1203L56.9395 57.9533L56.8665 57.8611L56.6726 57.6307L56.5709 57.5078L56.3251 57.2237L56.1964 57.0758L55.9085 56.7475L55.7587 56.5786L55.4323 56.2138L54.3532 55.0291L51.5865 52.032L46.0012 52.0301H45.2332L43.6857 52.0205L42.9235 52.0147L41.5123 51.9936L41.1744 51.9878L40.5542 51.9763L40.2528 51.9686L39.7209 51.9552L39.4694 51.9475L39.047 51.9322L38.5612 51.9072L36.7046 51.7843L36.6336 50.8032L36.6124 50.5325L36.6393 50.0678L36.6508 49.9661L36.6873 49.8125L36.7603 49.68L36.768 49.6742L36.8217 49.6646L36.8544 49.6608L36.9581 49.6512L37.0752 49.6435L37.4496 49.6262L37.6569 49.6205L38.1984 49.607L38.4883 49.6013L39.1756 49.5917L39.5366 49.5878L40.3468 49.5802L40.7673 49.5782L41.6812 49.5763L42.1497 49.5744L43.1443 49.5763L44.7033 49.584L52.4486 49.632L53.038 50.304L53.1187 50.3962L53.376 50.6803L53.518 50.8358L53.8637 51.2102L55.0233 52.4448L56.4192 53.9117L63.5846 53.9808L64.0185 53.9846L64.8115 53.9923L65.1955 53.9942L65.8905 54L66.2265 54.0038L66.8332 54.0077L67.1251 54.0096L67.6493 54.0115H67.9027H68.35L68.567 54.0096L68.9472 54.0058L69.1296 54.0038L69.4483 53.9981L69.6 53.9942L69.8649 53.9846L70.1184 53.975L70.4889 53.9424L70.6579 53.9251L70.9017 53.8752L71.0131 53.8483L71.184 53.7792L71.424 53.6544L71.6006 53.5488L71.9155 53.303L72.0672 53.1744L72.3264 52.8864L72.4512 52.7386L72.6528 52.416L72.7469 52.2509L72.8889 51.9053L72.9523 51.7306L73.0291 51.3696L73.0598 51.1891L73.0694 50.8224L73.0656 50.64L73.006 50.2771L72.8294 49.7472L72.8064 49.6934L72.7276 49.5514L72.6835 49.4746L72.5664 49.2922L72.4435 49.1002L72.1094 48.6298L71.9309 48.3859L71.5219 47.8502L70.8672 47.0419L69.2544 45.12H51.0528L50.5612 44.592L50.5267 44.5555L50.3923 44.4058L50.3136 44.3213L50.0966 44.0813L49.9795 43.9507L49.6934 43.632L49.5417 43.463L49.1961 43.0771L49.0156 42.8774L48.6221 42.4378L48.4205 42.2112L47.9884 41.7274L46.6041 40.1779L43.1385 36.2918L32.4787 36.2419L21.8188 36.192L21.6883 35.7043L21.6537 35.5699L21.623 35.1782L21.6499 34.6003L21.7401 33.984H40.5945L42.9254 33.9802L44.0716 33.9782L46.2316 33.9706L46.7596 33.9686L47.7734 33.9648L48.2726 33.9629L49.2288 33.9571L49.6972 33.9533L50.5862 33.9475L51.024 33.9437L51.8419 33.936L52.2412 33.9341L52.9824 33.9264L53.3433 33.9226L54 33.913L54.3187 33.9091L54.887 33.8995L55.1597 33.8957L55.632 33.8861L55.8566 33.8803L56.2272 33.8707L56.4 33.8669L56.663 33.8554L56.782 33.8515L56.9318 33.84L57.024 33.8246V33.7997L56.8934 33.6979L56.8089 33.6403L56.5382 33.4848L56.3904 33.4003L56.014 33.2064L55.8182 33.1066L55.3747 32.8915L54.9216 32.6726L53.9654 32.2502L53.7331 32.1523L53.3049 31.9795L52.7462 31.7741L52.3526 31.6435L51.6614 31.4246L51.3273 31.3229L50.6918 31.1578L50.375 31.079L49.7145 30.9581L49.3747 30.9005L48.6086 30.816L48.4051 30.7949L47.9673 30.7622L47.7427 30.745L47.2512 30.7181L46.9958 30.7046L46.439 30.6835L46.151 30.672L45.5193 30.6547L45.1929 30.6451L44.4768 30.6317L44.1062 30.624L43.296 30.6125L42.8774 30.6067L41.9596 30.5952L40.4544 30.5798L32.4307 30.5011L32.4729 29.5584L32.4844 29.2992L32.5363 28.8422L32.5497 28.7424L32.5805 28.5869L32.6265 28.4448L32.6361 28.4294L32.7264 28.3987L32.7801 28.3853L32.9548 28.3565L33.0508 28.343L33.3024 28.3181L33.4368 28.3046L33.7593 28.2816L33.9283 28.2701L34.3123 28.2509L34.512 28.2413L34.9516 28.224L35.4048 28.2067L36.4473 28.1837L36.9868 28.1741L38.1561 28.1645L38.7532 28.1606M61.7107 56.256L61.2038 56.2579L60.9619 56.2598L60.5452 56.2675L60.3475 56.2714L60.0153 56.2848L59.8579 56.2906L59.6025 56.3078L59.4854 56.3174L59.3011 56.3405L59.2166 56.352L59.0976 56.3808L59.0438 56.3981L58.9824 56.4326L58.9478 56.496V56.5287L59.0169 56.6611L59.0592 56.736L59.2012 56.9338L59.278 57.0374L59.4739 57.2755L59.806 57.648L60.6624 58.56H64.1625L64.9344 58.5485L65.3011 58.5408L65.9117 58.5158L66.0518 58.5101L66.288 58.4947L66.3993 58.487L66.574 58.4698L66.6509 58.4602L66.7526 58.4429L66.7949 58.4333L66.816 58.4122V58.393L66.7469 58.2758L66.7027 58.2067L66.5587 58.0128L66.478 57.9091L66.2784 57.6634L65.9366 57.2602L65.0572 56.256M41.472 46.08H31.1635H30.2169H29.7561L28.9056 46.0781L28.4928 46.0762L27.7324 46.0742L27.3638 46.0723L26.6918 46.0704L26.3654 46.0685L25.7741 46.0627L25.488 46.0608L24.9715 46.055L24.7238 46.0512L24.2803 46.0435L24.0672 46.0397L23.6908 46.0301L23.5104 46.0262L23.1955 46.0147L23.0457 46.009L22.7884 45.9955L22.5446 45.9821L22.2067 45.9494L22.0608 45.9322L21.888 45.8899L21.8188 45.8669L21.7747 45.8131L21.7593 45.7766L21.7382 45.6442L21.7305 45.5693L21.719 45.3792L21.7324 44.7091L21.792 43.872L31.632 43.8221L41.472 43.7722M53.712 36.2842H53.2012L52.2182 36.2861L51.7344 36.288L50.8224 36.2918L50.3789 36.2957L49.559 36.3014L49.1635 36.3053L48.4569 36.313L48.1209 36.3187L47.5469 36.3283L47.2781 36.3322L46.8595 36.3437L46.6694 36.3494L46.4236 36.361L46.272 36.3802V36.3878L46.3296 36.4666L46.368 36.5165L46.4947 36.6701L46.5638 36.7546L46.75 36.9715L46.848 37.0867L47.0822 37.3574L47.2051 37.4995L47.4777 37.8106L47.6179 37.9718L47.9212 38.3155L48.2304 38.665L48.8947 39.4099L49.2288 39.7843L49.8854 40.5139L50.206 40.8691L50.7782 41.497L50.9126 41.6429L51.1507 41.9021L51.2659 42.025L51.456 42.2266L51.5443 42.3206L51.6787 42.457L51.8035 42.576L51.815 42.5856L51.8803 42.6029L51.9187 42.6106L52.0377 42.6278L52.1683 42.6451L52.5715 42.6739L52.7942 42.6893L53.3606 42.7162L53.662 42.7277L54.3648 42.7507L54.7296 42.7603L55.5379 42.7795L55.9526 42.7872L56.8377 42.8006L57.7363 42.8141L59.639 42.8256L60.5913 42.8314L62.4249 42.8237L62.8685 42.8218L63.7037 42.8122L64.1088 42.8083L64.846 42.793L65.1993 42.7853L65.8099 42.7661L66.0979 42.7565L66.5529 42.7315L66.7584 42.72L67.031 42.6893L67.0867 42.6816L67.1577 42.6662L67.1846 42.6566L67.2 42.6394V42.6278L67.1385 42.5414L67.0982 42.4877L66.9619 42.3264L66.8851 42.2381L66.6816 42.0115L66.5721 41.8906L66.311 41.6064L66.1747 41.4586L65.8637 41.1264L65.7024 40.9555L65.351 40.585L64.176 39.3715L61.152 36.2784M41.4336 39.984L41.4912 41.088H21.6768L21.792 38.88H41.376L41.4336 39.984Z" fill="black"/>
<path d="M35.8291 79.4074L35.8598 79.3248L35.9654 79.1942L36.1325 79.104H36.1958L36.2496 79.1731L36.2649 79.2154L36.2381 79.3344L36.2169 79.3939L36.1267 79.513L35.9405 79.6358L35.8694 79.6589L35.8041 79.609L35.7849 79.5706M10.08 79.296L10.0013 79.2768L9.88222 79.2365L9.83038 79.2192L9.77278 79.1866L9.74974 79.1712L9.7555 79.1462L9.83998 79.127L9.9091 79.1213L10.007 79.0733L10.0531 79.0406L10.1107 78.9158L10.1357 78.841L10.1625 78.6106L10.176 78.1171V77.9386L10.1568 77.6467L10.1453 77.5123L10.0992 77.2973L10.0723 77.1994L9.9955 77.0477L9.83998 76.8749L9.76702 76.8192L9.69214 76.7405L9.66718 76.7059L9.70942 76.6637L9.7459 76.6464L9.92446 76.6291L10.368 76.6195H10.5581L10.8115 76.6291L10.9209 76.6349L11.0265 76.6637L11.0649 76.681L11.0438 76.7405L10.896 76.8749L10.8384 76.919L10.7443 77.0707L10.7001 77.1552L10.6329 77.3702L10.5734 77.5949L10.5369 78.119L10.535 78.2477L10.5523 78.4896L10.5638 78.6067L10.6099 78.8045L10.6368 78.8947L10.7117 79.0234L10.8595 79.104H10.9421L11.0361 79.1597L11.04 79.296L11.0073 79.3478L10.9517 79.415L10.9209 79.44L10.8211 79.4534H10.7616L10.5619 79.415L10.4429 79.3882M17.9251 79.2634L17.8233 79.2134L17.6217 79.031L17.5257 78.9274L17.3529 78.6739L17.2742 78.5434L17.1609 78.265L17.088 77.8733V77.8387L17.1187 77.735L17.1398 77.6794L17.2051 77.545L17.4854 77.113L17.6102 76.9555L17.9443 76.7462L18.119 76.6618L18.5069 76.6003L18.7027 76.5888L19.0848 76.681L19.584 76.992L19.7261 77.1341L19.895 77.4912L19.9603 77.6755L19.9757 78.0691L19.9641 78.263L19.8297 78.6317L19.463 79.0906L19.3229 79.1981L19.0771 79.344L18.9542 79.4035L18.72 79.4534L18.6029 79.4669L18.3513 79.4246L18.2208 79.3939M19.2326 78.7872L19.3497 78.6797L19.4957 78.3936L19.5533 78.2438L19.5782 77.9251L19.5763 77.7677L19.4841 77.4874L19.2134 77.1917L19.0656 77.111L18.7833 77.0285L18.6451 76.9997L18.3917 77.0131L18.2688 77.0323L18.0499 77.1437L17.7715 77.4182L17.6717 77.5603L17.5526 77.7946L17.5065 77.9078L17.4912 78.1075L17.4989 78.2054L17.5929 78.4013L17.856 78.72L17.9731 78.8371L18.2035 78.9869L18.3168 79.0483L18.5453 79.0867L18.6585 79.0925L18.887 79.0195L19.0003 78.9696M28.32 79.2845L28.2413 79.2653L28.1222 79.2307L28.0704 79.2134L28.0128 79.1827L27.9897 79.1674L27.9955 79.1462L28.08 79.127L28.1491 79.1213L28.2489 79.0733L28.2931 79.0387L28.3526 78.9062L28.3757 78.8275L28.4025 78.5798L28.416 78.048V77.8445L28.4025 77.5411L28.3929 77.4048L28.3545 77.2166L28.3334 77.1341L28.2662 77.0438L28.128 76.992H28.0493L27.9245 76.9363L27.84 76.8V76.7731L27.8937 76.7251L27.9264 76.7021L28.0377 76.6637L28.512 76.608H28.6963L28.9862 76.6637L29.0477 76.681L29.1302 76.7251L29.184 76.8V76.8518L29.1283 76.9363L28.992 76.992H28.9574L28.9017 77.0803L28.8768 77.1379L28.8403 77.3165L28.8077 77.5104L28.8 78.0346L28.8057 78.2995L28.8653 78.7718L28.8864 78.8755L28.9363 79.0291L29.0304 79.1482L29.088 79.1674L29.1552 79.2038L29.1801 79.2211L29.1917 79.2538L29.1897 79.2826L29.0573 79.3229L28.9747 79.3382L28.7328 79.3402L28.6041 79.3344M30.624 79.271L30.3897 79.1405L30.0653 78.8275L29.927 78.6662L29.7965 78.3034L29.7561 78.119L29.8253 77.7235L30.1574 77.113L30.2573 76.9882L30.4915 76.8096L30.6125 76.7328L30.8793 76.6445L31.0137 76.6118L31.2902 76.608L31.4285 76.6138L31.6953 76.6867L31.8259 76.7309L32.0621 76.873L32.1753 76.9517L32.3635 77.1552L32.448 77.2646L32.5651 77.5238L32.64 77.9674V78.0941L32.5881 78.3341L32.5536 78.4512L32.4441 78.6662L32.3827 78.768L32.2233 78.9504L32.1408 79.0349L31.9469 79.177L31.8489 79.2403L31.632 79.3325L31.5225 79.3728L31.2941 79.4093L31.1808 79.4189L30.9523 79.392L30.839 79.369M31.8297 78.8045L31.9565 78.7162L32.1216 78.4954L32.1907 78.3802L32.2387 78.1248L32.2483 77.9942L32.1792 77.7274L31.9392 77.3434L31.8393 77.2339L31.6109 77.0957L31.4937 77.0381L31.2403 77.0054L31.1136 77.0035L30.8601 77.0784L30.4953 77.3088L30.3801 77.4125L30.24 77.6371L30.1843 77.7523L30.1613 77.9904L30.1632 78.1114L30.2573 78.3552L30.528 78.72L30.6432 78.8352L30.8467 78.983L30.9465 79.0445L31.1405 79.0848L31.2384 79.0906L31.4534 79.0234L31.5648 78.9773M38.1811 79.0886L38.0832 79.0003L37.9584 78.8832L37.9065 78.8333L37.8739 78.7814L37.8701 78.7642L37.9277 78.768L38.112 78.8256L38.3001 78.8928L38.6093 78.9658L38.7513 78.9907L38.9702 78.9773L39.0662 78.96L39.1891 78.864L39.264 78.6259V78.5587L39.2333 78.4454L39.2121 78.3936L39.1334 78.311L39.0893 78.2707L38.9606 78.2112L38.7091 78.1459L38.5325 78.1152L38.2502 77.9866L38.1216 77.9136L37.9507 77.7216L37.8797 77.6198L37.8374 77.3933L37.9411 77.04L38.0102 76.9286L38.2637 76.7731L38.4019 76.7078L38.7264 76.6522L38.8915 76.6368L39.1987 76.6867L39.5481 76.8902L39.6307 76.992L39.7037 77.1456L39.7248 77.2128L39.6825 77.2915L39.648 77.3184L39.5097 77.305L39.2121 77.1667L39.1065 77.1014L38.8685 77.0458L38.7494 77.0285L38.5305 77.0592L38.4288 77.0842L38.2925 77.1859L38.2483 77.401L38.2579 77.4317L38.3289 77.5027L38.3712 77.5392L38.4941 77.6179L38.9837 77.833L39.1142 77.8752L39.3081 77.9616L39.3965 78.0077L39.5213 78.1133L39.5769 78.1709L39.648 78.311L39.7094 78.576L39.7209 78.6816L39.7171 78.8448L39.7094 78.9197L39.6557 79.0368L39.623 79.0906L39.5097 79.1789L39.264 79.296L39.1046 79.3574L38.8992 79.4323L38.8089 79.4592H38.6822L38.6189 79.4458L38.4845 79.3517L38.4077 79.2922M45.36 79.3613L45.3197 79.344L45.2544 79.2346L45.2256 79.1674L45.1795 78.9562L45.1603 78.8371L45.1353 78.5222L45.12 77.9366V76.608H45.888H46.0992L46.4294 76.6637L46.5005 76.681L46.5945 76.7251L46.656 76.8V76.8269L46.6137 76.8749L46.5849 76.8979L46.4966 76.9363L46.1126 76.992H45.9513L45.7171 77.017L45.6134 77.0362L45.4848 77.1034L45.431 77.1418L45.3965 77.257L45.4425 77.4912L45.456 77.5277L45.5251 77.5949L45.5654 77.6275L45.6787 77.6813L46.1011 77.76H46.1952L46.3469 77.7754L46.4179 77.785L46.5197 77.8157L46.6099 77.8483L46.6406 77.9424L46.6329 77.9904L46.4755 78.0826L46.032 78.1805L45.9129 78.192L45.7344 78.2266L45.6537 78.2477L45.5424 78.3091L45.4925 78.3437L45.4387 78.4378L45.408 78.624V78.697L45.4406 78.8122L45.4637 78.8659L45.552 78.9466L45.6038 78.985L45.7593 79.0426L46.08 79.1098L46.2374 79.1328L46.4409 79.1674L46.5235 79.1846L46.583 79.2154L46.5945 79.2307L46.5216 79.2691L46.272 79.3459L46.1395 79.3843L45.9533 79.4323L45.8688 79.4515L45.744 79.463H45.6845L45.5712 79.4381L45.5117 79.4208M54.192 79.2902L54.0729 79.2422L53.8867 79.1098L53.76 78.9178V78.8525L53.8041 78.7738L53.831 78.7411L53.9193 78.7277L53.9673 78.7296L54.0845 78.7814L54.2784 78.9312L54.3456 78.9984L54.551 79.0464L54.6585 79.056L54.8889 79.008L54.9984 78.9734L55.175 78.8544L55.296 78.6182V78.5818L55.2365 78.4973L55.1981 78.455L55.0733 78.3686L54.528 78.144L54.3744 78.1018L54.1478 78.023L54.0461 77.9808L53.9117 77.8886L53.8541 77.8406L53.7926 77.7197L53.76 77.4874V77.3645L53.8406 77.1034L54.0365 76.8096L54.1382 76.7251L54.4166 76.6464L54.5625 76.6214L54.8678 76.6483L55.0137 76.6733L55.2557 76.7904L55.4553 77.0515L55.4688 77.1264L55.4765 77.2243L55.4745 77.2646L55.4438 77.2973L55.4208 77.305L55.3382 77.2762L55.1462 77.1648L55.0425 77.1014L54.7891 77.0362L54.4569 77.0515L54.3206 77.1034L54.1843 77.2416L54.1382 77.3146L54.1766 77.4701L54.215 77.5488L54.4089 77.6947L54.864 77.8694L55.0848 77.9251L55.3939 78.0998L55.5245 78.1978L55.6473 78.4301L55.6838 78.551L55.6089 78.8083L55.5782 78.8717L55.4765 78.9984L55.2633 79.1808L55.1405 79.2672L54.9715 79.3786L54.8928 79.4227L54.7641 79.4534L54.6969 79.4611L54.5376 79.4208L54.4493 79.3939M56.688 79.2538L56.592 79.2077L56.4595 79.104L56.4019 79.0464L56.3289 78.8736L56.2982 78.7738L56.2694 78.4762L56.2637 78.3917L56.2598 78.1882L56.256 77.8272V77.6563L56.2713 77.3472L56.2809 77.2013L56.3117 76.9613L56.3289 76.8518L56.3731 76.7021L56.448 76.608H56.4749L56.5229 76.6963L56.5459 76.7539L56.5843 76.9402L56.6016 77.0438L56.6246 77.303L56.64 77.7466V77.9885L56.6534 78.3379L56.6649 78.4934L56.7091 78.7027L56.736 78.793L56.8262 78.9024L57.0221 79.008L57.1737 79.056L57.3984 79.0637L57.5001 79.0522L57.6345 78.9178L57.6941 78.8314L57.7574 78.528L57.7689 78.4416L57.7843 78.2304L57.792 77.856V77.5718L57.8477 77.0918L57.8649 76.9862L57.9091 76.8307L57.984 76.704L58.0147 76.6848L58.0646 76.7405L58.0877 76.7827L58.1261 76.9517L58.1414 77.0496L58.1625 77.3242L58.176 77.8502V77.9962L58.1741 78.2438L58.1721 78.359L58.1645 78.5491L58.1529 78.7277L58.103 78.9523L58.0685 79.0483L57.9552 79.1654L57.6825 79.2998L57.5481 79.3517L57.3254 79.4285L57.1545 79.4746L57.1449 79.4707L57.0029 79.4054L56.9184 79.3651M59.1187 79.1194L59.0573 79.0656L58.967 78.9754L58.9267 78.9331L58.8825 78.8621L58.8499 78.7968L58.9017 78.7373L58.9459 78.72L59.1283 78.7622L59.52 78.9562L59.5987 79.0061L59.7235 79.0618L59.7849 79.0848L59.8905 79.0829L59.9424 79.0771L60.0499 79.0157L60.2361 78.8525L60.311 78.7795L60.4051 78.6701L60.4435 78.6182L60.4685 78.5414L60.4723 78.505L60.4281 78.4397L60.288 78.3322L60.2093 78.2822L59.9597 78.2016L59.5757 78.1478L59.4547 78.1459L59.2358 78.0461L59.1341 77.9827L58.9766 77.7926L58.9075 77.6909L58.8384 77.4547L58.8691 77.0995L58.9017 77.017L59.0093 76.8864L59.0688 76.8269L59.2224 76.7405L59.3817 76.6656L59.7677 76.6445L59.9577 76.656L60.3072 76.8L60.3859 76.8461L60.5126 76.969L60.6432 77.1974L60.6624 77.255L60.6777 77.328L60.6816 77.3568L60.6605 77.3741L60.6451 77.376L60.5798 77.3376L60.4262 77.2166L60.3283 77.1379L60.0749 77.0534L59.9462 77.0227L59.6832 77.0323L59.5584 77.0477L59.3645 77.1398L59.232 77.3645V77.401L59.28 77.4835L59.3107 77.5238L59.4086 77.6045L59.831 77.7946L60.0384 77.8483L60.3494 77.9866L60.4896 78.0595L60.6662 78.2362L60.7373 78.3302L60.7776 78.5434L60.6777 78.9005L60.6201 79.008L60.4781 79.1789L60.2976 79.296H60.2496L60.0979 79.3267L59.856 79.3997L59.8176 79.415L59.7139 79.4112L59.6563 79.4035L59.5277 79.3613L59.3933 79.3094M80.5248 79.2634L80.4979 79.2192L80.5133 79.1501L80.6285 79.104H80.6592L80.711 79.0253L80.7341 78.9754L80.7744 78.8064L80.7936 78.7123L80.8166 78.4723L80.832 78.048V77.9021L80.8166 77.6371L80.807 77.5123L80.7763 77.303L80.759 77.207L80.7149 77.0746L80.64 76.992H80.5862L80.5037 76.9363L80.448 76.8V76.7731L80.5017 76.7251L80.5344 76.7021L80.6457 76.6637L81.12 76.608H81.3043L81.5942 76.6637L81.6557 76.681L81.7382 76.7251L81.792 76.8V76.8518L81.7075 76.9363L81.504 76.992H81.4502L81.3638 77.0707L81.3254 77.1226L81.2678 77.2819L81.216 77.4586L81.1949 77.9405L81.1987 78.1843L81.2851 78.6432L81.312 78.745L81.3888 78.9101L81.5309 79.0694L81.5942 79.104L81.6595 79.1597L81.6825 79.1866L81.6614 79.2269L81.6384 79.248L81.5232 79.2826L81.2333 79.3344L81.0662 79.3594L80.7744 79.3498L80.7091 79.344L80.6112 79.319L80.567 79.3037M11.712 77.952V77.7677L11.7273 77.4298L11.735 77.2704L11.7657 77.0035L11.783 76.8806L11.8233 76.7136L11.8944 76.608H11.9193L12.0153 76.679L12.0691 76.727L12.2093 76.8768L12.2841 76.9594L12.4512 77.1667L12.7104 77.52L13.344 78.432L13.4016 77.52L13.4131 77.3434L13.4457 77.0707L13.4649 76.9478L13.5072 76.7789L13.5283 76.7078L13.5763 76.6387L13.5993 76.6157L13.6473 76.6406L13.6704 76.6656L13.7145 76.7808L13.7357 76.848L13.7702 77.0496L13.7875 77.161L13.8105 77.4432L13.824 77.952V78.1363L13.8086 78.4742L13.8009 78.6336L13.7702 78.9005L13.7529 79.0234L13.7126 79.1904L13.6416 79.296H13.6166L13.5206 79.225L13.4669 79.177L13.3267 79.0272L13.2518 78.9446L13.0848 78.7373L12.8256 78.384L12.192 77.472L12.1344 78.384L12.1229 78.5606L12.0902 78.8333L12.071 78.9562L12.0288 79.1251L12.0077 79.1962L11.9597 79.2653L11.9366 79.2883L11.8886 79.2634L11.8656 79.2384L11.8214 79.1232L11.8003 79.056L11.7657 78.8544L11.7485 78.743L11.7254 78.4608L11.7177 78.311M14.592 77.952V77.7677L14.6035 77.4298L14.6112 77.2704L14.6342 77.0035L14.6477 76.8806L14.6803 76.7136L14.736 76.608H14.7552L14.8358 76.6771L14.88 76.7213L14.9971 76.8614L15.4253 77.472L15.575 77.7101L15.8592 78.0826L15.9225 78.1613L16.0281 78.2688L16.1357 78.336H16.1568L16.2048 78.265L16.2278 78.217L16.272 78.0672L16.3699 77.424L16.3776 77.3376L16.391 77.2013L16.3968 77.1398L16.4064 77.0554L16.4121 77.0208L16.4217 76.9901L16.4256 76.9805L16.4352 77.0054L16.439 77.0227L16.4467 77.1014L16.4505 77.1475L16.4582 77.2838L16.4601 77.3568L16.4678 77.5507L16.4774 77.904L16.4813 78.096L16.4793 78.4435L16.4755 78.6106L16.4601 78.8851L16.4505 79.0099L16.4217 79.1827L16.368 79.2902L16.3488 79.2883L16.2624 79.2154L16.2144 79.1693L16.0838 79.0195L16.0147 78.937L15.8534 78.7296L15.6019 78.3782L14.9779 77.472V78.384V78.5088L14.9606 78.7373L14.951 78.8467L14.9203 79.0272L14.903 79.1117L14.8589 79.225L14.784 79.296H14.7571L14.7072 79.1942L14.6841 79.127L14.6477 78.912L14.6304 78.793L14.6073 78.4858L14.5977 78.3245M21.1373 78.864L21.1161 78.8045L21.0489 78.6374L21.0144 78.5491L20.9299 78.3398L20.663 77.689L20.5747 77.4778L20.4576 77.1629L20.4077 77.0208L20.3693 76.8307L20.3577 76.7482L20.3923 76.6579L20.5248 76.608H20.5478L20.6189 76.6829L20.6573 76.7328L20.7475 76.8902L20.7955 76.9766L20.8953 77.1955L21.0432 77.568L21.0893 77.7005L21.1853 77.9405L21.2333 78.0557L21.3197 78.2458L21.3619 78.3322L21.431 78.4531L21.504 78.528H21.5193L21.5769 78.4531L21.6077 78.4032L21.6883 78.2458L21.7286 78.1594L21.8227 77.9405L21.9648 77.568L22.0128 77.4355L22.1145 77.1955L22.1645 77.0803L22.2643 76.8902L22.3123 76.8038L22.3968 76.6829L22.4966 76.608H22.5485L22.5907 76.7021L22.6003 76.7674L22.5523 77.0074L22.5158 77.1475L22.3699 77.5565L22.3257 77.6698L22.2221 77.9328L22.0339 78.384L21.9801 78.5107L21.8841 78.72L21.8361 78.8198L21.7497 78.9754L21.7075 79.0464L21.6288 79.1501L21.5904 79.1942L21.5193 79.2461L21.4829 79.2634H21.4176L21.3849 79.2557L21.3216 79.2038L21.2601 79.1405M22.9421 78.96L22.9613 78.9139L23.0265 78.7488L23.0611 78.6586L23.1533 78.4243L23.472 77.6102L23.5257 77.4701L23.639 77.2205L23.6966 77.1034L23.8041 76.9114L23.8579 76.825L23.9481 76.7136L24.0518 76.6579L24.0845 76.6675L24.1766 76.7866L24.2265 76.8595L24.3437 77.0765L24.4646 77.3126L24.7181 77.927L24.7776 78.0826L24.8851 78.384L24.935 78.5318L25.0118 78.793L25.0464 78.9139L25.079 79.1002L25.0656 79.2557L25.0291 79.2922L24.9158 79.2518L24.7449 79.0541L24.6854 78.9504L24.4416 78.8141L24.3072 78.7584L23.9942 78.7219L23.8368 78.7181L23.5603 78.7853L23.4969 78.8083L23.399 78.8755L23.3011 79.008L23.2704 79.0867L23.1667 79.2115L22.9997 79.296H22.9459L22.9017 79.1981L22.8921 79.1366M24.3801 78.096V78.0307L24.3302 77.8483L24.2093 77.5891L24.1766 77.5373L24.1171 77.4758L24.0883 77.4528L24.0326 77.4566L24.0038 77.4662L23.9405 77.5373L23.8291 77.7216L23.7561 77.8579L23.6697 78.0461L23.639 78.1306V78.2323L23.6505 78.2746L23.7446 78.3168L24 78.336H24.1056L24.2707 78.265L24.3398 78.2227M26.256 79.0406L26.2368 78.9927L26.2003 78.8371L26.183 78.7527L26.1542 78.5434L26.112 77.8406V77.6602L26.0985 77.4048L26.087 77.2915L26.0429 77.1456L26.0141 77.0842L25.9257 77.0227L25.728 76.992H25.6224L25.4573 76.9363L25.344 76.8V76.7731L25.4265 76.7251L25.4803 76.7021L25.655 76.6637L25.7491 76.6464L25.9891 76.6234L26.4 76.608H26.6592L27.0547 76.656L27.1411 76.6714L27.2774 76.7078L27.3389 76.729L27.4195 76.7712L27.4541 76.7942L27.4752 76.8403L27.4771 76.8634L27.4329 76.9094L27.4003 76.9325L27.2851 76.9747L27.024 77.0266L26.928 77.04L26.7936 77.0957L26.7321 77.1341L26.6496 77.2742L26.6112 77.3587L26.5613 77.6294L26.496 78.24L26.4806 78.432L26.4441 78.7219L26.4269 78.8506L26.3885 79.0157L26.3673 79.0829L26.3251 79.1213L26.3021 79.127M33.216 77.952V77.7677L33.2294 77.4298L33.239 77.2704L33.2678 77.0035L33.2832 76.8806L33.3235 76.7136L33.3907 76.608H33.4137L33.5021 76.6752L33.5501 76.7194L33.6729 76.8614L34.1107 77.472L34.2605 77.7101L34.5389 78.0826L34.6003 78.1594L34.7001 78.2669L34.8 78.336H34.8192L34.8557 78.2669L34.8729 78.2246L34.9017 78.0826L34.944 77.472V77.2339L34.9997 76.8614L35.0169 76.7827L35.0611 76.6771L35.136 76.608H35.1629L35.2128 76.7098L35.2358 76.777L35.2723 76.992L35.2896 77.111L35.3126 77.4182L35.328 77.952V78.1478L35.3126 78.4934L35.3049 78.6566L35.2723 78.9197L35.255 79.0368L35.2109 79.1962L35.1321 79.296H35.1053L35.0073 79.2269L34.9517 79.1808L34.8115 79.0368L34.3161 78.4128L33.696 77.5315L33.6384 78.4128L33.6269 78.5875L33.5923 78.8544L33.575 78.9734L33.5328 79.1366L33.5117 79.2058L33.4637 79.271L33.4406 79.2922L33.3926 79.2634L33.3696 79.2365L33.3254 79.1194L33.3043 79.0502L33.2697 78.8486L33.2525 78.7373L33.2294 78.457L33.2217 78.3072M40.128 79.2019V79.1654L40.1721 79.008L40.2009 78.9178L40.2893 78.6758L40.3891 78.4186L40.656 77.7965L40.7251 77.6429L40.8595 77.353L40.9267 77.2128L41.0477 76.9728L41.1053 76.8634L41.1955 76.7078L41.2819 76.608H41.3069L41.3894 76.7174L41.4336 76.7866L41.5469 77.0054L41.6064 77.1264L41.7331 77.4163L41.7984 77.568L41.927 77.8906L41.9904 78.0538L42.1056 78.3725L42.1593 78.528L42.2438 78.8045L42.2822 78.9331L42.3225 79.1251L42.3187 79.2806L42.2899 79.3114L42.1881 79.2595L42.0249 79.0541L41.9654 78.9504L41.7216 78.8141L41.5872 78.7584L41.2742 78.7219L41.1168 78.7181L40.8403 78.7853L40.7769 78.8083L40.679 78.8755L40.5811 79.008L40.5561 79.0733L40.4678 79.1808L40.4198 79.2288L40.3161 79.2864L40.2662 79.3075L40.1837 79.3018L40.1491 79.2883M41.5565 77.904L41.52 77.7811L41.4528 77.6006L41.4221 77.5219L41.3645 77.4202L41.3376 77.3798L41.2857 77.3549L41.207 77.3914L41.1878 77.4144L41.1187 77.5757L41.0035 77.904L40.9747 77.9923L40.9536 78.121L40.9478 78.1786L40.9747 78.2534L40.9939 78.2842L41.0803 78.3187L41.28 78.336H41.3645L41.4797 78.3187L41.5315 78.3053L41.5853 78.2534L41.6064 78.2208V78.121L41.6025 78.0634M42.9254 78.8966L42.9062 78.8294L42.8774 78.6374L42.864 78.5357L42.8486 78.2976L42.8505 77.5526L42.912 76.704L43.728 76.6445L43.8489 76.6368L44.0582 76.6349L44.1581 76.6387L44.3174 76.6579L44.3885 76.6714L44.4845 76.7117L44.544 76.7885V76.8173L44.4979 76.8672L44.4691 76.8922L44.375 76.9325L43.968 76.992H43.8566L43.6896 77.0093L43.6147 77.0227L43.511 77.0726L43.4688 77.1014L43.4189 77.1898L43.392 77.376V77.447L43.4169 77.5546L43.4342 77.6045L43.4995 77.6736L43.5379 77.7043L43.6493 77.7389L43.872 77.76H44.0045L44.2118 77.8157L44.352 77.952V78.0038L44.2118 78.0883L43.8777 78.144H43.7837L43.6377 78.1728L43.5705 78.192L43.4649 78.2726L43.4169 78.3206L43.3363 78.4646L43.2307 78.768L43.0598 79.392L42.9254 78.8966ZM47.808 78.144V78.0154L47.8061 77.8003L47.8041 77.6986L47.7965 77.5315L47.7869 77.376L47.7446 77.184L47.7177 77.1034L47.6275 77.0285L47.424 76.992H47.3184L47.1533 76.9363L47.04 76.8V76.7731L47.136 76.7251L47.1993 76.7021L47.4029 76.6637L47.5142 76.6464L47.8003 76.6234L48.2976 76.608H48.4454L48.695 76.6099L48.8121 76.6118L49.0041 76.6214L49.1846 76.633L49.4208 76.6906L49.5245 76.729L49.6704 76.8634L49.8816 77.1821L49.9699 77.3414L50.1408 77.5891L50.1792 77.641L50.2406 77.712L50.304 77.7581H50.3174L50.3673 77.712L50.3942 77.6832L50.4672 77.5891L50.7264 77.1821L50.8166 77.0246L51.0201 76.777L51.0681 76.7251L51.1565 76.6541L51.264 76.608H51.2928L51.3062 76.6733V76.7155L51.2678 76.8518L51.2429 76.9286L51.1565 77.1168L50.9837 77.4413L50.8493 77.6698L50.64 78.1786L50.5958 78.3014L50.5344 78.5203L50.496 78.7853V78.9254L50.4403 79.1462L50.304 79.296H50.2771L50.2291 79.2538L50.2061 79.2269L50.1677 79.1405L50.112 78.7642V78.6912L50.0755 78.503L50.0505 78.4051L49.9737 78.1862L49.6416 77.5411L49.5456 77.401L49.3862 77.1994L49.3094 77.111L49.1673 77.0035L49.0963 76.9594L48.9465 76.9248L48.6816 76.944L48.5664 76.9651L48.4109 77.0227L48.3437 77.0592L48.2649 77.1898L48.2323 77.2723L48.2035 77.5411L48.1997 77.6198L48.1939 77.8138L48.192 78.167V78.3226L48.1766 78.6067L48.167 78.7411L48.1363 78.9658L48.119 79.0675L48.0749 79.2077L48 79.296H47.9731L47.9251 79.2058L47.9021 79.1482L47.8637 78.96L47.8464 78.8563L47.8233 78.5933L47.8137 78.455M61.824 78.144V78.0154L61.8221 77.8003L61.8201 77.6986L61.8125 77.5315L61.8029 77.376L61.7606 77.184L61.7337 77.1034L61.6435 77.0285L61.44 76.992H61.3344L61.1693 76.9363L61.056 76.8V76.7731L61.1405 76.7251L61.1942 76.7021L61.3689 76.6637L61.4669 76.6464L61.7088 76.6234L62.1235 76.608H62.2886L62.5613 76.6214L62.688 76.6291L62.8742 76.6598L62.9549 76.6752L63.0489 76.7194L63.072 76.8L63.0393 76.8518L62.8781 76.9363L62.5805 76.992H62.4979L62.3846 77.0304L62.3347 77.0592L62.2713 77.1878L62.2445 77.2685L62.2195 77.5373L62.208 78.144V78.3034L62.1926 78.5933L62.183 78.7315L62.1523 78.96L62.135 79.0637L62.0909 79.2058L62.016 79.296H61.9891L61.9411 79.2058L61.9181 79.1482L61.8797 78.96L61.8624 78.8563L61.8393 78.5933L61.8297 78.455M63.5789 78.288L63.6902 78.0115L63.8918 77.4758L63.9379 77.353L64.0109 77.1494L64.08 76.9363L64.1069 76.8422L64.2086 76.7136L64.3833 76.6618L64.416 76.6714L64.5177 76.8L64.5715 76.8787L64.7001 77.111L64.8307 77.3626L65.111 78.0134L65.1763 78.1747L65.2915 78.4858L65.3453 78.6374L65.4259 78.8966L65.4585 79.0176L65.4873 79.1866L65.4547 79.296H65.4029L65.2896 79.2115L65.1571 79.008L65.1398 78.9638L65.0669 78.889L65.0246 78.8544L64.9056 78.7987L64.416 78.72H64.224L63.9264 78.7987L63.863 78.8237L63.7651 78.889L63.6749 79.008L63.6441 79.0867L63.5385 79.2115L63.3696 79.296H63.3427L63.3254 79.2173L63.3216 79.1654L63.3504 79.0003L63.3696 78.9082L63.4368 78.6797L63.4752 78.5587M64.704 78.1594V78.0653L64.6637 77.881L64.6387 77.7926L64.5638 77.6429L64.5235 77.5757L64.4313 77.495L64.3008 77.4835L64.2278 77.5277L64.1549 77.6909L64.128 77.7792L64.1357 77.977L64.1472 78.071L64.2278 78.2285L64.416 78.336H64.4947L64.6195 78.2842L64.6713 78.2515M66.288 79.0886L66.3494 79.0541L66.4435 78.9504L66.4857 78.8928L66.5472 78.7354L66.5741 78.649L66.6048 78.4282L66.624 78.0115V77.8579L66.6048 77.6006L66.5913 77.4778L66.5433 77.28L66.5165 77.1878L66.4397 77.0419L66.288 76.8749L66.2131 76.8192L66.1325 76.7405L66.1037 76.704L66.1286 76.6618L66.1555 76.6445L66.2995 76.6253L66.672 76.6138L66.8697 76.6118L67.1808 76.6656L67.2461 76.6829L67.3344 76.7251L67.392 76.8V76.8518L67.3363 76.9363L67.2 76.992H67.1635L67.1078 77.0803L67.0829 77.1379L67.0464 77.3165L67.0137 77.5104L67.008 78.0365L67.0137 78.3014L67.0771 78.7795L67.0982 78.8851L67.1501 79.0426L67.248 79.1693L67.2806 79.1827V79.2077L67.271 79.2192L67.1923 79.2403L67.1443 79.2499L66.9984 79.2634L66.72 79.2749L66.5664 79.2768L66.3571 79.271L66.2669 79.2653L66.1747 79.2422L66.1421 79.2288L66.1574 79.1846L66.1766 79.1597M68.16 77.952V77.7658L68.1753 77.4278L68.1849 77.2666L68.2137 77.0016L68.231 76.8787L68.2733 76.7136L68.3462 76.608H68.3731L68.4729 76.6867L68.5305 76.7386L68.6784 76.9037L68.7552 76.9939L68.9337 77.2224L69.2102 77.6141L69.888 78.6182V77.6141V77.4758L69.9033 77.2224L69.9129 77.1034L69.9437 76.9037L69.9609 76.8115L70.0051 76.6867L70.08 76.608H70.1069L70.1568 76.7098L70.1798 76.777L70.2163 76.992L70.2336 77.111L70.2566 77.4182L70.272 77.952V78.1363L70.2566 78.4742L70.2489 78.6336L70.2182 78.9005L70.2009 79.0234L70.1606 79.1904L70.0896 79.296H70.0646L69.9686 79.225L69.9149 79.177L69.7747 79.0272L69.6998 78.9446L69.5328 78.7373L69.2736 78.384L68.64 77.472L68.5824 78.384L68.5709 78.5606L68.5382 78.8333L68.519 78.9562L68.4768 79.1251L68.4557 79.1962L68.4077 79.2653L68.3846 79.2883L68.3366 79.2634L68.3136 79.2384L68.2694 79.1232L68.2483 79.056L68.2137 78.8544L68.1965 78.743L68.1734 78.4608L68.1657 78.311M71.0669 78.288L71.1782 78.0115L71.3798 77.4758L71.4259 77.353L71.4989 77.1494L71.568 76.9363L71.5949 76.8422L71.6966 76.7136L71.8713 76.6618L71.904 76.6714L72.0057 76.8L72.0595 76.8787L72.1881 77.111L72.3187 77.3626L72.599 78.0134L72.6643 78.1747L72.7795 78.4858L72.8333 78.6374L72.9139 78.8966L72.9465 79.0176L72.9753 79.1866L72.9427 79.296H72.8909L72.7776 79.2115L72.6451 79.008L72.6278 78.9638L72.5549 78.889L72.5126 78.8544L72.3936 78.7987L71.904 78.72H71.712L71.4144 78.7987L71.351 78.8237L71.2531 78.889L71.1629 79.008L71.1321 79.0867L71.0265 79.2115L70.8576 79.296H70.8307L70.8134 79.2173L70.8096 79.1654L70.8384 79.0003L70.8576 78.9082L70.9248 78.6797L70.9632 78.5587M72.192 78.1594V78.0653L72.1517 77.881L72.1267 77.7926L72.0518 77.6429L72.0115 77.5757L71.9193 77.495L71.7888 77.4835L71.7158 77.5277L71.6429 77.6909L71.616 77.7792L71.6237 77.977L71.6352 78.071L71.7158 78.2285L71.904 78.336H71.9827L72.1075 78.2842L72.1593 78.2515M73.536 77.952V76.608H74.2809H74.4825L74.8205 76.6752L74.976 76.7194L75.2045 76.8614L75.3043 76.9402L75.4041 77.1398L75.383 77.4835L75.3504 77.568L75.3581 77.808L75.4637 78.1574L75.552 78.3245L75.5865 78.6182L75.5789 78.7565L75.4329 78.9773L75.3369 79.0771L75.0259 79.2115L74.3923 79.296H73.536V77.952ZM75.0643 78.8237L75.1469 78.7258L75.2045 78.551L75.2179 78.4704L75.1449 78.336L75.095 78.2765L74.9011 78.1958L74.4845 78.144H74.3654L74.1965 78.1632L74.1216 78.1766L74.0237 78.2323L73.9833 78.2669L73.9411 78.3782L73.92 78.624V78.7181L73.9411 78.8582L73.9565 78.9216L74.0141 79.0061L74.0486 79.0426L74.1542 79.0829L74.3769 79.104H74.5017L74.7667 79.0214L74.8915 78.9715M74.976 77.376V77.2896L74.8301 77.1514L74.448 77.0266L74.3405 77.015L74.1849 77.0131L74.1139 77.0189L74.0237 77.0573L73.9833 77.0842L73.9411 77.1744L73.92 77.376V77.4586L73.9411 77.5776L73.9584 77.6294L74.0237 77.6947L74.062 77.7197L74.1849 77.7389L74.448 77.7254L74.6054 77.7062L74.8301 77.6006L74.9222 77.5392M76.368 79.1693L76.4045 79.1539L76.4659 79.0426L76.4928 78.9734L76.5389 78.7795L76.5792 78.5702L76.608 78.0365L76.6137 77.7715L76.5696 77.3165L76.5542 77.2186L76.5081 77.0803L76.416 76.992H76.3622L76.2797 76.9363L76.224 76.8V76.7731L76.2777 76.7251L76.3104 76.7021L76.4217 76.6637L76.896 76.608H77.0803L77.3702 76.6637L77.4317 76.681L77.5142 76.7251L77.568 76.8V76.8518L77.4835 76.9363L77.28 76.992H77.2224L77.1321 77.0803L77.0918 77.136L77.0323 77.3146L77.0054 77.4125L76.9747 77.6467L76.9632 77.7696V78.0326L76.9689 78.2976L77.0649 78.7738L77.0957 78.8794L77.1763 79.0368L77.328 79.1635L77.3741 79.175L77.3971 79.1981L77.399 79.2096L77.3395 79.2269L77.3011 79.2365L77.1686 79.248L76.896 79.2595H76.7904L76.6176 79.2538L76.5369 79.2499L76.4237 79.2346L76.3757 79.2269L76.3353 79.2058L76.3257 79.1942M78.336 77.952V77.76L78.3513 77.4182L78.359 77.257L78.3917 76.992L78.4089 76.873L78.4512 76.7098L78.528 76.608H78.5549L78.6029 76.704L78.6259 76.7654L78.6643 76.9651L78.6816 77.0765L78.7046 77.3568L78.72 77.8445V79.079L79.344 79.1578L79.4784 79.1731L79.6416 79.1981L79.7049 79.2096L79.7165 79.2269L79.703 79.2346L79.5571 79.2461L79.152 79.2653L78.336 79.296V77.952ZM85.3843 79.0406L85.3459 78.9427L85.2883 78.7046L85.248 78.3917V78.3494L85.2173 78.2266L85.1981 78.1594L85.1366 78L84.8678 77.4797L84.7891 77.3491L84.6528 77.1686L84.5856 77.088L84.4512 76.9939L84.382 76.9555L84.2208 76.9306L83.9078 76.9498L83.7677 76.9709L83.5795 77.0189L83.4969 77.0496L83.4048 77.1686L83.3683 77.2435L83.3376 77.5008L83.3318 77.5776L83.328 77.7677L83.3241 78.1171V78.311L83.3126 78.5952L83.3049 78.7219L83.28 78.8794L83.2646 78.9446L83.2205 78.983L83.136 78.912L83.111 78.8717L83.063 78.7354L83.0419 78.6605L83.0035 78.4685L82.9478 77.808L82.9459 77.6371L82.9305 77.3914L82.919 77.2819L82.8729 77.1418L82.8461 77.0842L82.7558 77.0227L82.56 76.992H82.4544L82.2893 76.9363L82.176 76.8V76.7731L82.2758 76.7232L82.3392 76.7002L82.5504 76.6637L82.6656 76.6464L82.9632 76.6234L83.4777 76.608H83.6352L83.8963 76.6099L84.0192 76.6118L84.2208 76.6195L84.407 76.631L84.6509 76.6925L84.7584 76.7309L84.91 76.873L85.1385 77.2147L85.2249 77.3587L85.3459 77.545L85.3997 77.6218L85.4861 77.6832L85.5264 77.6986L85.6089 77.6467L85.7702 77.4547L85.8451 77.353L86.0102 77.111L86.2061 76.8019L86.2521 76.7232L86.3616 76.6387L86.5037 76.6483L86.5209 76.6656V76.7539L86.5152 76.8058L86.4691 76.9478L86.2022 77.4835L86.0813 77.6755L85.8585 78.1555L85.8067 78.2746L85.7261 78.4992L85.6435 78.7891L85.6185 78.912L85.5763 79.0752L85.5552 79.1443L85.5168 79.2058L85.4976 79.223L85.4573 79.1904L85.4342 79.1616L85.3843 79.0406Z" fill="black"/>
</svg>
