<svg width="32" height="32" viewBox="0 0 32 32" fill="none" xmlns="http://www.w3.org/2000/svg">
<path d="M11.1543 0.842629C11.2722 0.84229 11.3901 0.841844 11.5079 0.841302C11.8248 0.840173 12.1417 0.840599 12.4586 0.841397C12.7923 0.842035 13.1259 0.841441 13.4596 0.84105C14.0196 0.840597 14.5796 0.84119 15.1396 0.842385C15.7845 0.843745 16.4294 0.843305 17.0743 0.841929C17.6308 0.840789 18.1872 0.840636 18.7437 0.841288C19.0748 0.841675 19.406 0.841737 19.7371 0.840904C20.0486 0.840175 20.3601 0.840695 20.6716 0.842128C20.7851 0.842455 20.8985 0.84237 21.0119 0.841812C22.753 0.834051 24.2506 1.40144 25.5095 2.62498C26.6987 3.84033 27.1987 5.46648 27.1958 7.13564C27.196 7.19648 27.1961 7.25732 27.1963 7.31999C27.1967 7.52216 27.1966 7.72433 27.1966 7.92649C27.1967 8.07212 27.197 8.21775 27.1972 8.36338C27.1977 8.75774 27.1979 9.1521 27.1979 9.54646C27.198 9.79302 27.1981 10.0396 27.1983 10.2861C27.1988 11.1024 27.1991 11.9187 27.1991 12.735C27.1991 12.8009 27.1991 12.8009 27.1991 12.8681C27.1991 12.912 27.1991 12.956 27.1991 13.0013C27.199 13.7142 27.1996 14.4271 27.2005 15.1399C27.2014 15.8732 27.2018 16.6065 27.2018 17.3397C27.2018 17.7509 27.2019 18.162 27.2026 18.5732C27.2032 18.9598 27.2032 19.3464 27.2028 19.733C27.2027 19.8746 27.2028 20.0163 27.2032 20.1579C27.2037 20.3517 27.2034 20.5455 27.2029 20.7393C27.2033 20.7949 27.2036 20.8506 27.2039 20.9079C27.1996 21.695 27.0084 22.4291 26.4375 23C25.932 23.3949 25.3913 23.6323 24.7429 23.6332C24.6796 23.6334 24.6162 23.6337 24.551 23.6339C24.4472 23.6338 24.4472 23.6338 24.3414 23.6338C24.2307 23.634 24.2307 23.634 24.1178 23.6343C23.9132 23.6348 23.7086 23.6349 23.504 23.635C23.2832 23.6351 23.0624 23.6356 22.8416 23.636C22.3589 23.6368 21.8762 23.6372 21.3935 23.6375C21.0919 23.6377 20.7904 23.6379 20.4888 23.6382C19.6535 23.639 18.8181 23.6396 17.9828 23.6398C17.9294 23.6398 17.8759 23.6399 17.8209 23.6399C17.7673 23.6399 17.7137 23.6399 17.6585 23.6399C17.55 23.6399 17.4414 23.64 17.3328 23.64C17.2521 23.64 17.2521 23.64 17.1697 23.64C16.2976 23.6403 15.4255 23.6414 14.5534 23.6428C13.6575 23.6443 12.7616 23.6451 11.8657 23.6452C11.3629 23.6452 10.8601 23.6456 10.3573 23.6467C9.92906 23.6477 9.50083 23.648 9.07259 23.6475C8.85428 23.6472 8.63597 23.6473 8.41766 23.6482C8.18048 23.649 7.94333 23.6486 7.70615 23.6479C7.60369 23.6487 7.60369 23.6487 7.49916 23.6495C6.84616 23.6453 6.2789 23.5189 5.74998 23.125C5.67276 23.0685 5.67276 23.0685 5.59398 23.011C5.42691 22.8658 5.32381 22.7264 5.20701 22.539C5.17068 22.4818 5.13434 22.4246 5.09691 22.3657C4.82045 21.8573 4.80315 21.3292 4.80413 20.764C4.80398 20.7035 4.80384 20.6431 4.8037 20.5808C4.8033 20.3787 4.80335 20.1767 4.8034 19.9747C4.80322 19.8296 4.803 19.6845 4.80277 19.5394C4.80222 19.1456 4.80207 18.7517 4.80203 18.3578C4.80199 18.1115 4.80185 17.8651 4.80169 17.6188C4.80114 16.803 4.80085 15.9871 4.80089 15.1713C4.8009 15.1274 4.8009 15.0835 4.8009 15.0382C4.8009 14.9942 4.80091 14.9502 4.80091 14.9049C4.80094 14.193 4.80034 13.4811 4.79946 12.7693C4.79856 12.0369 4.79813 11.3046 4.79818 10.5723C4.7982 10.1617 4.79802 9.7511 4.79736 9.34052C4.79675 8.95392 4.79675 8.56733 4.7972 8.18073C4.79727 8.03942 4.79712 7.89811 4.79674 7.7568C4.79167 5.73799 5.1728 4.00982 6.6035 2.51389C7.88055 1.29506 9.42339 0.834121 11.1543 0.842629ZM7.99998 7.06248C7.99998 9.20748 7.99998 11.3525 7.99998 13.5625C10.2069 13.5625 12.4137 13.5625 14.6875 13.5625C14.6875 11.4175 14.6875 9.27248 14.6875 7.06248C12.4806 7.06248 10.2737 7.06248 7.99998 7.06248ZM17.25 7.06248C17.25 9.20748 17.25 11.3525 17.25 13.5625C19.4775 13.5625 21.705 13.5625 24 13.5625C24 11.4175 24 9.27248 24 7.06248C21.7725 7.06248 19.545 7.06248 17.25 7.06248ZM8.34764 17.707C8.08414 18.0526 7.95949 18.417 7.97899 18.8528C8.053 19.3717 8.27274 19.6902 8.66771 20.0254C8.9906 20.2475 9.36042 20.3402 9.75072 20.2993C10.2574 20.1938 10.635 19.9267 10.9255 19.5017C11.1617 19.0997 11.1651 18.6946 11.0625 18.25C10.8707 17.7733 10.5783 17.484 10.125 17.25C9.47284 17.0326 8.81348 17.208 8.34764 17.707ZM21.2226 17.7344C20.9482 18.1506 20.8288 18.5386 20.9021 19.0364C21.0106 19.4994 21.2384 19.7918 21.625 20.0625C21.9944 20.2904 22.3584 20.3486 22.7812 20.2773C23.2123 20.1671 23.5736 19.8716 23.8125 19.5C24.031 19.0706 24.0793 18.6411 23.9297 18.1797C23.7351 17.7287 23.4321 17.4446 22.9858 17.2429C22.3306 17.0334 21.6612 17.1956 21.2226 17.7344Z" fill="#111417"/>
<path d="M8.81934 25.282C8.92077 25.2826 8.92077 25.2826 9.02425 25.2833C9.24017 25.2851 9.45599 25.289 9.67188 25.293C9.81828 25.2945 9.96468 25.296 10.1111 25.2972C10.4699 25.3007 10.8287 25.3059 11.1875 25.3125C11.1017 25.4881 11.011 25.641 10.8928 25.7969C10.8439 25.8617 10.8439 25.8617 10.7941 25.9277C10.7432 25.9944 10.7432 25.9944 10.6914 26.0625C10.6578 26.107 10.6241 26.1514 10.5895 26.1973C10.5266 26.2803 10.4637 26.3634 10.4007 26.4463C10.3083 26.568 10.2167 26.6903 10.125 26.8125C14.0025 26.8125 17.88 26.8125 21.875 26.8125C21.3851 26.1745 21.3851 26.1745 20.8862 25.5442C20.8125 25.4375 20.8125 25.4375 20.8125 25.3125C21.2348 25.2885 21.6569 25.2722 22.0797 25.261C22.2232 25.2563 22.3667 25.2499 22.51 25.2418C23.6648 25.1777 23.6648 25.1777 24.0109 25.3996C24.2425 25.6142 24.4066 25.8641 24.5609 26.1379C24.6401 26.2764 24.7339 26.3987 24.8337 26.523C24.888 26.5959 24.9421 26.669 24.9961 26.7422C25.0585 26.8261 25.1211 26.91 25.1836 26.9939C25.2149 27.0359 25.2463 27.078 25.2786 27.1213C25.4433 27.3412 25.6103 27.5593 25.7773 27.7773C25.828 27.8434 25.828 27.8434 25.8796 27.9109C25.948 28.0001 26.0165 28.0894 26.0849 28.1787C26.2547 28.4002 26.4242 28.622 26.5938 28.8438C26.661 28.9316 26.7282 29.0195 26.7954 29.1074C26.9358 29.291 27.0761 29.4746 27.2163 29.6582C27.2518 29.7047 27.2873 29.7512 27.3239 29.7991C27.3935 29.8901 27.4629 29.9811 27.5324 30.0722C27.7458 30.3516 27.9618 30.6286 28.1829 30.9021C28.25 31 28.25 31 28.25 31.125C27.8277 31.149 27.4056 31.1653 26.9828 31.1765C26.8393 31.1812 26.6958 31.1876 26.5525 31.1957C25.3963 31.2599 25.3963 31.2599 25.0508 31.0367C24.8221 30.8241 24.6599 30.5793 24.508 30.3083C24.3954 30.1154 24.2584 29.9454 24.1211 29.7695C23.8759 29.4395 23.8759 29.4395 23.8116 29.3051C23.6047 29.109 23.3616 29.1501 23.0871 29.1499C23.0248 29.1489 22.9625 29.1479 22.8983 29.1468C22.6884 29.1438 22.4786 29.1425 22.2687 29.1413C22.1186 29.1395 21.9686 29.1376 21.8185 29.1357C21.3672 29.1303 20.916 29.1271 20.4647 29.1243C20.2946 29.1233 20.1245 29.1221 19.9544 29.1209C19.2041 29.1156 18.4538 29.1111 17.7035 29.1087C17.5198 29.1081 17.3362 29.1075 17.1525 29.1068C17.1069 29.1067 17.0612 29.1065 17.0142 29.1064C16.2759 29.1038 15.5378 29.0965 14.7996 29.0872C14.0409 29.0777 13.2823 29.0725 12.5236 29.0715C12.0979 29.0708 11.6723 29.0683 11.2467 29.0609C10.8457 29.0542 10.445 29.0529 10.044 29.0557C9.89727 29.0558 9.75057 29.054 9.60393 29.05C8.84624 29.0136 8.84624 29.0136 8.16805 29.2966C7.86727 29.5975 7.64457 29.9429 7.4375 30.3125C7.41223 30.3571 7.38697 30.4018 7.36094 30.4477C7.33746 30.4893 7.31398 30.5308 7.28979 30.5736C7.15892 30.8026 7.04505 30.9952 6.8125 31.125C6.30204 31.2539 5.76263 31.2013 5.24219 31.1758C5.0975 31.1717 4.95281 31.168 4.80811 31.1647C4.45516 31.1558 4.10263 31.1422 3.75 31.125C3.8299 30.9621 3.91122 30.8164 4.02051 30.6714C4.04943 30.6329 4.07835 30.5944 4.10815 30.5547C4.15516 30.4928 4.15516 30.4928 4.20312 30.4297C4.23608 30.386 4.26903 30.3424 4.30298 30.2974C4.58972 29.9186 4.88163 29.544 5.17413 29.1697C5.4113 28.8657 5.64465 28.5592 5.875 28.25C6.17719 27.8444 6.48643 27.4447 6.79794 27.0462C7.08018 26.6845 7.35702 26.319 7.63086 25.9508C7.65938 25.9125 7.6879 25.8742 7.71729 25.8347C7.7541 25.7851 7.7541 25.7851 7.79166 25.7344C7.81916 25.6983 7.84666 25.6622 7.875 25.625C7.90518 25.5697 7.93536 25.5145 7.96646 25.4576C8.22029 25.2253 8.48776 25.2738 8.81934 25.282Z" fill="#111417"/>
</svg>
