<svg width="68" height="68" viewBox="0 0 68 68" fill="none" xmlns="http://www.w3.org/2000/svg">
<g clip-path="url(#clip0_2399_1042)">
<path d="M25.0111 34.9875C26.1045 35.7064 27.2056 36.3066 28.4217 36.7891C28.505 36.8222 28.5884 36.8553 28.6743 36.8894C32.7407 38.4587 36.6416 37.9651 40.5833 36.3263C41.7568 35.7778 42.8208 35.0574 43.8916 34.3328C46.3966 32.6522 46.3966 32.6522 47.7791 32.73C47.8802 32.7331 47.9814 32.7363 48.0856 32.7395C51.442 32.8877 54.6138 34.2528 56.9112 36.7405C61.2237 41.6942 62.3043 48.7759 62.4217 55.1172C62.427 55.2779 62.4323 55.4387 62.4377 55.6043C62.499 58.507 61.9356 61.7223 59.948 63.9575C59.7564 64.156 59.563 64.3527 59.367 64.5469C59.2519 64.6674 59.1369 64.7879 59.0183 64.9121C58.9142 65.0107 58.8102 65.1093 58.7029 65.2109C58.6087 65.3018 58.6087 65.3018 58.5125 65.3946C55.7756 67.9018 52.2571 68.0603 48.7626 68.0537C48.4037 68.0544 48.0448 68.0553 47.686 68.0564C46.8164 68.0587 45.9469 68.0588 45.0773 68.0581C44.3697 68.0576 43.6621 68.0578 42.9544 68.0585C42.8533 68.0586 42.7522 68.0587 42.6479 68.0588C42.4424 68.059 42.2369 68.0592 42.0313 68.0594C40.1085 68.0612 38.1857 68.0605 36.2629 68.059C34.5087 68.0577 32.7546 68.0594 31.0004 68.0626C29.1937 68.0658 27.387 68.0671 25.5802 68.0662C24.5681 68.0657 23.556 68.066 22.5439 68.0683C21.6823 68.0703 20.8207 68.0704 19.959 68.0681C19.5205 68.0669 19.0821 68.0669 18.6436 68.0687C14.7941 68.083 11.4795 67.4757 8.6326 64.6797C8.52987 64.5802 8.42715 64.4807 8.32132 64.3783C6.43378 62.4293 5.56439 59.7119 5.55093 57.0362C5.55 56.9137 5.54907 56.7911 5.54811 56.6648C5.54578 56.2679 5.54494 55.871 5.54471 55.4741C5.54462 55.3388 5.54453 55.2035 5.54443 55.0641C5.54659 53.0149 5.62137 51.0302 5.97635 49.0078C5.99984 48.8662 6.02334 48.7245 6.04755 48.5786C6.36601 46.6786 6.78163 44.8439 7.43728 43.0312C7.46823 42.9443 7.49917 42.8573 7.53106 42.7678C8.29208 40.6591 9.32618 38.7768 10.7576 37.0547C10.8283 36.9638 10.899 36.8729 10.9719 36.7792C12.8013 34.486 15.8569 33.1661 18.7143 32.8334C21.3535 32.5606 22.8567 33.5568 25.0111 34.9875Z" fill="black"/>
<path d="M43.687 3.3779C44.8337 4.33878 45.844 5.31359 46.75 6.50781C46.8303 6.61259 46.9106 6.71736 46.9933 6.82532C48.5133 8.89773 49.3516 11.1568 49.8047 13.6797C49.8294 13.8156 49.854 13.9516 49.8794 14.0916C50.3808 18.5597 49.3596 22.8442 46.6172 26.4297C46.2364 26.8908 45.836 27.3266 45.4219 27.7578C45.3099 27.8782 45.198 27.9985 45.0826 28.1225C44.2062 29.0383 43.2973 29.7339 42.2344 30.4141C42.124 30.4877 42.0135 30.5613 41.8998 30.6371C39.4483 32.2064 36.4454 32.8606 33.5684 32.8462C33.412 32.8455 33.2557 32.8449 33.0946 32.8442C31.8501 32.8276 30.69 32.7107 29.4844 32.4062C29.353 32.3731 29.353 32.3731 29.2189 32.3393C26.8228 31.7152 24.555 30.5297 22.7468 28.8354C22.4956 28.6015 22.2401 28.3866 21.9722 28.1728C21.3327 27.6282 20.8313 26.9594 20.3203 26.2969C20.2409 26.1945 20.1615 26.0921 20.0796 25.9866C18.0102 23.1795 17.0783 19.9443 17.083 16.477C17.0831 16.3874 17.0832 16.2977 17.0832 16.2053C17.0919 13.8432 17.4623 11.7103 18.461 9.5625C18.5209 9.42691 18.5808 9.29131 18.6425 9.15161C19.9206 6.40778 22.1783 4.02075 24.7031 2.39062C24.8199 2.31427 24.9367 2.23791 25.057 2.15924C30.6796 -1.32588 38.5672 -0.78685 43.687 3.3779Z" fill="black"/>
</g>
<defs>
<clipPath id="clip0_2399_1042">
<rect width="68" height="68" fill="white"/>
</clipPath>
</defs>
</svg>
