<svg xmlns="http://www.w3.org/2000/svg" xmlns:xlink="http://www.w3.org/1999/xlink" width="1080" zoomAndPan="magnify" viewBox="0 0 810 1439.999935" height="1920" preserveAspectRatio="xMidYMid meet" version="1.2"><defs><clipPath id="945937f6aa"><path d="M 632.75 326.78125 L 729 326.78125 L 729 1113.21875 L 632.75 1113.21875 Z M 632.75 326.78125 "/></clipPath><clipPath id="6bcdbbd6f4"><path d="M 81 1058.183594 L 729 1058.183594 L 729 1422.617188 L 81 1422.617188 Z M 81 1058.183594 "/></clipPath><clipPath id="5b76c413ab"><path d="M 512.882812 1403.90625 C 479.769531 1415.203125 441.894531 1422.617188 404.824219 1422.617188 C 367.757812 1422.617188 332.085938 1416.261719 299.214844 1404.964844 C 298.515625 1404.613281 297.816406 1404.613281 297.117188 1404.257812 C 173.671875 1359.070312 82.75 1239.738281 81 1109.902344 L 81 1058.183594 L 729 1058.183594 L 729 1109.867188 C 727.25 1240.445312 637.726562 1359.773438 512.882812 1403.90625 Z M 512.882812 1403.90625 "/></clipPath><clipPath id="ecc3206af1"><path d="M 181.945312 862.539062 L 424.945312 862.539062 L 424.945312 1105.539062 L 181.945312 1105.539062 Z M 181.945312 862.539062 "/></clipPath><clipPath id="a8d96584c1"><path d="M 389.75 870.21875 L 632.75 870.21875 L 632.75 1113.21875 L 389.75 1113.21875 Z M 389.75 870.21875 "/></clipPath><clipPath id="b32fab1149"><path d="M 628.046875 345.777344 L 728.988281 345.777344 L 728.988281 1132.214844 L 628.046875 1132.214844 Z M 628.046875 345.777344 "/></clipPath><clipPath id="3ebbd5cfac"><path d="M 80.996094 345.777344 L 177.246094 345.777344 L 177.246094 1132.214844 L 80.996094 1132.214844 Z M 80.996094 345.777344 "/></clipPath><clipPath id="28b6d2ddc9"><path d="M 81 36.378906 L 729 36.378906 L 729 400.8125 L 81 400.8125 Z M 81 36.378906 "/></clipPath><clipPath id="ef500acedd"><path d="M 297.117188 55.089844 C 330.230469 43.792969 368.105469 36.378906 405.175781 36.378906 C 442.242188 36.378906 477.914062 42.734375 510.785156 54.03125 C 511.484375 54.386719 512.183594 54.386719 512.882812 54.738281 C 636.328125 99.929688 727.25 219.257812 729 349.09375 L 729 400.8125 L 81 400.8125 L 81 349.132812 C 82.75 218.554688 172.273438 99.222656 297.117188 55.089844 Z M 297.117188 55.089844 "/></clipPath><clipPath id="c904f17ed4"><path d="M 177.246094 651.425781 L 630.402344 651.425781 L 630.402344 1324.078125 L 177.246094 1324.078125 Z M 177.246094 651.425781 "/></clipPath><clipPath id="37c893cbcd"><path d="M 479.265625 1311.0625 C 456.109375 1318.921875 429.625 1324.078125 403.699219 1324.078125 C 377.777344 1324.078125 352.832031 1319.65625 329.847656 1311.796875 C 329.355469 1311.550781 328.867188 1311.550781 328.378906 1311.304688 C 242.050781 1279.867188 178.46875 1196.851562 177.246094 1097.222656 L 177.246094 651.636719 L 630.402344 651.636719 L 630.402344 1096.890625 C 629.179688 1197.339844 566.574219 1280.359375 479.265625 1311.0625 Z M 479.265625 1311.0625 "/></clipPath><clipPath id="b2eab514cf"><path d="M 80 320.785156 L 727.824219 320.785156 L 727.824219 700.847656 L 80 700.847656 Z M 80 320.785156 "/></clipPath><clipPath id="5ae4371f79"><path d="M 511.710938 682.136719 C 478.59375 693.433594 440.71875 700.847656 403.652344 700.847656 C 366.582031 700.847656 330.914062 694.492188 298.042969 683.195312 C 297.339844 682.84375 296.640625 682.84375 295.941406 682.488281 C 172.496094 637.296875 81.574219 517.96875 79.824219 387.785156 L 79.824219 320.785156 L 727.824219 320.785156 L 727.824219 387.738281 C 726.078125 518.671875 636.554688 638.003906 511.710938 682.136719 Z M 511.710938 682.136719 "/></clipPath><clipPath id="6d2e62f325"><path d="M 169 141.535156 L 641 141.535156 L 641 613.53125 L 169 613.53125 Z M 169 141.535156 "/></clipPath><clipPath id="0e059271e6"><path d="M 405 141.535156 C 274.660156 141.535156 169 247.195312 169 377.53125 C 169 507.871094 274.660156 613.53125 405 613.53125 C 535.339844 613.53125 641 507.871094 641 377.53125 C 641 247.195312 535.339844 141.535156 405 141.535156 Z M 405 141.535156 "/></clipPath><clipPath id="1f4a37105f"><path d="M 318.675781 9.082031 L 491.324219 9.082031 L 491.324219 181.730469 L 318.675781 181.730469 Z M 318.675781 9.082031 "/></clipPath><clipPath id="01ebc2a138"><path d="M 405 9.082031 C 357.324219 9.082031 318.675781 47.730469 318.675781 95.40625 C 318.675781 143.082031 357.324219 181.730469 405 181.730469 C 452.675781 181.730469 491.324219 143.082031 491.324219 95.40625 C 491.324219 47.730469 452.675781 9.082031 405 9.082031 Z M 405 9.082031 "/></clipPath><clipPath id="c4e25d8ecc"><path d="M 65.195312 461.914062 L 216.8125 461.914062 L 216.8125 613.53125 L 65.195312 613.53125 Z M 65.195312 461.914062 "/></clipPath><clipPath id="a0f555aa4e"><path d="M 141.003906 461.914062 C 99.136719 461.914062 65.195312 495.855469 65.195312 537.722656 C 65.195312 579.589844 99.136719 613.53125 141.003906 613.53125 C 182.871094 613.53125 216.8125 579.589844 216.8125 537.722656 C 216.8125 495.855469 182.871094 461.914062 141.003906 461.914062 Z M 141.003906 461.914062 "/></clipPath><clipPath id="3ea1eb7291"><path d="M 591.410156 461.914062 L 743.023438 461.914062 L 743.023438 613.53125 L 591.410156 613.53125 Z M 591.410156 461.914062 "/></clipPath><clipPath id="7b8933dbce"><path d="M 667.21875 461.914062 C 625.351562 461.914062 591.410156 495.855469 591.410156 537.722656 C 591.410156 579.589844 625.351562 613.53125 667.21875 613.53125 C 709.085938 613.53125 743.023438 579.589844 743.023438 537.722656 C 743.023438 495.855469 709.085938 461.914062 667.21875 461.914062 Z M 667.21875 461.914062 "/></clipPath><clipPath id="db4eaab4c4"><path d="M 158 839 L 729 839 L 729 1351 L 158 1351 Z M 158 839 "/></clipPath><clipPath id="e2c3876d9e"><path d="M 221.628906 1350.449219 L 158.761719 1277.570312 L 666.132812 839.921875 L 729 912.800781 Z M 221.628906 1350.449219 "/></clipPath><clipPath id="e51ec787a4"><path d="M 54.679688 451.398438 L 227.328125 451.398438 L 227.328125 624.046875 L 54.679688 624.046875 Z M 54.679688 451.398438 "/></clipPath><clipPath id="a93ac7456c"><path d="M 141.003906 451.398438 C 93.328125 451.398438 54.679688 490.046875 54.679688 537.722656 C 54.679688 585.398438 93.328125 624.046875 141.003906 624.046875 C 188.679688 624.046875 227.328125 585.398438 227.328125 537.722656 C 227.328125 490.046875 188.679688 451.398438 141.003906 451.398438 Z M 141.003906 451.398438 "/></clipPath><clipPath id="40b2d80c04"><path d="M 580.890625 451.398438 L 753.542969 451.398438 L 753.542969 624.046875 L 580.890625 624.046875 Z M 580.890625 451.398438 "/></clipPath><clipPath id="dfa00925d7"><path d="M 667.21875 451.398438 C 619.542969 451.398438 580.890625 490.046875 580.890625 537.722656 C 580.890625 585.398438 619.542969 624.046875 667.21875 624.046875 C 714.894531 624.046875 753.542969 585.398438 753.542969 537.722656 C 753.542969 490.046875 714.894531 451.398438 667.21875 451.398438 Z M 667.21875 451.398438 "/></clipPath><clipPath id="b2b23d49ab"><path d="M 592.203125 967.957031 L 764.851562 967.957031 L 764.851562 1140.609375 L 592.203125 1140.609375 Z M 592.203125 967.957031 "/></clipPath><clipPath id="e1cea40684"><path d="M 678.527344 967.957031 C 630.851562 967.957031 592.203125 1006.609375 592.203125 1054.285156 C 592.203125 1101.960938 630.851562 1140.609375 678.527344 1140.609375 C 726.203125 1140.609375 764.851562 1101.960938 764.851562 1054.285156 C 764.851562 1006.609375 726.203125 967.957031 678.527344 967.957031 Z M 678.527344 967.957031 "/></clipPath><clipPath id="26642d6a80"><path d="M 494.566406 1230.601562 L 667.21875 1230.601562 L 667.21875 1403.25 L 494.566406 1403.25 Z M 494.566406 1230.601562 "/></clipPath><clipPath id="04d237157b"><path d="M 580.890625 1230.601562 C 533.214844 1230.601562 494.566406 1269.25 494.566406 1316.925781 C 494.566406 1364.601562 533.214844 1403.25 580.890625 1403.25 C 628.570312 1403.25 667.21875 1364.601562 667.21875 1316.925781 C 667.21875 1269.25 628.570312 1230.601562 580.890625 1230.601562 Z M 580.890625 1230.601562 "/></clipPath><clipPath id="c81c89efd5"><path d="M 44.160156 959.570312 L 216.8125 959.570312 L 216.8125 1132.222656 L 44.160156 1132.222656 Z M 44.160156 959.570312 "/></clipPath><clipPath id="b6c18ecf5a"><path d="M 130.488281 959.570312 C 82.8125 959.570312 44.160156 998.21875 44.160156 1045.894531 C 44.160156 1093.570312 82.8125 1132.222656 130.488281 1132.222656 C 178.164062 1132.222656 216.8125 1093.570312 216.8125 1045.894531 C 216.8125 998.21875 178.164062 959.570312 130.488281 959.570312 Z M 130.488281 959.570312 "/></clipPath><clipPath id="af82d805fd"><path d="M 357.558594 1013.699219 L 530.207031 1013.699219 L 530.207031 1186.351562 L 357.558594 1186.351562 Z M 357.558594 1013.699219 "/></clipPath><clipPath id="6eba13b384"><path d="M 443.882812 1013.699219 C 396.207031 1013.699219 357.558594 1052.347656 357.558594 1100.023438 C 357.558594 1147.699219 396.207031 1186.351562 443.882812 1186.351562 C 491.558594 1186.351562 530.207031 1147.699219 530.207031 1100.023438 C 530.207031 1052.347656 491.558594 1013.699219 443.882812 1013.699219 Z M 443.882812 1013.699219 "/></clipPath><clipPath id="1d8b76c3e7"><path d="M 592.203125 705.316406 L 764.851562 705.316406 L 764.851562 877.96875 L 592.203125 877.96875 Z M 592.203125 705.316406 "/></clipPath><clipPath id="823fcf82e2"><path d="M 678.527344 705.316406 C 630.851562 705.316406 592.203125 743.964844 592.203125 791.640625 C 592.203125 839.316406 630.851562 877.96875 678.527344 877.96875 C 726.203125 877.96875 764.851562 839.316406 764.851562 791.640625 C 764.851562 743.964844 726.203125 705.316406 678.527344 705.316406 Z M 678.527344 705.316406 "/></clipPath></defs><g id="9a446d6eff"><rect x="0" width="810" y="0" height="1439.999935" style="fill:#ffffff;fill-opacity:1;stroke:none;"/><rect x="0" width="810" y="0" height="1439.999935" style="fill:#dadada;fill-opacity:1;stroke:none;"/><g clip-rule="nonzero" clip-path="url(#945937f6aa)"><path style=" stroke:none;fill-rule:nonzero;fill:#005caa;fill-opacity:1;" d="M 632.75 326.78125 L 729 326.78125 L 729 1113.308594 L 632.75 1113.308594 Z M 632.75 326.78125 "/></g><g clip-rule="nonzero" clip-path="url(#6bcdbbd6f4)"><g clip-rule="nonzero" clip-path="url(#5b76c413ab)"><path style=" stroke:none;fill-rule:nonzero;fill:#683a91;fill-opacity:1;" d="M 729 1422.617188 L 81.277344 1422.617188 L 81.277344 1058.183594 L 729 1058.183594 Z M 729 1422.617188 "/></g></g><g clip-rule="nonzero" clip-path="url(#ecc3206af1)"><path style=" stroke:none;fill-rule:nonzero;fill:#ffffff;fill-opacity:1;" d="M 181.945312 862.539062 L 424.945312 862.539062 L 424.945312 1105.539062 L 181.945312 1105.539062 Z M 181.945312 862.539062 "/></g><g clip-rule="nonzero" clip-path="url(#a8d96584c1)"><path style=" stroke:none;fill-rule:nonzero;fill:#ffffff;fill-opacity:1;" d="M 389.75 870.21875 L 632.75 870.21875 L 632.75 1113.21875 L 389.75 1113.21875 Z M 389.75 870.21875 "/></g><g clip-rule="nonzero" clip-path="url(#b32fab1149)"><path style=" stroke:none;fill-rule:nonzero;fill:#683a91;fill-opacity:1;" d="M 728.988281 1132.214844 L 628.046875 1132.214844 L 628.046875 345.957031 L 728.988281 345.957031 Z M 728.988281 1132.214844 "/></g><g clip-rule="nonzero" clip-path="url(#3ebbd5cfac)"><path style=" stroke:none;fill-rule:nonzero;fill:#683a91;fill-opacity:1;" d="M 177.246094 1132.214844 L 80.996094 1132.214844 L 80.996094 345.683594 L 177.246094 345.683594 Z M 177.246094 1132.214844 "/></g><g clip-rule="nonzero" clip-path="url(#28b6d2ddc9)"><g clip-rule="nonzero" clip-path="url(#ef500acedd)"><path style=" stroke:none;fill-rule:nonzero;fill:#683a91;fill-opacity:1;" d="M 81 36.378906 L 728.722656 36.378906 L 728.722656 400.8125 L 81 400.8125 Z M 81 36.378906 "/></g></g><g clip-rule="nonzero" clip-path="url(#c904f17ed4)"><g clip-rule="nonzero" clip-path="url(#37c893cbcd)"><path style=" stroke:none;fill-rule:nonzero;fill:#dadada;fill-opacity:1;" d="M 630.402344 1324.078125 L 177.246094 1324.078125 L 177.246094 651.425781 L 630.402344 651.425781 Z M 630.402344 1324.078125 "/></g></g><g clip-rule="nonzero" clip-path="url(#b2eab514cf)"><g clip-rule="nonzero" clip-path="url(#5ae4371f79)"><path style=" stroke:none;fill-rule:nonzero;fill:#683a91;fill-opacity:1;" d="M 727.824219 700.847656 L 80.535156 700.847656 L 80.535156 320.785156 L 727.824219 320.785156 Z M 727.824219 700.847656 "/></g></g><g clip-rule="nonzero" clip-path="url(#6d2e62f325)"><g clip-rule="nonzero" clip-path="url(#0e059271e6)"><path style=" stroke:none;fill-rule:nonzero;fill:#dadada;fill-opacity:1;" d="M 169 141.535156 L 641 141.535156 L 641 613.53125 L 169 613.53125 Z M 169 141.535156 "/></g></g><g clip-rule="nonzero" clip-path="url(#1f4a37105f)"><g clip-rule="nonzero" clip-path="url(#01ebc2a138)"><path style=" stroke:none;fill-rule:nonzero;fill:#ffffff;fill-opacity:1;" d="M 318.675781 9.082031 L 491.324219 9.082031 L 491.324219 181.730469 L 318.675781 181.730469 Z M 318.675781 9.082031 "/></g></g><g clip-rule="nonzero" clip-path="url(#c4e25d8ecc)"><g clip-rule="nonzero" clip-path="url(#a0f555aa4e)"><path style=" stroke:none;fill-rule:nonzero;fill:#ffffff;fill-opacity:1;" d="M 65.195312 461.914062 L 216.8125 461.914062 L 216.8125 613.53125 L 65.195312 613.53125 Z M 65.195312 461.914062 "/></g></g><g clip-rule="nonzero" clip-path="url(#3ea1eb7291)"><g clip-rule="nonzero" clip-path="url(#7b8933dbce)"><path style=" stroke:none;fill-rule:nonzero;fill:#ffffff;fill-opacity:1;" d="M 591.410156 461.914062 L 743.023438 461.914062 L 743.023438 613.53125 L 591.410156 613.53125 Z M 591.410156 461.914062 "/></g></g><g clip-rule="nonzero" clip-path="url(#db4eaab4c4)"><g clip-rule="nonzero" clip-path="url(#e2c3876d9e)"><path style=" stroke:none;fill-rule:nonzero;fill:#683a91;fill-opacity:1;" d="M 221.628906 1350.449219 L 158.761719 1277.570312 L 666.082031 839.964844 L 728.949219 912.84375 Z M 221.628906 1350.449219 "/></g></g><g clip-rule="nonzero" clip-path="url(#e51ec787a4)"><g clip-rule="nonzero" clip-path="url(#a93ac7456c)"><path style=" stroke:none;fill-rule:nonzero;fill:#ffffff;fill-opacity:1;" d="M 54.679688 451.398438 L 227.328125 451.398438 L 227.328125 624.046875 L 54.679688 624.046875 Z M 54.679688 451.398438 "/></g></g><g clip-rule="nonzero" clip-path="url(#40b2d80c04)"><g clip-rule="nonzero" clip-path="url(#dfa00925d7)"><path style=" stroke:none;fill-rule:nonzero;fill:#ffffff;fill-opacity:1;" d="M 580.890625 451.398438 L 753.542969 451.398438 L 753.542969 624.046875 L 580.890625 624.046875 Z M 580.890625 451.398438 "/></g></g><g clip-rule="nonzero" clip-path="url(#b2b23d49ab)"><g clip-rule="nonzero" clip-path="url(#e1cea40684)"><path style=" stroke:none;fill-rule:nonzero;fill:#ffffff;fill-opacity:1;" d="M 592.203125 967.957031 L 764.851562 967.957031 L 764.851562 1140.609375 L 592.203125 1140.609375 Z M 592.203125 967.957031 "/></g></g><g clip-rule="nonzero" clip-path="url(#26642d6a80)"><g clip-rule="nonzero" clip-path="url(#04d237157b)"><path style=" stroke:none;fill-rule:nonzero;fill:#ffffff;fill-opacity:1;" d="M 494.566406 1230.601562 L 667.21875 1230.601562 L 667.21875 1403.25 L 494.566406 1403.25 Z M 494.566406 1230.601562 "/></g></g><g clip-rule="nonzero" clip-path="url(#c81c89efd5)"><g clip-rule="nonzero" clip-path="url(#b6c18ecf5a)"><path style=" stroke:none;fill-rule:nonzero;fill:#ffffff;fill-opacity:1;" d="M 44.160156 959.570312 L 216.8125 959.570312 L 216.8125 1132.222656 L 44.160156 1132.222656 Z M 44.160156 959.570312 "/></g></g><g clip-rule="nonzero" clip-path="url(#af82d805fd)"><g clip-rule="nonzero" clip-path="url(#6eba13b384)"><path style=" stroke:none;fill-rule:nonzero;fill:#ffffff;fill-opacity:1;" d="M 357.558594 1013.699219 L 530.207031 1013.699219 L 530.207031 1186.351562 L 357.558594 1186.351562 Z M 357.558594 1013.699219 "/></g></g><g clip-rule="nonzero" clip-path="url(#1d8b76c3e7)"><g clip-rule="nonzero" clip-path="url(#823fcf82e2)"><path style=" stroke:none;fill-rule:nonzero;fill:#ffffff;fill-opacity:1;" d="M 592.203125 705.316406 L 764.851562 705.316406 L 764.851562 877.96875 L 592.203125 877.96875 Z M 592.203125 705.316406 "/></g></g></g></svg>