<svg width="32" height="32" viewBox="0 0 32 32" fill="none" xmlns="http://www.w3.org/2000/svg">
<g clip-path="url(#clip0_2322_45)">
<path d="M2.30759 18.8589C2.35579 18.8587 2.404 18.8585 2.45367 18.8582C2.61503 18.8577 2.77638 18.858 2.93774 18.8583C3.05467 18.858 3.1716 18.8578 3.28853 18.8574C3.60973 18.8567 3.93093 18.8567 4.25214 18.8568C4.5986 18.8568 4.94507 18.8562 5.29153 18.8556C5.97028 18.8545 6.64903 18.8542 7.32779 18.8541C7.8795 18.8541 8.43122 18.8538 8.98293 18.8534C10.2925 18.8525 11.6022 18.8517 12.9118 18.8518C12.9536 18.8518 12.9955 18.8518 13.0387 18.8518C13.2509 18.8518 13.4631 18.8518 13.6753 18.8518C13.7386 18.8518 13.7386 18.8518 13.8031 18.8518C13.8883 18.8518 13.9735 18.8518 14.0588 18.8518C15.3847 18.8519 16.7106 18.851 18.0366 18.8493C19.5267 18.8473 21.0167 18.8463 22.5068 18.8464C23.2956 18.8464 24.0845 18.8461 24.8733 18.8447C25.5449 18.8436 26.2165 18.8433 26.8881 18.8442C27.2307 18.8446 27.5733 18.8446 27.9159 18.8435C28.2298 18.8425 28.5436 18.8427 28.8574 18.8438C28.9707 18.844 29.0841 18.8438 29.1974 18.8431C30.0588 18.8381 30.7137 18.909 31.3606 19.5354C31.865 20.0857 32.0196 20.5781 32.0188 21.3115C32.0192 21.3994 32.0192 21.3994 32.0196 21.4891C32.02 21.6122 32.02 21.7353 32.0198 21.8584C32.0196 22.0472 32.021 22.2358 32.0226 22.4246C32.0228 22.5444 32.0228 22.6643 32.0227 22.7842C32.0233 22.8406 32.0239 22.8971 32.0245 22.9552C32.0239 23.0338 32.0239 23.0338 32.0233 23.1139C32.0233 23.16 32.0234 23.206 32.0234 23.2534C31.9933 23.4097 31.9364 23.4654 31.8125 23.5625C31.6778 23.5874 31.6778 23.5874 31.5313 23.5859C31.4588 23.5867 31.4588 23.5867 31.3848 23.5874C31.2095 23.555 31.1668 23.5201 31.0625 23.375C31.0433 23.2157 31.035 23.071 31.0349 22.9116C31.0341 22.866 31.0333 22.8205 31.0324 22.7735C31.0299 22.6277 31.0285 22.4818 31.0274 22.3359C31.0568 21.2612 31.0568 21.2612 30.625 20.3125C30.1894 19.9204 29.7901 19.8652 29.2153 19.867C29.1455 19.8668 29.1455 19.8668 29.0743 19.8666C28.9184 19.8663 28.7625 19.8665 28.6065 19.8666C28.4937 19.8665 28.3808 19.8664 28.2679 19.8662C27.9576 19.8658 27.6473 19.8658 27.337 19.8659C27.0024 19.8659 26.6677 19.8656 26.3331 19.8653C25.6775 19.8648 25.0219 19.8646 24.3663 19.8646C23.8335 19.8645 23.3007 19.8644 22.7679 19.8642C21.2578 19.8636 19.7477 19.8634 18.2376 19.8634C18.1562 19.8634 18.0747 19.8634 17.9908 19.8634C17.9093 19.8634 17.8278 19.8634 17.7438 19.8634C16.4222 19.8634 15.1005 19.8628 13.7789 19.862C12.4223 19.8611 11.0657 19.8606 9.7091 19.8607C8.94729 19.8607 8.18548 19.8605 7.42367 19.8599C6.77514 19.8593 6.1266 19.8592 5.47806 19.8596C5.14712 19.8598 4.81618 19.8598 4.48524 19.8593C4.18229 19.8588 3.87936 19.8588 3.57641 19.8594C3.46681 19.8595 3.35721 19.8594 3.2476 19.859C3.09857 19.8586 2.94956 19.8589 2.80053 19.8594C2.75803 19.8591 2.71553 19.8588 2.67175 19.8585C2.20395 19.8619 1.80923 19.9543 1.43753 20.25C0.947616 20.7943 0.990689 21.3605 0.99095 22.0595C0.99074 22.1404 0.99053 22.2212 0.990314 22.3045C0.989764 22.5253 0.989615 22.7462 0.989576 22.967C0.989531 23.1052 0.989397 23.2434 0.989232 23.3816C0.988654 23.8645 0.988398 24.3474 0.988448 24.8303C0.988485 25.2793 0.987826 25.7283 0.986839 26.1773C0.98602 26.5638 0.985686 26.9502 0.985726 27.3367C0.985742 27.5671 0.985567 27.7975 0.984903 28.0279C0.984181 28.285 0.98447 28.5421 0.984847 28.7993C0.98432 28.9127 0.98432 28.9127 0.983782 29.0284C0.985897 29.5979 1.0029 30.1053 1.37503 30.5625C1.81064 30.9545 2.20992 31.0098 2.7848 31.008C2.8313 31.0081 2.87781 31.0083 2.92572 31.0084C3.08165 31.0087 3.23758 31.0085 3.39352 31.0083C3.5064 31.0085 3.61929 31.0086 3.73217 31.0088C4.04248 31.0092 4.35278 31.0092 4.66309 31.0091C4.99771 31.0091 5.33232 31.0094 5.66694 31.0097C6.32254 31.0102 6.97813 31.0104 7.63373 31.0104C8.16652 31.0105 8.69932 31.0106 9.23212 31.0108C10.7422 31.0113 12.2524 31.0116 13.7625 31.0116C13.8439 31.0116 13.9253 31.0116 14.0092 31.0116C14.0907 31.0116 14.1723 31.0116 14.2563 31.0116C15.5779 31.0115 16.8995 31.0121 18.2212 31.013C19.5778 31.0139 20.9344 31.0143 22.291 31.0143C23.0528 31.0143 23.8146 31.0144 24.5764 31.0151C25.2249 31.0157 25.8735 31.0158 26.522 31.0154C26.8529 31.0152 27.1839 31.0152 27.5148 31.0157C27.8178 31.0162 28.1207 31.0161 28.4236 31.0156C28.5332 31.0155 28.6429 31.0156 28.7525 31.016C28.9015 31.0164 29.0505 31.0161 29.1995 31.0155C29.242 31.0159 29.2845 31.0162 29.3283 31.0165C29.7961 31.013 30.1908 30.9207 30.5625 30.625C30.9748 30.1669 31.009 29.7282 31.0099 29.1251C31.0102 29.0771 31.0105 29.0292 31.0108 28.9798C31.0115 28.8766 31.0121 28.7733 31.0125 28.6701C31.0132 28.5067 31.0144 28.3433 31.0158 28.1799C31.0196 27.7157 31.023 27.2514 31.0251 26.7871C31.0264 26.5025 31.0286 26.218 31.0314 25.9334C31.0323 25.825 31.0328 25.7167 31.033 25.6083C31.0333 25.4572 31.0348 25.3062 31.0365 25.1551C31.0363 25.1103 31.0361 25.0655 31.0359 25.0193C31.039 24.8375 31.0418 24.7164 31.1495 24.5661C31.2825 24.4787 31.373 24.475 31.5313 24.4766C31.6038 24.4758 31.6038 24.4758 31.6778 24.4751C31.855 24.5078 31.8962 24.5389 32 24.6875C32.0189 24.8638 32.0263 25.0264 32.0253 25.2028C32.0259 25.2816 32.0259 25.2816 32.0266 25.362C32.0277 25.5363 32.0275 25.7105 32.0271 25.8848C32.0274 26.0062 32.0277 26.1276 32.0281 26.2489C32.0287 26.5039 32.0285 26.7588 32.0279 27.0137C32.0272 27.339 32.0284 27.6642 32.0303 27.9894C32.0314 28.2405 32.0314 28.4915 32.0311 28.7426C32.031 28.8624 32.0314 28.9822 32.0322 29.102C32.0372 29.9983 31.993 30.6858 31.3396 31.3606C30.8425 31.8162 30.3748 32.02 29.6925 32.0161C29.6443 32.0163 29.5961 32.0165 29.5464 32.0167C29.385 32.0173 29.2237 32.017 29.0623 32.0167C28.9454 32.0169 28.8285 32.0172 28.7115 32.0176C28.3903 32.0183 28.0691 32.0183 27.7479 32.0182C27.4015 32.0181 27.055 32.0188 26.7085 32.0194C26.0298 32.0205 25.351 32.0208 24.6723 32.0209C24.1206 32.0209 23.5688 32.0212 23.0171 32.0216C21.7075 32.0225 20.3979 32.0233 19.0883 32.0232C19.0464 32.0232 19.0045 32.0232 18.9614 32.0232C18.7492 32.0232 18.5369 32.0232 18.3247 32.0232C18.2826 32.0232 18.2404 32.0232 18.197 32.0232C18.1118 32.0232 18.0265 32.0232 17.9413 32.0231C16.6154 32.0231 15.2894 32.024 13.9635 32.0257C12.4734 32.0276 10.9833 32.0287 9.49323 32.0286C8.70441 32.0286 7.9156 32.0289 7.12678 32.0302C6.45517 32.0314 5.78357 32.0317 5.11196 32.0308C4.76934 32.0304 4.42674 32.0304 4.08412 32.0315C3.7703 32.0325 3.45649 32.0323 3.14266 32.0312C3.02932 32.031 2.91597 32.0312 2.80262 32.0319C1.9413 32.0369 1.28637 31.966 0.639433 31.3396C0.211371 30.8725 -0.014718 30.4245 -0.016685 29.7789C-0.0172181 29.6993 -0.0177512 29.6198 -0.0183005 29.5378C-0.0182568 29.4508 -0.0181992 29.3637 -0.0181289 29.2767C-0.0185033 29.1841 -0.0189287 29.0916 -0.0194011 28.999C-0.020502 28.7485 -0.0207982 28.498 -0.0208781 28.2474C-0.0209671 28.0906 -0.0212343 27.9338 -0.0215652 27.777C-0.0227206 27.2292 -0.0232322 26.6813 -0.0231337 26.1334C-0.0230587 25.6241 -0.0243767 25.1147 -0.0263517 24.6054C-0.0279905 24.167 -0.0286566 23.7286 -0.0285768 23.2902C-0.0285451 23.0288 -0.0288946 22.7675 -0.0302241 22.5062C-0.0314416 22.2601 -0.0314391 22.0141 -0.0305345 21.7681C-0.0304047 21.6783 -0.0306937 21.5884 -0.0314545 21.4986C-0.037841 20.6919 0.0907742 20.1028 0.660429 19.5144C1.15758 19.0587 1.62526 18.8549 2.30759 18.8589Z" fill="#111417"/>
<path d="M2.38858 24.4764C2.49053 24.4757 2.49053 24.4757 2.59454 24.4749C2.6695 24.4753 2.74445 24.4758 2.82168 24.4762C2.90108 24.4759 2.98048 24.4756 3.06229 24.4753C3.28313 24.4745 3.50395 24.4749 3.72479 24.4755C3.96278 24.4759 4.20076 24.4753 4.43875 24.4747C4.90515 24.4739 5.37154 24.4741 5.83793 24.4746C6.21687 24.4751 6.59581 24.4751 6.97475 24.4749C7.05555 24.4749 7.05555 24.4749 7.13798 24.4748C7.2474 24.4748 7.35681 24.4747 7.46623 24.4746C8.49302 24.4741 9.51981 24.4747 10.5466 24.4757C11.4282 24.4766 12.3099 24.4764 13.1915 24.4756C14.2146 24.4746 15.2376 24.4742 16.2606 24.4747C16.3696 24.4748 16.4787 24.4749 16.5877 24.4749C16.6413 24.4749 16.695 24.475 16.7503 24.475C17.1289 24.4752 17.5075 24.4749 17.8861 24.4745C18.3473 24.4739 18.8086 24.4741 19.2698 24.4751C19.5052 24.4756 19.7407 24.4758 19.9762 24.4751C20.231 24.4745 20.4859 24.4753 20.7408 24.4762C20.8532 24.4756 20.8532 24.4756 20.9679 24.4749C21.0359 24.4754 21.1038 24.4759 21.1739 24.4764C21.2622 24.4765 21.2622 24.4765 21.3523 24.4765C21.5 24.5 21.5 24.5 21.6126 24.5814C21.7406 24.7628 21.7134 24.9737 21.7117 25.1878C21.7122 25.2641 21.7122 25.2641 21.7127 25.3421C21.7136 25.5106 21.713 25.6791 21.7124 25.8477C21.7125 25.9647 21.7127 26.0816 21.7129 26.1986C21.7132 26.4439 21.7128 26.6891 21.7119 26.9344C21.7108 27.249 21.7115 27.5636 21.7126 27.8783C21.7133 28.1199 21.713 28.3615 21.7126 28.6031C21.7124 28.7191 21.7126 28.8351 21.713 28.9511C21.7135 29.1132 21.7128 29.2752 21.7117 29.4373C21.7121 29.4854 21.7125 29.5335 21.7129 29.5831C21.709 29.907 21.709 29.907 21.6126 30.0436C21.4602 30.1537 21.3612 30.1485 21.1739 30.1486C21.1059 30.1491 21.0379 30.1496 20.9679 30.1501C20.8929 30.1497 20.818 30.1492 20.7408 30.1488C20.6614 30.1491 20.582 30.1494 20.5002 30.1497C20.2793 30.1505 20.0585 30.1501 19.8377 30.1495C19.5997 30.1491 19.3617 30.1497 19.1237 30.1503C18.6573 30.1511 18.1909 30.1509 17.7245 30.1504C17.3456 30.15 16.9666 30.1499 16.5877 30.1501C16.5069 30.1501 16.5069 30.1501 16.4245 30.1502C16.315 30.1502 16.2056 30.1503 16.0962 30.1504C15.0694 30.1509 14.0426 30.1503 13.0158 30.1493C12.1342 30.1484 11.2526 30.1486 10.3709 30.1495C9.34788 30.1505 8.32485 30.1509 7.30182 30.1503C7.19279 30.1502 7.08377 30.1502 6.97475 30.1501C6.9211 30.1501 6.86746 30.15 6.81218 30.15C6.43356 30.1498 6.05494 30.1501 5.67631 30.1506C5.21509 30.1511 4.75388 30.1509 4.29267 30.1499C4.0572 30.1495 3.82175 30.1493 3.58628 30.1499C3.33141 30.1505 3.07656 30.1498 2.82168 30.1488C2.70925 30.1494 2.70925 30.1494 2.59454 30.1501C2.52657 30.1496 2.45861 30.1491 2.38858 30.1486C2.30027 30.1486 2.30027 30.1486 2.21018 30.1485C2.06247 30.125 2.06247 30.125 1.94983 30.0436C1.82182 29.8622 1.84902 29.6513 1.85071 29.4373C1.85038 29.3863 1.85005 29.3354 1.84971 29.2829C1.84889 29.1144 1.84944 28.9459 1.85007 28.7774C1.84994 28.6604 1.84976 28.5434 1.84953 28.4264C1.84925 28.1811 1.84965 27.9359 1.85053 27.6906C1.85159 27.376 1.85098 27.0614 1.84986 26.7467C1.84918 26.5051 1.84939 26.2635 1.84988 26.022C1.85001 25.9059 1.84985 25.7899 1.84942 25.6739C1.84894 25.5118 1.84966 25.3498 1.85071 25.1878C1.85033 25.1396 1.84995 25.0915 1.84956 25.0419C1.85344 24.718 1.85344 24.718 1.94983 24.5814C2.10221 24.4713 2.20126 24.4765 2.38858 24.4764ZM2.81247 25.4375C2.81247 26.675 2.81247 27.9125 2.81247 29.1875C3.7406 29.1875 4.66872 29.1875 5.62497 29.1875C5.64057 28.6378 5.64057 28.6378 5.65485 28.0881C5.65707 28.0198 5.6593 27.9516 5.66159 27.8814C5.66356 27.8113 5.66552 27.7413 5.66754 27.6691C5.68747 27.5 5.68747 27.5 5.81247 27.375C5.97052 27.3627 6.12173 27.3582 6.27986 27.3591C6.353 27.3588 6.353 27.3588 6.42763 27.3585C6.59193 27.358 6.75621 27.3584 6.9205 27.3588C7.03793 27.3587 7.15535 27.3584 7.27278 27.3582C7.59237 27.3576 7.91196 27.3578 8.23156 27.3582C8.56541 27.3585 8.89925 27.3582 9.2331 27.358C9.79383 27.3578 10.3546 27.3581 10.9153 27.3587C11.5643 27.3594 12.2134 27.3592 12.8624 27.3585C13.4189 27.3579 13.9753 27.3578 14.5317 27.3582C14.8644 27.3584 15.1971 27.3584 15.5298 27.358C15.8425 27.3576 16.1552 27.3579 16.468 27.3586C16.583 27.3587 16.698 27.3587 16.8131 27.3584C16.9696 27.3581 17.1261 27.3585 17.2826 27.3591C17.3286 27.3589 17.3746 27.3586 17.422 27.3583C17.7357 27.3607 17.7357 27.3607 17.875 27.5C17.8949 27.6691 17.8949 27.6691 17.9009 27.8814C17.9042 27.9837 17.9042 27.9837 17.9076 28.0881C17.9097 28.175 17.9118 28.262 17.914 28.3516C17.9218 28.6274 17.9295 28.9033 17.9375 29.1875C18.8656 29.1875 19.7937 29.1875 20.75 29.1875C20.75 27.95 20.75 26.7125 20.75 25.4375C14.8306 25.4375 8.91122 25.4375 2.81247 25.4375ZM6.56247 28.25C6.56247 28.5594 6.56247 28.8688 6.56247 29.1875C10.0068 29.1875 13.4512 29.1875 17 29.1875C17 28.8781 17 28.5688 17 28.25C13.5556 28.25 10.1112 28.25 6.56247 28.25Z" fill="#111417"/>
<path d="M18.125 0.187498C18.1656 0.198224 18.2062 0.208949 18.248 0.22C19.5614 0.573872 20.771 1.18779 21.8125 2.0625C21.8462 2.09085 21.88 2.1192 21.9148 2.14841C23.7243 3.69194 24.7894 5.8921 25 8.25C25.1495 10.6865 24.429 13.0317 22.8125 14.875C22.7691 14.9267 22.7256 14.9784 22.6809 15.0317C21.2653 16.6769 19.1979 17.6675 17.0625 17.9375C16.7215 17.9526 16.3803 17.9529 16.0391 17.9531C15.9912 17.9532 15.9434 17.9532 15.8941 17.9533C15.2032 17.9523 14.5456 17.9317 13.875 17.75C13.8344 17.7393 13.7938 17.7285 13.752 17.7175C12.4386 17.3636 11.2289 16.7497 10.1875 15.875C10.1369 15.8325 10.1369 15.8325 10.0852 15.7891C8.27779 14.2473 7.20655 12.0442 6.99999 9.6875C6.86622 7.41947 7.48116 5.13292 8.91406 3.3418C9.06252 3.18321 9.1427 3.18579 9.36718 3.16406C9.57525 3.16747 9.61454 3.17909 9.78515 3.3164C9.90386 3.55899 9.87398 3.67619 9.81249 3.9375C9.72161 4.08189 9.63293 4.2077 9.52734 4.33984C8.30172 5.96467 7.85702 8.07688 8.10737 10.0787C8.33095 11.574 8.95757 12.9756 9.93749 14.125C10.0105 14.2132 10.0105 14.2132 10.085 14.3032C11.4169 15.8484 13.4177 16.7392 15.4298 16.9168C17.5553 17.056 19.558 16.3411 21.1875 15C21.2421 14.9558 21.2967 14.9115 21.353 14.866C22.8632 13.5821 23.7615 11.5772 23.9375 9.625C24.0756 7.50662 23.4461 5.43541 22.0625 3.8125C22.0138 3.75368 21.9652 3.69487 21.915 3.63428C21.0688 2.65258 19.9525 1.96064 18.75 1.5C18.6578 1.46447 18.6578 1.46447 18.5637 1.42822C16.6468 0.740086 14.4873 0.901063 12.648 1.74011C12.1196 1.99145 11.6205 2.28338 11.168 2.65625C11.0016 2.7846 10.8828 2.84115 10.6719 2.85547C10.4375 2.8125 10.4375 2.8125 10.2812 2.67969C10.1701 2.4667 10.1431 2.36153 10.1875 2.125C10.2885 1.99265 10.3711 1.91407 10.5 1.8125C10.5436 1.77665 10.5872 1.74079 10.6321 1.70386C11.5958 0.955935 12.7101 0.517413 13.875 0.187498C13.9422 0.168027 13.9422 0.168027 14.0109 0.148161C15.2383 -0.188423 16.9035 -0.143466 18.125 0.187498Z" fill="#111417"/>
<path d="M2.38864 20.7264C2.49059 20.7257 2.49059 20.7257 2.5946 20.7249C2.66956 20.7253 2.74451 20.7258 2.82174 20.7262C2.90114 20.7259 2.98054 20.7256 3.06235 20.7253C3.28319 20.7245 3.50401 20.7249 3.72485 20.7255C3.96284 20.7259 4.20082 20.7253 4.43881 20.7247C4.90521 20.7239 5.3716 20.7241 5.83799 20.7246C6.21693 20.7251 6.59587 20.7251 6.97481 20.7249C7.05561 20.7249 7.05561 20.7249 7.13804 20.7248C7.24746 20.7248 7.35687 20.7247 7.46629 20.7246C8.49308 20.7241 9.51987 20.7247 10.5467 20.7257C11.4283 20.7266 12.3099 20.7264 13.1916 20.7256C14.2146 20.7246 15.2377 20.7242 16.2607 20.7247C16.3697 20.7248 16.4787 20.7249 16.5878 20.7249C16.6414 20.7249 16.695 20.725 16.7503 20.725C17.1289 20.7252 17.5076 20.7249 17.8862 20.7245C18.3474 20.7239 18.8086 20.7241 19.2698 20.7251C19.5053 20.7256 19.7408 20.7258 19.9762 20.7251C20.2311 20.7245 20.4859 20.7253 20.7408 20.7262C20.8533 20.7256 20.8533 20.7256 20.968 20.7249C21.0359 20.7254 21.1039 20.7259 21.1739 20.7264C21.2622 20.7265 21.2622 20.7265 21.3523 20.7265C21.5 20.75 21.5 20.75 21.6126 20.8301C21.7465 21.0221 21.7141 21.2565 21.7124 21.4824C21.7126 21.5358 21.7128 21.5892 21.713 21.6442C21.7131 21.7571 21.7128 21.8699 21.712 21.9828C21.711 22.1556 21.712 22.3284 21.7132 22.5012C21.713 22.6108 21.7128 22.7205 21.7124 22.8301C21.7128 22.8818 21.7132 22.9336 21.7136 22.9869C21.7092 23.3439 21.7092 23.3439 21.6126 23.4824C21.4602 23.5908 21.3603 23.586 21.1739 23.5861C21.106 23.5866 21.038 23.5871 20.968 23.5876C20.893 23.5872 20.8181 23.5867 20.7408 23.5863C20.6614 23.5866 20.582 23.5869 20.5002 23.5872C20.2794 23.588 20.0585 23.5876 19.8377 23.587C19.5997 23.5866 19.3617 23.5872 19.1237 23.5878C18.6574 23.5886 18.191 23.5884 17.7246 23.5879C17.3456 23.5875 16.9667 23.5874 16.5878 23.5876C16.507 23.5876 16.507 23.5876 16.4245 23.5877C16.3151 23.5877 16.2057 23.5878 16.0963 23.5879C15.0695 23.5884 14.0427 23.5878 13.0159 23.5868C12.1343 23.5859 11.2526 23.5861 10.371 23.587C9.34794 23.588 8.32491 23.5884 7.30187 23.5878C7.19285 23.5877 7.08383 23.5877 6.97481 23.5876C6.92116 23.5876 6.86752 23.5875 6.81224 23.5875C6.43362 23.5873 6.05499 23.5876 5.67637 23.5881C5.21515 23.5886 4.75394 23.5884 4.29273 23.5874C4.05726 23.587 3.82181 23.5868 3.58634 23.5874C3.33147 23.588 3.07661 23.5873 2.82174 23.5863C2.7093 23.5869 2.7093 23.5869 2.5946 23.5876C2.52663 23.5871 2.45867 23.5866 2.38864 23.5861C2.30033 23.5861 2.30033 23.5861 2.21024 23.586C2.06253 23.5625 2.06253 23.5625 1.94991 23.4824C1.81608 23.2905 1.84847 23.0561 1.85013 22.8301C1.84986 22.75 1.84986 22.75 1.84958 22.6683C1.84946 22.5554 1.8498 22.4426 1.85059 22.3297C1.85159 22.1569 1.8506 21.9841 1.8494 21.8113C1.84952 21.7017 1.84976 21.592 1.85013 21.4824C1.84975 21.4307 1.84937 21.3789 1.84898 21.3256C1.85336 20.9686 1.85336 20.9686 1.94991 20.8301C2.10234 20.7217 2.20225 20.7265 2.38864 20.7264ZM2.81253 21.6875C2.81253 21.9969 2.81253 22.3063 2.81253 22.625C8.73191 22.625 14.6513 22.625 20.75 22.625C20.75 22.3156 20.75 22.0063 20.75 21.6875C14.8307 21.6875 8.91128 21.6875 2.81253 21.6875Z" fill="#111417"/>
<path d="M14.9219 4.42967C15.0751 4.51215 15.2252 4.59909 15.375 4.68749C15.4531 4.73259 15.5313 4.77767 15.6094 4.82274C15.7837 4.92408 15.9571 5.02678 16.1301 5.13011C16.4896 5.34428 16.8522 5.55292 17.2149 5.76171C17.2836 5.80132 17.3523 5.84093 17.4232 5.88175C17.6363 6.00453 17.8494 6.12727 18.0625 6.24999C18.2053 6.33217 18.348 6.41437 18.4907 6.49657C18.5605 6.53671 18.6302 6.57685 18.702 6.61821C18.9061 6.73591 19.1099 6.85402 19.3137 6.97215C19.5455 7.10628 19.7781 7.23827 20.0125 7.36766C20.5537 7.66929 20.9426 7.92272 21.211 8.49608C21.3008 8.9362 21.2879 9.35226 21.0625 9.74999C20.7964 10.1465 20.4313 10.3308 20.0196 10.5586C19.9469 10.5995 19.8742 10.6405 19.8017 10.6816C19.651 10.7668 19.5002 10.8516 19.3493 10.9362C19.0018 11.1313 18.6574 11.3316 18.3125 11.5312C18.1777 11.6091 18.0428 11.6869 17.908 11.7646C17.841 11.8033 17.7741 11.8419 17.7051 11.8817C17.4962 12.0022 17.2873 12.1227 17.0784 12.2432C16.9743 12.3032 16.9743 12.3032 16.8681 12.3645C16.731 12.4435 16.5939 12.5226 16.4568 12.6016C16.1427 12.7827 15.8288 12.9642 15.5156 13.147C15.4606 13.179 15.4055 13.2111 15.3488 13.2442C15.2469 13.3036 15.1452 13.3631 15.0435 13.4228C14.9989 13.4487 14.9544 13.4747 14.9085 13.5015C14.87 13.524 14.8316 13.5465 14.792 13.5697C14.4259 13.7635 13.9295 13.7523 13.5362 13.647C13.1802 13.4855 12.9097 13.2108 12.7463 12.8562C12.6857 12.6824 12.6715 12.5541 12.6708 12.3709C12.6703 12.3086 12.6697 12.2463 12.6692 12.1822C12.6692 12.1145 12.6693 12.0469 12.6694 11.9772C12.6689 11.9054 12.6685 11.8336 12.6681 11.7597C12.6669 11.5223 12.6667 11.285 12.6665 11.0476C12.6661 10.8825 12.6657 10.7174 12.6653 10.5523C12.6645 10.2061 12.6643 9.85992 12.6644 9.51373C12.6644 9.11443 12.6631 8.71516 12.6611 8.31586C12.6593 7.93086 12.6589 7.54587 12.6589 7.16086C12.6588 6.99747 12.6582 6.83408 12.6573 6.67069C12.656 6.44195 12.6564 6.21327 12.6572 5.98453C12.6565 5.91727 12.6558 5.85001 12.655 5.78072C12.6589 5.31663 12.735 4.98472 13.0467 4.62352C13.0815 4.59565 13.1164 4.56777 13.1524 4.53905C13.1871 4.51021 13.2218 4.48136 13.2576 4.45165C13.7781 4.11185 14.3818 4.16493 14.9219 4.42967ZM13.7891 5.32421C13.6188 5.51415 13.6172 5.71719 13.6167 5.96459C13.6164 6.0197 13.6161 6.0748 13.6159 6.13158C13.6159 6.19156 13.6159 6.25153 13.6159 6.31333C13.6157 6.37687 13.6155 6.44041 13.6153 6.50588C13.6147 6.71607 13.6146 6.92627 13.6145 7.13646C13.6143 7.28249 13.6141 7.42851 13.6139 7.57454C13.6135 7.88069 13.6134 8.18684 13.6134 8.49298C13.6134 8.88544 13.6126 9.27789 13.6115 9.67034C13.6108 9.97194 13.6107 10.2735 13.6107 10.5751C13.6107 10.7198 13.6104 10.8645 13.6099 11.0092C13.6093 11.2115 13.6095 11.4138 13.6098 11.6161C13.6095 11.6759 13.6091 11.7358 13.6088 11.7974C13.6076 12.1957 13.6076 12.1957 13.75 12.5625C13.946 12.6931 14.0126 12.7089 14.2381 12.6682C14.5528 12.5689 14.8334 12.3876 15.1172 12.2226C15.222 12.1628 15.222 12.1628 15.3289 12.1018C15.5323 11.9853 15.735 11.8679 15.9375 11.75C16.0119 11.7067 16.0119 11.7067 16.0877 11.6626C16.2977 11.54 16.5072 11.4163 16.7163 11.2922C17.0709 11.0824 17.4282 10.8774 17.7852 10.6719C17.9239 10.5918 18.0627 10.5117 18.2014 10.4316C18.415 10.3084 18.6285 10.1854 18.8425 10.063C19.0515 9.94338 19.2601 9.82328 19.4688 9.70311C19.5329 9.66659 19.5971 9.63008 19.6632 9.59245C19.7222 9.5584 19.7811 9.52434 19.8418 9.48924C19.8937 9.45954 19.9455 9.42983 19.9989 9.39922C20.1418 9.31243 20.1418 9.31243 20.25 9.12499C20.2583 8.90606 20.2583 8.90606 20.1875 8.68749C20.0338 8.54315 20.0338 8.54315 19.8294 8.43993C19.793 8.41927 19.7566 8.3986 19.7191 8.37732C19.6428 8.33417 19.5661 8.29167 19.4891 8.24978C19.3127 8.15345 19.1395 8.05155 18.9656 7.95067C18.8248 7.87064 18.6839 7.79072 18.543 7.71092C18.3882 7.62297 18.2335 7.53489 18.0789 7.44676C18.0404 7.42483 18.0019 7.4029 17.9622 7.38031C17.5983 7.17277 17.2365 6.96169 16.875 6.74999C16.6917 6.64306 16.5084 6.5362 16.325 6.42934C16.1822 6.34589 16.0395 6.26222 15.897 6.1783C15.6984 6.06146 15.4995 5.94538 15.3003 5.82971C15.2234 5.78489 15.1466 5.73981 15.07 5.69446C14.963 5.63117 14.8554 5.56885 14.7478 5.50658C14.6863 5.47058 14.6249 5.43458 14.5615 5.39749C14.3036 5.27994 14.0522 5.19267 13.7891 5.32421Z" fill="#111417"/>
<path d="M23.1043 24.4762C23.1642 24.4757 23.2242 24.4751 23.2859 24.4746C23.3516 24.475 23.4172 24.4754 23.4849 24.4757C23.5887 24.4753 23.5887 24.4753 23.6946 24.4748C23.924 24.4739 24.1534 24.4745 24.3828 24.4751C24.5418 24.475 24.7009 24.4748 24.8599 24.4746C25.1934 24.4743 25.527 24.4747 25.8605 24.4756C26.2462 24.4766 26.6318 24.4763 27.0175 24.4752C27.3884 24.4743 27.7593 24.4744 28.1302 24.4749C28.2881 24.475 28.446 24.4749 28.6039 24.4745C28.8243 24.474 29.0447 24.4747 29.2651 24.4757C29.3308 24.4754 29.3965 24.475 29.4641 24.4746C29.524 24.4751 29.584 24.4757 29.6457 24.4762C29.6979 24.4763 29.75 24.4763 29.8037 24.4764C29.9708 24.5059 30.026 24.5512 30.125 24.6875C30.1435 24.859 30.1506 25.0162 30.1493 25.1878C30.1496 25.2387 30.1499 25.2896 30.1503 25.3421C30.1511 25.5106 30.1505 25.6791 30.1499 25.8477C30.15 25.9647 30.1502 26.0816 30.1505 26.1986C30.1507 26.4439 30.1503 26.6891 30.1495 26.9344C30.1484 27.249 30.149 27.5636 30.1501 27.8783C30.1508 28.1199 30.1506 28.3615 30.1501 28.6031C30.15 28.7191 30.1501 28.8351 30.1506 28.9511C30.151 29.1132 30.1503 29.2752 30.1493 29.4373C30.1496 29.4854 30.15 29.5335 30.1504 29.5831C30.1465 29.9079 30.1465 29.9079 30.048 30.0436C29.9053 30.1488 29.8222 30.1486 29.6457 30.1488C29.5858 30.1493 29.5259 30.1499 29.4641 30.1504C29.3984 30.15 29.3328 30.1497 29.2651 30.1493C29.1613 30.1498 29.1613 30.1498 29.0554 30.1503C28.826 30.1511 28.5966 30.1505 28.3672 30.1499C28.2082 30.15 28.0491 30.1502 27.8901 30.1505C27.5566 30.1507 27.2231 30.1503 26.8895 30.1495C26.5039 30.1484 26.1182 30.1488 25.7325 30.1498C25.3616 30.1507 24.9907 30.1506 24.6198 30.1501C24.4619 30.15 24.304 30.1501 24.1461 30.1506C23.9257 30.151 23.7053 30.1503 23.4849 30.1493C23.4192 30.1496 23.3536 30.15 23.2859 30.1504C23.226 30.1499 23.166 30.1494 23.1043 30.1488C23.0522 30.1487 23 30.1487 22.9463 30.1486C22.7792 30.1191 22.724 30.0739 22.625 29.9375C22.6065 29.766 22.5994 29.6088 22.6007 29.4373C22.6004 29.3863 22.6001 29.3354 22.5998 29.2829C22.5989 29.1144 22.5995 28.9459 22.6001 28.7774C22.6 28.6604 22.5998 28.5434 22.5996 28.4264C22.5993 28.1811 22.5997 27.9359 22.6006 27.6906C22.6016 27.376 22.601 27.0614 22.5999 26.7467C22.5992 26.5051 22.5994 26.2636 22.5999 26.022C22.6 25.9059 22.5999 25.7899 22.5995 25.6739C22.599 25.5118 22.5997 25.3498 22.6007 25.1878C22.6004 25.1396 22.6 25.0915 22.5996 25.0419C22.6035 24.7172 22.6035 24.7172 22.702 24.5815C22.8447 24.4763 22.9278 24.4764 23.1043 24.4762ZM23.5625 25.4375C23.5625 26.675 23.5625 27.9125 23.5625 29.1875C25.4188 29.1875 27.275 29.1875 29.1875 29.1875C29.1875 27.95 29.1875 26.7125 29.1875 25.4375C27.3313 25.4375 25.475 25.4375 23.5625 25.4375Z" fill="#111417"/>
</g>
<defs>
<clipPath id="clip0_2322_45">
<rect width="32" height="32" fill="white"/>
</clipPath>
</defs>
</svg>
