<svg width="100" height="100" viewBox="0 0 100 100" fill="none" xmlns="http://www.w3.org/2000/svg">
<g clip-path="url(#clip0_4413_621)">
<path d="M36.7813 51.4522C38.3892 52.5093 40.0085 53.3921 41.7968 54.1016C41.9194 54.1502 42.042 54.1989 42.1683 54.2491C48.1483 56.5568 53.8849 55.831 59.6816 53.421C61.4072 52.6143 62.972 51.555 64.5467 50.4894C68.2306 48.0179 68.2306 48.0179 70.2636 48.1323C70.4123 48.1369 70.5611 48.1416 70.7144 48.1463C75.6503 48.3642 80.3146 50.3718 83.6931 54.0301C90.0351 61.3151 91.6241 71.7293 91.7968 81.0547C91.8046 81.2911 91.8124 81.5275 91.8204 81.7711C91.9106 86.0398 91.082 90.7681 88.1591 94.0552C87.8773 94.347 87.5928 94.6364 87.3046 94.9219C87.1354 95.0991 86.9662 95.2764 86.7919 95.459C86.6388 95.604 86.4857 95.749 86.328 95.8984C86.1894 96.0321 86.1894 96.0321 86.048 96.1685C82.0232 99.8555 76.8489 100.089 71.7099 100.079C71.1821 100.08 70.6544 100.081 70.1267 100.083C68.8479 100.086 67.5691 100.086 66.2904 100.085C65.2498 100.085 64.2091 100.085 63.1685 100.086C63.0198 100.086 62.871 100.086 62.7178 100.086C62.4155 100.087 62.1133 100.087 61.811 100.087C58.9833 100.09 56.1557 100.089 53.328 100.087C50.7483 100.085 48.1687 100.087 45.5891 100.092C42.9321 100.097 40.2752 100.099 37.6182 100.097C36.1298 100.097 34.6414 100.097 33.153 100.1C31.8859 100.103 30.6188 100.103 29.3517 100.1C28.7069 100.098 28.0621 100.098 27.4173 100.101C21.7562 100.122 16.8818 99.229 12.6952 95.1172C12.5442 94.9709 12.3931 94.8246 12.2375 94.6739C9.46167 91.8078 8.18315 87.8116 8.16336 83.8768C8.16199 83.6965 8.16062 83.5163 8.15921 83.3306C8.15579 82.7469 8.15455 82.1633 8.15421 81.5796C8.15408 81.3806 8.15394 81.1816 8.15381 80.9766C8.15699 77.963 8.26694 75.0445 8.78897 72.0703C8.82353 71.862 8.85808 71.6537 8.89369 71.4391C9.362 68.6449 9.97322 65.9468 10.9374 63.2812C10.9829 63.1534 11.0284 63.0255 11.0753 62.8938C12.1945 59.7928 13.7152 57.0247 15.8202 54.4922C15.9242 54.3585 16.0282 54.2248 16.1353 54.0871C18.8256 50.7147 23.3193 48.7736 27.5213 48.2844C31.4024 47.8833 33.6131 49.3482 36.7813 51.4522Z" fill="black"/>
<path d="M64.2456 4.9675C65.9319 6.38056 67.4176 7.81411 68.75 9.57031C68.8681 9.72439 68.9862 9.87848 69.1078 10.0372C71.3431 13.0849 72.5758 16.4071 73.2422 20.1172C73.2785 20.3171 73.3147 20.517 73.3521 20.723C74.0895 27.2937 72.5877 33.5944 68.5547 38.8672C67.9947 39.5452 67.4059 40.1862 66.7969 40.8203C66.6322 40.9973 66.4676 41.1743 66.2979 41.3567C65.0091 42.7034 63.6726 43.7263 62.1094 44.7266C61.947 44.8348 61.7846 44.9431 61.6173 45.0546C58.0122 47.3624 53.5962 48.3244 49.3653 48.3032C49.1353 48.3023 48.9054 48.3013 48.6685 48.3003C46.8384 48.2758 45.1324 48.104 43.3594 47.6562C43.1661 47.6075 43.1661 47.6075 42.969 47.5578C39.4454 46.64 36.1103 44.8966 33.4511 42.4049C33.0818 42.061 32.7061 41.745 32.312 41.4307C31.3717 40.6297 30.6343 39.6461 29.8828 38.6719C29.766 38.5213 29.6492 38.3708 29.5288 38.2156C26.4856 34.0875 25.1151 29.3298 25.1221 24.231C25.1222 24.0991 25.1223 23.9672 25.1224 23.8314C25.1352 20.3576 25.6799 17.2211 27.1485 14.0625C27.2366 13.8631 27.3247 13.6637 27.4155 13.4582C29.295 9.42321 32.6152 5.91287 36.3282 3.51562C36.4999 3.40333 36.6716 3.29104 36.8485 3.17535C45.1171 -1.94982 56.7165 -1.15713 64.2456 4.9675Z" fill="black"/>
</g>
<defs>
<clipPath id="clip0_4413_621">
<rect width="100" height="100" fill="white"/>
</clipPath>
</defs>
</svg>
